<?xml version="1.0" encoding="UTF-8"?><svg id="Layer_1" xmlns="http://www.w3.org/2000/svg" viewBox="0 0 200 200"><path d="m65.40747,62.69873l13.36603,23.15063-13.36603,23.15063h-26.73199l-13.36609-23.15063,13.36609-23.15063h26.73199m1.15472-2h-29.04144l-14.52075,25.15063,14.52075,25.15063h29.04144l14.52069-25.15063-14.52069-25.15063h0Z"/><path d="m113.40747,90.69873l13.36603,23.15063-13.36603,23.15063h-26.73199l-13.36609-23.15063,13.36609-23.15063h26.73199m1.15472-2h-29.04144l-14.52075,25.15063,14.52075,25.15063h29.04144l14.52069-25.15063-14.52069-25.15063h0Z"/><path d="m113.40747,35.69873l13.36603,23.15063-13.36603,23.15063h-26.73199l-13.36609-23.15063,13.36609-23.15063h26.73199m1.15472-2h-29.04144l-14.52075,25.15063,14.52075,25.15063h29.04144l14.52069-25.15063-14.52069-25.15063h0Z"/><path d="m113.40747,145.69873l13.36603,23.15063-13.36603,23.15063h-26.73199l-13.36609-23.15063,13.36609-23.15063h26.73199m1.15472-2h-29.04144l-14.52075,25.15063,14.52075,25.15063h29.04144l14.52069-25.15063-14.52069-25.15063h0Z"/><path d="m160.40747,118.69873l13.36603,23.15063-13.36603,23.15063h-26.73199l-13.36609-23.15063,13.36609-23.15063h26.73199m1.15472-2h-29.04144l-14.52075,25.15063,14.52075,25.15063h29.04144l14.52069-25.15063-14.52069-25.15063h0Z"/><path d="m160.40747,62.69873l13.36603,23.15063-13.36603,23.15063h-26.73199l-13.36609-23.15063,13.36609-23.15063h26.73199m1.15472-2h-29.04144l-14.52075,25.15063,14.52075,25.15063h29.04144l14.52069-25.15063-14.52069-25.15063h0Z"/><path d="m66.05524,8.07986l13.36609,23.15063-13.36609,23.15063h-26.73199l-13.36609-23.15063,13.36609-23.15063h26.73199m1.15472-2h-29.04144l-14.52075,25.15063,14.52075,25.15063h29.04144l14.52075-25.15063-14.52075-25.15063h0Z"/></svg>