<?xml version="1.0" encoding="UTF-8"?><svg id="Layer_1" xmlns="http://www.w3.org/2000/svg" viewBox="0 0 133 129"><rect x="29.4538" y="24.78579" width="76.14" height="76.14" style="fill:none; stroke:#000; stroke-miterlimit:10; stroke-width:2px;"/><path d="m44.26514,61.86133c.6167.31641,1.56445.63184,2.54248.63184,1.05322,0,1.60986-.43652,1.60986-1.09766,0-.63184-.48145-.99316-1.7002-1.42969-1.68506-.58691-2.7832-1.51953-2.7832-2.99414,0-1.73047,1.44434-3.05371,3.83643-3.05371,1.14355,0,1.98584.24023,2.58789.51172l-.51172,1.84961c-.40625-.19531-1.12842-.48047-2.12109-.48047-.99316,0-1.47461.45117-1.47461.97754,0,.64648.57178.93262,1.88037,1.42871,1.79053.66211,2.6333,1.5957,2.6333,3.02441,0,1.7002-1.30908,3.14453-4.09229,3.14453-1.15869,0-2.30225-.30078-2.87402-.61719l.4668-1.89551Z"/><path d="m54.10156,61.27441c.0752.94824,1.00781,1.39941,2.07617,1.39941.78223,0,1.41406-.10547,2.03076-.30078l.30127,1.5498c-.75244.30078-1.67041.45117-2.66309.45117-2.49756,0-3.92676-1.44434-3.92676-3.74609,0-1.86523,1.1582-3.92676,3.71631-3.92676,2.37695,0,3.27979,1.85059,3.27979,3.6709,0,.3916-.04541.7373-.0752.90234h-4.73926Zm2.69287-1.56445c0-.55664-.24072-1.48926-1.29395-1.48926-.96289,0-1.354.87207-1.41406,1.48926h2.70801Z"/><path d="m60.28223,59.28906c0-1.08398-.03027-1.79102-.06055-2.42285h1.97119l.0752,1.35449h.06006c.37598-1.06836,1.27881-1.51953,1.98584-1.51953.21094,0,.31592,0,.48145.03027v2.15137c-.16553-.03027-.36084-.06055-.6167-.06055-.84229,0-1.41406.45117-1.56494,1.1582-.02979.15039-.04492.33105-.04492.51172v3.73145h-2.28662v-4.93457Z"/><path d="m67.96729,56.86621l.99316,3.41602c.18066.61621.31592,1.20312.42139,1.79004h.04492c.12061-.60156.24072-1.1582.40625-1.79004l.94775-3.41602h2.40723l-2.73828,7.35742h-2.28662l-2.67822-7.35742h2.48242Z"/><path d="m76.60059,54.82031c0,.63184-.48145,1.14355-1.23389,1.14355-.72168,0-1.20312-.51172-1.18848-1.14355-.01465-.66211.4668-1.1582,1.20361-1.1582.7373,0,1.20361.49609,1.21875,1.1582Zm-2.36182,9.40332v-7.35742h2.28662v7.35742h-2.28662Z"/><path d="m83.88086,64.04297c-.40625.18066-1.17383.33105-2.04639.33105-2.37695,0-3.89648-1.44434-3.89648-3.76074,0-2.15234,1.47412-3.91211,4.2124-3.91211.60205,0,1.26416.10547,1.74561.28613l-.36133,1.7002c-.271-.12109-.67676-.22656-1.27881-.22656-1.20361,0-1.98584.8584-1.9707,2.06152,0,1.35449.90234,2.06152,2.01562,2.06152.54199,0,.96289-.09082,1.30908-.22559l.271,1.68457Z"/><path d="m86.7373,61.27441c.0752.94824,1.00781,1.39941,2.07617,1.39941.78223,0,1.41406-.10547,2.03076-.30078l.30127,1.5498c-.75244.30078-1.67041.45117-2.66309.45117-2.49756,0-3.92676-1.44434-3.92676-3.74609,0-1.86523,1.1582-3.92676,3.71631-3.92676,2.37695,0,3.27979,1.85059,3.27979,3.6709,0,.3916-.04541.7373-.0752.90234h-4.73926Zm2.69287-1.56445c0-.55664-.24072-1.48926-1.29395-1.48926-.96289,0-1.354.87207-1.41406,1.48926h2.70801Z"/><rect x="17.7038" y="15.85579" width="40.42" height="19.74" rx="7.52" ry="7.52" style="fill:silver;"/><path d="m27.57666,21.22754v2.9209h2.83008v-2.9209h1.71387v7.60059h-1.71387v-3.17969h-2.83008v3.17969h-1.72559v-7.60059h1.72559Z"/><path d="m35.08887,22.6709h-2.04102v-1.44336h5.84131v1.44336h-2.07471v6.15723h-1.72559v-6.15723Z"/><path d="m41.51807,22.6709h-2.04102v-1.44336h5.84131v1.44336h-2.07471v6.15723h-1.72559v-6.15723Z"/><path d="m46.2334,21.3291c.53027-.08984,1.27441-.15723,2.32275-.15723,1.06006,0,1.81592.20312,2.32324.6084.48486.38379.81201,1.01465.81201,1.75977,0,.74414-.24854,1.375-.69922,1.80371-.58643.55273-1.45459.80078-2.46973.80078-.22559,0-.42822-.01172-.58643-.03418v2.71777h-1.70264v-7.49902Zm1.70264,3.45117c.14697.0332.32715.04492.5752.04492.91357,0,1.47705-.46289,1.47705-1.24023,0-.69922-.48486-1.11621-1.3418-1.11621-.34961,0-.58643.0332-.71045.06738v2.24414Z"/><rect x="20.5238" y="89.17579" width="40.42" height="19.74" rx="7.52" ry="7.52" style="fill:silver;"/><path d="m32.25293,98.93359h-2.79639v1.80469h3.12305v1.40918h-4.84863v-7.60059h4.69092v1.41016h-2.96533v1.57812h2.79639v1.39844Z"/><path d="m34.83691,96.63379l.74463,2.55957c.13525.46191.23633.90137.31543,1.3418h.03369c.09033-.45117.18066-.86816.30469-1.3418l.71045-2.55957h1.8042l-2.05225,5.51367h-1.71387l-2.00732-5.51367h1.86035Z"/><path d="m40.69141,99.9375c.05615.70996.75537,1.04883,1.55615,1.04883.58594,0,1.05957-.0791,1.52197-.22559l.22559,1.16113c-.56396.22559-1.25146.33789-1.99561.33789-1.87207,0-2.94336-1.08203-2.94336-2.80762,0-1.39844.86816-2.94238,2.78516-2.94238,1.78174,0,2.4585,1.38672,2.4585,2.75098,0,.29297-.03418.55273-.05664.67676h-3.55176Zm2.01807-1.17285c0-.41699-.18018-1.11621-.96973-1.11621-.72168,0-1.01465.6543-1.05957,1.11621h2.0293Z"/><path d="m45.32812,98.39258c0-.6875-.02246-1.27441-.04541-1.75879h1.48877l.07861.75488h.03418c.22559-.34961.78906-.87891,1.70264-.87891,1.12744,0,1.97314.74414,1.97314,2.36719v3.27051h-1.71387v-3.05566c0-.71094-.24805-1.19531-.86816-1.19531-.47363,0-.75586.32715-.86816.64258-.04541.10156-.06787.27051-.06787.42871v3.17969h-1.71387v-3.75488Z"/><path d="m53.7876,95.05469v1.5791h1.229v1.2627h-1.229v1.99609c0,.66504.15771.96973.67627.96973.21436,0,.3833-.02246.50732-.0459l.01172,1.29688c-.22559.09082-.63184.14648-1.1167.14648-.55225,0-1.01465-.19141-1.28516-.47266-.31592-.32715-.47363-.85742-.47363-1.63574v-2.25488h-.73291v-1.2627h.73291v-1.19531l1.68018-.38379Z"/><rect x="75.0438" y="15.85579" width="40.42" height="19.74" rx="7.52" ry="7.52" style="fill:silver;"/><path d="m88.40088,23.31445c-.02295.34961-.04541.81152-.04541,1.63477v3.07812c0,1.06055-.21436,1.92871-.83447,2.48047-.60889.51953-1.43213.67676-2.24365.67676-.72168,0-1.48877-.14648-1.98486-.42773l.33838-1.29688c.34961.20215.9585.41699,1.60107.41699.81201,0,1.43213-.43945,1.43213-1.45508v-.36035h-.02246c-.32715.46191-.85693.72168-1.48877.72168-1.36426,0-2.33398-1.10547-2.33398-2.69531,0-1.77051,1.15039-2.89746,2.50342-2.89746.75537,0,1.229.32617,1.51074.77734h.02295l.05615-.65332h1.48877Zm-1.75928,2.24316c0-.1123-.01123-.22559-.03369-.31543-.12402-.45117-.45117-.75586-.9248-.75586-.62012,0-1.12744.56445-1.12744,1.56738,0,.82324.40576,1.4668,1.12744,1.4668.43994,0,.78906-.29395.90186-.69922.04541-.12402.05664-.30469.05664-.45117v-.8125Z"/><path d="m89.78955,21.3291c.55273-.08984,1.37598-.15723,2.28906-.15723,1.12793,0,1.91699.16895,2.4585.59766.45068.36035.69873.89062.69873,1.58984,0,.96973-.6875,1.63477-1.3418,1.87207v.0332c.53027.21484.82324.72168,1.01514,1.4209.23682.85742.47363,1.84961.62012,2.14258h-1.75928c-.12402-.21387-.3042-.83398-.52979-1.77051-.20312-.94727-.53027-1.20605-1.229-1.21777h-.51904v2.98828h-1.70264v-7.49902Zm1.70264,3.27051h.67676c.85693,0,1.36426-.42871,1.36426-1.09375,0-.69922-.47363-1.04883-1.2627-1.06055-.41748,0-.6543.03418-.77832.05664v2.09766Z"/><path d="m96.47852,21.3291c.53027-.08984,1.27441-.15723,2.32275-.15723,1.06006,0,1.81592.20312,2.32324.6084.48486.38379.81201,1.01465.81201,1.75977,0,.74414-.24854,1.375-.69922,1.80371-.58643.55273-1.45459.80078-2.46973.80078-.22559,0-.42822-.01172-.58643-.03418v2.71777h-1.70264v-7.49902Zm1.70264,3.45117c.14697.0332.32715.04492.5752.04492.91357,0,1.47705-.46289,1.47705-1.24023,0-.69922-.48486-1.11621-1.3418-1.11621-.34961,0-.58643.0332-.71045.06738v2.24414Z"/><path d="m108.61426,28.61426c-.31592.15723-1.02637.32617-1.95117.32617-2.62695,0-3.98047-1.63477-3.98047-3.7998,0-2.59375,1.84961-4.03711,4.1499-4.03711.89062,0,1.56738.18066,1.87158.33887l-.34961,1.36426c-.34912-.14648-.83447-.28223-1.44336-.28223-1.36426,0-2.42432.82324-2.42432,2.51465,0,1.52246.90234,2.48145,2.43604,2.48145.51855,0,1.09375-.11328,1.43164-.24805l.25977,1.3418Z"/></svg>