<?xml version="1.0" encoding="UTF-8"?><svg id="Layer_1" xmlns="http://www.w3.org/2000/svg" viewBox="0 0 133 129"><path d="m29.40723,23.93848c-.4209.21094-1.36914.43652-2.60254.43652-3.50586,0-5.31152-2.18164-5.31152-5.07031,0-3.45996,2.46777-5.38574,5.53613-5.38574,1.18945,0,2.0918.24023,2.49805.45117l-.4668,1.82031c-.46582-.19531-1.11328-.37598-1.92578-.37598-1.82031,0-3.23438,1.09863-3.23438,3.35547,0,2.03027,1.20312,3.30957,3.25,3.30957.69141,0,1.45898-.15039,1.91016-.33105l.34668,1.79004Z"/><path d="m37.81445,20.46289c0,2.69336-1.91016,3.92676-3.88184,3.92676-2.15137,0-3.80566-1.41406-3.80566-3.79102s1.56445-3.89648,3.92578-3.89648c2.25781,0,3.76172,1.5498,3.76172,3.76074Zm-5.32617.0752c0,1.26465.52734,2.21191,1.50488,2.21191.8877,0,1.45898-.8877,1.45898-2.21191,0-1.09766-.4209-2.21094-1.45898-2.21094-1.09863,0-1.50488,1.12793-1.50488,2.21094Z"/><path d="m39.22656,19.21484c0-.91797-.03125-1.7002-.06055-2.34766h1.98633l.10449,1.00879h.0459c.30078-.4668,1.05273-1.17383,2.27148-1.17383,1.50391,0,2.63281.99316,2.63281,3.15918v4.36328h-2.28711v-4.07715c0-.94824-.33105-1.59473-1.1582-1.59473-.63281,0-1.00781.43652-1.1582.85742-.06055.13574-.09082.36133-.09082.57129v4.24316h-2.28613v-5.00977Z"/><path d="m48.29492,24.22461v-5.67188h-.96289v-1.68555h.96289v-.31543c0-2.03125,1.58008-3.1748,3.85156-3.1748.7832,0,1.71484.18066,2.16602.45117l-.43555,1.73047c-.36133-.19531-.94727-.37598-1.66992-.37598-1.20312,0-1.625.61621-1.625,1.42871v.25586h4.46875v7.35742h-2.28711v-5.67188h-2.16602v5.67188h-2.30273Z"/><path d="m63.9082,16.86719c-.0293.4668-.05957,1.08398-.05957,2.18164v4.10742c0,1.41406-.28613,2.57324-1.11328,3.31055-.8125.69141-1.91113.90234-2.99414.90234-.96289,0-1.98535-.19531-2.64746-.57227l.45117-1.72949c.4668.27051,1.27832.55664,2.13672.55664,1.08203,0,1.91016-.58691,1.91016-1.94141v-.48145h-.03027c-.43652.61719-1.14355.96289-1.98535.96289-1.82031,0-3.11523-1.47363-3.11523-3.5957,0-2.36133,1.53516-3.86621,3.33984-3.86621,1.00879,0,1.64062.43652,2.0166,1.03809h.03027l.0752-.87305h1.98535Zm-2.34668,2.99414c0-.15039-.01465-.30078-.04492-.4209-.16504-.60156-.60254-1.00781-1.2334-1.00781-.82812,0-1.50488.75195-1.50488,2.09082,0,1.09863.54199,1.95605,1.50488,1.95605.58594,0,1.05273-.3916,1.20312-.93262.06055-.16602.0752-.40625.0752-.60254v-1.08301Z"/><path d="m72.61719,21.8623c0,.96289.0293,1.74512.05957,2.3623h-1.98535l-.10547-1.03809h-.04492c-.28613.45117-.97852,1.20312-2.30273,1.20312-1.48926,0-2.58789-.93262-2.58789-3.2041v-4.31836h2.30273v3.95703c0,1.06836.3457,1.71484,1.14258,1.71484.63281,0,.99414-.43555,1.14453-.79688.05957-.13574.07422-.31641.07422-.49609v-4.37891h2.30273v4.99512Z"/><path d="m74.44922,19.29004c0-1.08301-.03027-1.79102-.06055-2.42285h1.9707l.07617,1.35449h.05957c.37598-1.06836,1.27832-1.51953,1.98535-1.51953.21094,0,.31641,0,.48242.03027v2.15137c-.16602-.03027-.36133-.06055-.61719-.06055-.8418,0-1.41406.45117-1.56445,1.1582-.03027.15137-.04492.33105-.04492.51172v3.73145h-2.28711v-4.93457Z"/><path d="m84.18066,24.22461l-.13574-.7373h-.04492c-.48047.58691-1.2334.90234-2.10547.90234-1.49023,0-2.37695-1.08301-2.37695-2.25586,0-1.91113,1.71484-2.8291,4.31738-2.81348v-.10547c0-.3916-.21094-.94824-1.33887-.94824-.75195,0-1.5498.25586-2.03125.55664l-.42188-1.47461c.51172-.28516,1.51953-.64648,2.85938-.64648,2.45215,0,3.23438,1.44434,3.23438,3.1748v2.55762c0,.70703.03027,1.38379.10547,1.79004h-2.06152Zm-.27051-3.47559c-1.20312-.01465-2.13672.27051-2.13672,1.1582,0,.58691.3916.87305.90234.87305.57227,0,1.03906-.37598,1.18945-.84277.0293-.12012.04492-.25586.04492-.39062v-.79785Z"/><path d="m90.37695,14.76074v2.10645h1.63965v1.68555h-1.63965v2.66309c0,.8877.21094,1.29395.90234,1.29395.28613,0,.51172-.03027.67773-.06055l.01465,1.73047c-.30078.12012-.84277.19531-1.48926.19531-.7373,0-1.35449-.25586-1.71484-.63184-.42188-.43652-.63281-1.14355-.63281-2.18164v-3.00879h-.97754v-1.68555h.97754v-1.59473l2.24219-.51172Z"/><path d="m95.70117,14.82129c0,.63184-.48242,1.14355-1.23438,1.14355-.72266,0-1.20312-.51172-1.18848-1.14355-.01465-.66211.46582-1.1582,1.2041-1.1582.73633,0,1.20312.49609,1.21875,1.1582Zm-2.3623,9.40332v-7.35742h2.28613v7.35742h-2.28613Z"/><path d="m104.72656,20.46289c0,2.69336-1.91113,3.92676-3.88281,3.92676-2.15039,0-3.80566-1.41406-3.80566-3.79102s1.56445-3.89648,3.92676-3.89648c2.25684,0,3.76172,1.5498,3.76172,3.76074Zm-5.32617.0752c0,1.26465.52637,2.21191,1.50391,2.21191.88867,0,1.45898-.8877,1.45898-2.21191,0-1.09766-.41992-2.21094-1.45898-2.21094-1.09766,0-1.50391,1.12793-1.50391,2.21094Z"/><path d="m106.1377,19.21484c0-.91797-.03027-1.7002-.06055-2.34766h1.98633l.10449,1.00879h.0459c.30078-.4668,1.05371-1.17383,2.27148-1.17383,1.50488,0,2.63379.99316,2.63379,3.15918v4.36328h-2.28711v-4.07715c0-.94824-.33203-1.59473-1.1582-1.59473-.63281,0-1.00879.43652-1.15918.85742-.05957.13574-.09082.36133-.09082.57129v4.24316h-2.28613v-5.00977Z"/><rect x="12.1627" y="29.20729" width="22" height="22" style="fill:#d57d9a;"/><rect x="71.07179" y="29.20729" width="22" height="22" style="fill:#d57d9a;"/><rect x="100.52634" y="29.20729" width="22" height="22" style="fill:#90e8cb;"/><rect x="41.61725" y="29.20729" width="22" height="22" style="fill:#d57d9a;"/><rect x="12.1627" y="57.70729" width="22" height="22" style="fill:#d57d9a;"/><rect x="71.07179" y="57.70729" width="22" height="22" style="fill:#b5f0dd;"/><rect x="100.52634" y="57.70729" width="22" height="22" style="fill:#46d9a9;"/><rect x="41.61725" y="57.70729" width="22" height="22" style="fill:#46d9a9;"/><rect x="12.1627" y="86.20729" width="22" height="22" style="fill:#d57d9a;"/><rect x="71.07179" y="86.20729" width="22" height="22" style="fill:#46d9a9;"/><rect x="100.52634" y="86.20729" width="22" height="22" style="fill:#90e8cb;"/><rect x="41.61725" y="86.20729" width="22" height="22" style="fill:#46d9a9;"/></svg>