<?xml version="1.0" encoding="UTF-8"?><svg id="Layer_1" xmlns="http://www.w3.org/2000/svg" viewBox="0 0 133 129"><rect x="29.4538" y="24.78579" width="76.14" height="76.14" style="fill:none; stroke:#000; stroke-miterlimit:10; stroke-width:2px;"/><path d="m41.1543,63.9375c-.42188.21094-1.36914.43652-2.60352.43652-3.50488,0-5.31055-2.18164-5.31055-5.07031,0-3.45996,2.46777-5.38574,5.53711-5.38574,1.18848,0,2.09082.24023,2.49707.45117l-.46582,1.82031c-.4668-.19531-1.11328-.37598-1.92578-.37598-1.82031,0-3.23535,1.09863-3.23535,3.35449,0,2.03125,1.2041,3.31055,3.25,3.31055.69238,0,1.45996-.15039,1.91113-.33105l.3457,1.79004Z"/><path d="m49.56152,60.46191c0,2.69336-1.91113,3.92676-3.88184,3.92676-2.15137,0-3.80664-1.41406-3.80664-3.79102s1.56445-3.89648,3.92773-3.89648c2.25586,0,3.76074,1.5498,3.76074,3.76074Zm-5.32617.0752c0,1.26465.52637,2.21191,1.50488,2.21191.8877,0,1.45898-.8877,1.45898-2.21191,0-1.09766-.4209-2.21094-1.45898-2.21094-1.09863,0-1.50488,1.12793-1.50488,2.21094Z"/><path d="m50.97266,59.21387c0-.91797-.0293-1.7002-.06055-2.34766h1.98633l.10547,1.00879h.04492c.30078-.4668,1.05371-1.17383,2.27148-1.17383,1.50586,0,2.63379.99316,2.63379,3.15918v4.36328h-2.28711v-4.07715c0-.94824-.33105-1.59473-1.15918-1.59473-.63086,0-1.00781.43652-1.1582.85742-.05957.13574-.08984.36133-.08984.57129v4.24316h-2.28711v-5.00977Z"/><path d="m59.78711,59.21387c0-.91797-.03125-1.7002-.06055-2.34766h1.98633l.10449,1.00879h.0459c.30078-.4668,1.05273-1.17383,2.27148-1.17383,1.50391,0,2.63281.99316,2.63281,3.15918v4.36328h-2.28711v-4.07715c0-.94824-.33105-1.59473-1.1582-1.59473-.63281,0-1.00781.43652-1.1582.85742-.06055.13574-.09082.36133-.09082.57129v4.24316h-2.28613v-5.00977Z"/><path d="m70.36035,61.27441c.0752.94824,1.00781,1.39941,2.07617,1.39941.78223,0,1.41406-.10547,2.03027-.30078l.30176,1.5498c-.75293.30078-1.6709.45117-2.66309.45117-2.49805,0-3.92676-1.44434-3.92676-3.74609,0-1.86523,1.1582-3.92676,3.71582-3.92676,2.37695,0,3.28027,1.85059,3.28027,3.6709,0,.3916-.0459.7373-.0752.90234h-4.73926Zm2.69238-1.56445c0-.55664-.24023-1.48926-1.29297-1.48926-.96289,0-1.35449.87207-1.41406,1.48926h2.70703Z"/><path d="m82.0625,64.04297c-.40625.18066-1.17383.33105-2.04688.33105-2.37695,0-3.89648-1.44434-3.89648-3.76074,0-2.15234,1.47461-3.91211,4.21289-3.91211.60156,0,1.26367.10547,1.74609.28613l-.36133,1.7002c-.27148-.12109-.67773-.22656-1.2793-.22656-1.20312,0-1.98633.8584-1.9707,2.06152,0,1.35449.90234,2.06152,2.01562,2.06152.54199,0,.96289-.09082,1.30859-.22559l.27148,1.68457Z"/><path d="m86.12109,54.75977v2.10645h1.64062v1.68555h-1.64062v2.66309c0,.8877.21094,1.29395.90234,1.29395.28711,0,.51172-.03027.67773-.06055l.01562,1.73047c-.30078.12012-.84375.19531-1.49023.19531-.73633,0-1.35352-.25586-1.71484-.63184-.42188-.43652-.63184-1.14355-.63184-2.18164v-3.00879h-.97754v-1.68555h.97754v-1.59473l2.24121-.51172Z"/><path d="m96.27539,60.46191c0,2.69336-1.91016,3.92676-3.88184,3.92676-2.15137,0-3.80566-1.41406-3.80566-3.79102s1.56445-3.89648,3.92578-3.89648c2.25781,0,3.76172,1.5498,3.76172,3.76074Zm-5.32617.0752c0,1.26465.52734,2.21191,1.50488,2.21191.8877,0,1.45898-.8877,1.45898-2.21191,0-1.09766-.4209-2.21094-1.45898-2.21094-1.09863,0-1.50488,1.12793-1.50488,2.21094Z"/><path d="m97.6875,59.28906c0-1.08398-.03125-1.79102-.06055-2.42285h1.9707l.0752,1.35449h.05957c.37695-1.06836,1.2793-1.51953,1.98633-1.51953.21094,0,.31641,0,.48145.03027v2.15137c-.16504-.03027-.36035-.06055-.61621-.06055-.84375,0-1.41406.45117-1.56445,1.1582-.03125.15039-.0459.33105-.0459.51172v3.73145h-2.28613v-4.93457Z"/><rect x="80.5238" y="89.17579" width="45.42" height="19.74" rx="7.52" ry="7.52" style="fill:silver;"/><path d="m85.80078,100.37793c.46289.2373,1.17188.47363,1.90625.47363.78906,0,1.20605-.32715,1.20605-.82324,0-.47363-.36035-.74414-1.27441-1.07129-1.26367-.43945-2.08594-1.13867-2.08594-2.24414,0-1.2959,1.08203-2.28906,2.875-2.28906.85742,0,1.48828.18066,1.93945.38379l-.38281,1.38672c-.30469-.14648-.8457-.36035-1.58984-.36035s-1.10547.33789-1.10547.73242c0,.48535.42871.69922,1.41016,1.07129,1.3418.49609,1.97266,1.19531,1.97266,2.2666,0,1.27441-.98047,2.35645-3.06641,2.35645-.86914,0-1.72656-.22461-2.1543-.46191l.34961-1.4209Z"/><path d="m93.64062,95.05566v1.5791h1.22852v1.2627h-1.22852v1.99609c0,.66504.15723.96973.67578.96973.21484,0,.38281-.02246.50781-.0459l.01172,1.29688c-.22656.09082-.63281.14648-1.11719.14648-.55273,0-1.01465-.19141-1.28516-.47363-.31641-.32617-.47363-.85645-.47363-1.63477v-2.25488h-.7334v-1.2627h.7334v-1.19531l1.68066-.38379Z"/><path d="m95.86328,98.4502c0-.8125-.02344-1.3418-.0459-1.81543h1.47754l.05664,1.01465h.04492c.28125-.80078.95801-1.13867,1.48828-1.13867.1582,0,.23633,0,.36133.02246v1.6123c-.125-.02246-.27148-.04492-.46289-.04492-.63086,0-1.06055.33789-1.17285.86816-.02246.1123-.03418.24805-.03418.38281v2.79688h-1.71289v-3.69824Z"/><path d="m101.37793,99.93848c.05566.70996.75488,1.04883,1.55566,1.04883.58594,0,1.06055-.0791,1.52246-.22559l.22559,1.16113c-.56445.22559-1.25195.33789-1.99609.33789-1.87109,0-2.94336-1.08203-2.94336-2.80762,0-1.39844.86914-2.94238,2.78516-2.94238,1.78223,0,2.45898,1.38672,2.45898,2.75098,0,.29297-.03418.55273-.05664.67676h-3.55176Zm2.01855-1.17285c0-.41699-.18066-1.11621-.9707-1.11621-.7207,0-1.01367.6543-1.05859,1.11621h2.0293Z"/><path d="m109.14941,102.14844l-.10156-.55273h-.03418c-.36035.44043-.92383.67676-1.57812.67676-1.11719,0-1.78125-.81152-1.78125-1.69141,0-1.43164,1.28516-2.12012,3.23633-2.1084v-.0791c0-.29297-.1582-.71094-1.00391-.71094-.56445,0-1.16211.19238-1.52246.41797l-.31543-1.10547c.38281-.21387,1.13867-.48438,2.14258-.48438,1.83789,0,2.42383,1.08203,2.42383,2.37891v1.91699c0,.53027.02246,1.03711.0791,1.3418h-1.54492Zm-.20312-2.60449c-.90137-.01172-1.60059.20312-1.60059.86816,0,.43945.29297.6543.67578.6543.42871,0,.77832-.28223.89062-.63184.02344-.09082.03418-.19141.03418-.29297v-.59766Z"/><path d="m111.9707,98.39355c0-.6875-.02246-1.27441-.04492-1.75879h1.44336l.07812.74414h.03418c.2373-.34961.72168-.86816,1.66895-.86816.71094,0,1.27441.36035,1.51172.93555h.02148c.20312-.28223.45117-.50781.71094-.66504.30469-.18066.64258-.27051,1.04883-.27051,1.05957,0,1.86035.74414,1.86035,2.38965v3.24805h-1.66895v-2.99902c0-.80078-.25977-1.26367-.8125-1.26367-.39453,0-.67578.27051-.78906.59766-.04492.12402-.06738.30469-.06738.44043v3.22461h-1.66895v-3.08984c0-.69922-.24805-1.17285-.78906-1.17285-.43945,0-.69922.33887-.80078.62012-.05664.13574-.06738.29395-.06738.42871v3.21387h-1.66895v-3.75488Z"/><rect x="75.0438" y="15.85579" width="40.42" height="19.74" rx="7.52" ry="7.52" style="fill:silver;"/><path d="m88.40039,23.31445c-.02246.34961-.04492.81152-.04492,1.63477v3.07812c0,1.06055-.21484,1.92871-.83398,2.48047-.60938.51953-1.43262.67676-2.24414.67676-.72168,0-1.48828-.14648-1.98438-.42773l.33789-1.29688c.34961.20215.95898.41699,1.60156.41699.81152,0,1.43164-.43945,1.43164-1.45508v-.36035h-.02246c-.32715.46191-.85645.72168-1.48926.72168-1.36328,0-2.33398-1.10547-2.33398-2.69531,0-1.77051,1.15039-2.89746,2.50391-2.89746.75586,0,1.22852.32617,1.51074.77734h.02246l.05664-.65332h1.48828Zm-1.75879,2.24316c0-.1123-.01074-.22559-.03418-.31543-.12305-.45117-.45117-.75586-.92383-.75586-.62109,0-1.12793.56445-1.12793,1.56738,0,.82324.40527,1.4668,1.12793,1.4668.43945,0,.78906-.29395.90137-.69922.0459-.12402.05664-.30469.05664-.45117v-.8125Z"/><path d="m89.78906,21.3291c.55273-.08984,1.37695-.15723,2.28906-.15723,1.12891,0,1.91797.16895,2.45898.59766.45117.36035.69922.89062.69922,1.58984,0,.96973-.6875,1.63477-1.3418,1.87207v.0332c.5293.21484.82227.72168,1.01465,1.4209.2373.85742.47363,1.84961.62012,2.14258h-1.75977c-.12305-.21387-.30371-.83398-.5293-1.77051-.20312-.94727-.53027-1.20605-1.22852-1.21777h-.51953v2.98828h-1.70312v-7.49902Zm1.70312,3.27051h.67676c.85645,0,1.36426-.42871,1.36426-1.09375,0-.69922-.47363-1.04883-1.2627-1.06055-.41699,0-.6543.03418-.77832.05664v2.09766Z"/><path d="m96.47852,21.3291c.53027-.08984,1.27441-.15723,2.32227-.15723,1.06055,0,1.81641.20312,2.32422.6084.48438.38379.81152,1.01465.81152,1.75977,0,.74414-.24902,1.375-.69922,1.80371-.58691.55273-1.4541.80078-2.46973.80078-.22559,0-.42773-.01172-.58594-.03418v2.71777h-1.70312v-7.49902Zm1.70312,3.45117c.14648.0332.32617.04492.57422.04492.91406,0,1.47754-.46289,1.47754-1.24023,0-.69922-.48535-1.11621-1.3418-1.11621-.34961,0-.58691.0332-.70996.06738v2.24414Z"/><path d="m108.61426,28.61426c-.31543.15723-1.02637.32617-1.95117.32617-2.62695,0-3.98047-1.63477-3.98047-3.7998,0-2.59375,1.84961-4.03711,4.14941-4.03711.89062,0,1.56836.18066,1.87207.33887l-.34961,1.36426c-.34863-.14648-.83496-.28223-1.44336-.28223-1.36426,0-2.4248.82324-2.4248,2.51465,0,1.52246.90234,2.48145,2.43652,2.48145.51855,0,1.09375-.11328,1.43164-.24805l.25977,1.3418Z"/></svg>