<svg xmlns="http://www.w3.org/2000/svg" viewBox="0 0 100 101">
    <path fill-rule="evenodd" clip-rule="evenodd"
        d="M59.2414 55.4692 88.5392 82.1049 84.654 86.4219 55.3705 59.7862C50.3487 64.2764 43.7976 66.6726 37.0638 66.4822 30.3299 66.2919 23.9247 63.5294 19.1645 58.7626c-4.7601-4.7668-7.5136-11.1759-7.6945-17.9101C11.289 34.1184 13.6944 27.5708 18.1916 22.5552c4.4973-5.0155 10.7449-8.118 17.4589-8.6698 6.7139-.5517 13.3842 1.4892 18.6399 5.7033 5.2557 4.2141 8.6977 10.2813 9.6185 16.9547C64.8298 43.2167 63.1595 49.9892 59.2414 55.4692zM24.9068 55.9033c3.7083 3.0117 8.3468 4.6434 13.1239 4.6168C43.4793 60.4975 48.6962 58.3135 52.5357 54.4476c3.0947-3.107 5.1118-7.1114 5.7752-11.4258H49.8466L45.348 53.7738 40.0368 53.7708 32.58 35.8921l-2.2433 5.3618-2.655 1.7672H17.5201C17.5707 43.35 17.6293 43.6783 17.696 44.0057 18.6499 48.6867 21.1984 52.8917 24.9068 55.9033zM17.4475 37.2651C17.7599 34.8248 18.5084 32.4419 19.676 30.2351c2.2342-4.2227 5.8642-7.5394 10.2708-9.3842S39.2637 18.7473 43.8398 20.1188C48.4159 21.4904 52.3744 24.4071 55.0399 28.3716c1.8031 2.6816 2.9389 5.7303 3.3439 8.8942H47.931L45.276 39.033l-2.2434 5.3618-7.4568-17.8787L30.2646 26.5131l-4.4985 10.752H17.4475z">
    </path>
</svg>
