<svg width="64" height="64" viewBox="0 0 64 64" fill="none" xmlns="http://www.w3.org/2000/svg">
    <path fill-rule="evenodd" clip-rule="evenodd"
        d="M51.4372 57.0486H40.0506l-2.3337-4H49.4372V25.2045L35.4559 25.1468l-1.9917-2V9.10795L17.4106 9.10796V37.9861h-4V7.10796l2-2H35.4642l1.42.5916L52.8572 21.8043 53.4372 23.2127V55.0486l-2 2zm-13.973-45.084v9.1905L46.617 21.1928l-9.1528-9.2282z"
        fill="#0055dc"></path>
    <path
        d="M17.4106 60.5137c2.6776.0 4.8482-2.1706 4.8482-4.8482.0-1.8408-1.026-3.442-2.5372-4.263C19.6201 51.3474 19.5164 51.2958 19.4106 51.2478 18.8009 50.9714 18.1237 50.8174 17.4106 50.8174 16.8249 50.8174 16.2635 50.9212 15.7437 51.1116 15.6694 51.1388 15.596 51.1677 15.5235 51.1984 15.4857 51.2144 15.448 51.2309 15.4106 51.2478 13.7309 52.0095 12.5625 53.7011 12.5625 55.6655c0 2.6776 2.1706 4.8482 4.8481 4.8482z"
        fill="#0055dc"></path>
    <path d="M27.8201 59.909l5.213-8.9351 5.2133 8.9351H27.8201z" fill="#0055dc"></path>
    <path
        d="M27.1496 41.2822V36.3807h-4V41.2822h-7.739v6.7923C16.0492 47.9067 16.7195 47.8174 17.4106 47.8174 18.1018 47.8174 18.7721 47.9067 19.4106 48.0745V45.2822H30.8889V48.462h4V41.2822H27.1496z"
        fill="#0055dc"></path>
</svg>
