<svg width="64" height="65" viewBox="0 0 64 65" fill="none" xmlns="http://www.w3.org/2000/svg">
    <path fill-rule="evenodd" clip-rule="evenodd"
        d="M52.0772 36.797c-1.2027-3.2707-3.3972-7.0313-6.4777-10.7851l3.0545-3.0546C53.7629 29.0341 56.7805 35.4576 57.071 40.5379 57.3427 43.3696 56.751 45.7305 55.1792 47.3024 54.9643 47.5172 54.7348 47.7137 54.4913 47.8922c-2.4228 2.2403-6.5628 4.0429-11.537 4.389L42.9577 52.2811c.7027 1.9304 1.0722 3.9861 1.0722 6.0799l-2 2H10.4805l-2.00003-2c0-4.7142 1.87273-9.2352 5.20613-12.5686 1.6144-1.6145 3.5075-2.8864 5.5662-3.7687C19.2537 42.0246 19.2545 42.0255 19.2553 42.0263V42.0252C8.14513 30.1304 10.0038 14.8879 15.0307 9.55482c1.3545-1.43331 3.2506-2.2204 5.5097-2.41598 3.6292-.61683 8.5916.8062 13.8159 3.87526 2.3854 1.3299 4.8087 2.9794 7.178 4.9207l-2.9684 2.9685c-2.0837-1.7492-4.1757-3.2266-6.1909-4.414-2.0933-1.1642-4.1205-2.0381-5.9962-2.6088C24.1887 11.214 22.463 11.02 21.1368 11.1033 20.3863 11.2503 19.9089 11.524 19.6514 11.7815c-.683.683-1.4792 2.9118.273200000000003 7.6773 1.6242 4.4167 5.0569 9.7271 10.0381 14.7073s10.2924 8.4121 14.7098 10.0357C48.7974 45.7179 51.0219 45.3254 51.9885 44.7496L52.0247 44.7126 52.055 44.6812C52.6788 44.0144 53.1824 42.7672 53.0849 40.8114 52.9732 39.7397 52.672 38.4145 52.0772 36.797zM22.5135 45.1011 22.5146 45.1012c5.3822 4.5003 10.987 6.5813 16.0678 7.1042L38.5778 52.2051C39.2286 53.5079 39.6711 54.9104 39.884 56.361H12.6264C13.0539 53.4474 14.4079 50.7279 16.515 48.6208c1.6813-1.6814 3.7526-2.8832 6.0012-3.5174C22.5153 45.1027 22.5144 45.1019 22.5135 45.1011zm21.3682 3.0638c-5.2132-1.7807-11.2453-5.6694-16.7473-11.1704-6.2089-6.2076-10.3646-13.0904-11.7543-18.71C15.0885 19.8982 14.9705 21.7475 15.1277 23.7759c.4147 5.3519 2.7429 11.5081 8.3498 16.8274 7.233 6.8621 14.7602 8.3045 20.4042 7.5616z"
        fill="#0156dd"></path>
    <path
        d="M53.3118 13.4976C53.7705 15.2097 52.7545 16.9695 51.0425 17.4282 50.6419 17.5356 50.2387 17.5622 49.8501 17.518L37.0569 30.3111l-2.8284-2.8284L47.0224 14.6889C46.8449 13.1357 47.8258 11.6451 49.3812 11.2283c1.7121-.4587 3.4718.5573 3.9306 2.2693z"
        fill="#0156dd"></path>
</svg>
