<svg xmlns="http://www.w3.org/2000/svg" viewBox="0 0 64 64">
    <path
        d="M50.2509 42.5342C49.4647 43.8959 49.9312 45.6371 51.2929 46.4233 52.6546 47.2095 54.3959 46.7429 55.182 45.3812 55.9682 44.0195 55.5017 42.2783 54.14 41.4921S51.037 41.1725 50.2509 42.5342z">
    </path>
    <path
        d="M31.9974 5.99963c-1.5724.0-2.8471 1.27466-2.8471 2.84702.0 1.57235 1.2747 2.84705 2.8471 2.84705 1.5723.0 2.847-1.2747 2.847-2.84705.0-1.57236-1.2747-2.84702-2.847-2.84702z">
    </path>
    <path
        d="M27.5745 13.2857l-2-3.46408L10.3392 18.6177 9.33915 20.3498V37.9024H13.3392V23.8139l3.4741 2.0058 2-3.4641-3.4741-2.0058 12.2353-7.0641z">
    </path>
    <path
        d="M15.7654 39.4072l2 3.4641 12.2911-7.0962v8.497h4v-8.497l12.1807 7.0325 2-3.4641L36.0565 32.311l7.3587-4.2486-2-3.4641-7.3587 4.2486V14.6149h-4v14.232l-7.3587-4.2486-2 3.4641 7.3587 4.2486-12.2911 7.0962z">
    </path>
    <path
        d="M17.6762 45.6214l-2 3.4641 15.3803 8.8799L33.0565 57.9653l15.2683-8.8151-2-3.4641-12.2683 7.0831V48.7576h-4v4.0116L17.6762 45.6214z">
    </path>
    <path
        d="M54.7739 20.3498V37.8783h-4V23.8139l-3.4742 2.0058-2-3.4641 3.4742-2.0058-12.3248-7.1157 2-3.46413L53.7739 18.6177l1 1.7321z">
    </path>
    <path
        d="M13.7435 42.6876C12.9573 41.3259 11.2161 40.8594 9.85441 41.6455 8.4927 42.4317 8.02614 44.1729 8.81232 45.5346 9.59851 46.8964 11.3397 47.3629 12.7014 46.5767 14.0631 45.7905 14.5297 44.0493 13.7435 42.6876z">
    </path>
</svg>
