<?xml version="1.0" encoding="UTF-8"?><svg id="Layer_1" xmlns="http://www.w3.org/2000/svg" viewBox="0 0 532 618.27027"><path d="m107.8418,176.14392c.57422.35352,1.41309.64746,2.29688.64746,1.31055,0,2.07617-.69238,2.07617-1.69336,0-.92773-.53027-1.45801-1.87012-1.97266-1.62012-.57422-2.62109-1.41406-2.62109-2.8125,0-1.5459,1.28027-2.69531,3.20996-2.69531,1.01562,0,1.75195.23633,2.19336.48633l-.35352,1.0459c-.32324-.17676-.98633-.47168-1.88477-.47168-1.35352,0-1.86914.80957-1.86914,1.4873,0,.92773.60352,1.38379,1.97266,1.91406,1.67871.64844,2.5332,1.45801,2.5332,2.91602,0,1.53125-1.13477,2.85645-3.47559,2.85645-.95703,0-2.00293-.28027-2.53223-.63379l.32422-1.07422Z"/><path d="m115.2334,172.90467c0-.91309-.0293-1.64941-.05859-2.32715h1.16309l.05859,1.22266h.0293c.53125-.86914,1.37012-1.38477,2.5332-1.38477,1.72266,0,3.01855,1.45801,3.01855,3.62305,0,2.56152-1.56152,3.82812-3.23926,3.82812-.94238,0-1.76758-.41211-2.19434-1.11914h-.0293v3.87207h-1.28125v-7.71484Zm1.28125,1.89941c0,.19141.0293.36816.05957.5293.23438.89844,1.01562,1.5166,1.94336,1.5166,1.36914,0,2.16406-1.11816,2.16406-2.75293,0-1.42871-.75098-2.65039-2.12012-2.65039-.88379,0-1.70801.63281-1.95801,1.60449-.04492.16211-.08887.35352-.08887.53027v1.22266Z"/><path d="m124.33398,174.37635c.0293,1.75293,1.14844,2.47363,2.44434,2.47363.92773,0,1.4873-.16113,1.97363-.36719l.2207.92676c-.45703.20703-1.2373.44238-2.37109.44238-2.19336,0-3.50391-1.44336-3.50391-3.59277,0-2.15039,1.26562-3.84375,3.3418-3.84375,2.32617,0,2.94531,2.04688,2.94531,3.35742,0,.26562-.0293.47168-.04492.60352h-5.00586Zm3.79883-.92773c.01562-.82422-.33789-2.10547-1.79688-2.10547-1.31055,0-1.88477,1.20801-1.9873,2.10547h3.78418Z"/><path d="m136.07031,177.43982c-.33887.17676-1.08984.41211-2.04688.41211-2.15039,0-3.54883-1.45801-3.54883-3.6377,0-2.19336,1.50195-3.78418,3.82812-3.78418.76562,0,1.44336.19141,1.79688.36816l-.29492,1.00195c-.30859-.17676-.79492-.33887-1.50195-.33887-1.63477,0-2.51758,1.20703-2.51758,2.69434,0,1.64941,1.06055,2.66504,2.47363,2.66504.73633,0,1.22168-.19141,1.59082-.35352l.2207.97266Z"/><path d="m140.57617,176.14392c.57422.35352,1.41406.64746,2.29688.64746,1.31055,0,2.07617-.69238,2.07617-1.69336,0-.92773-.5293-1.45801-1.86914-1.97266-1.62109-.57422-2.62109-1.41406-2.62109-2.8125,0-1.5459,1.28027-2.69531,3.20898-2.69531,1.0166,0,1.75195.23633,2.19434.48633l-.35352,1.0459c-.32324-.17676-.98633-.47168-1.88477-.47168-1.35449,0-1.87012.80957-1.87012,1.4873,0,.92773.60352,1.38379,1.97266,1.91406,1.67969.64844,2.5332,1.45801,2.5332,2.91602,0,1.53125-1.13379,2.85645-3.47461,2.85645-.95703,0-2.00293-.28027-2.5332-.63379l.32422-1.07422Z"/><path d="m148.77832,174.37635c.0293,1.75293,1.14844,2.47363,2.44434,2.47363.92773,0,1.4873-.16113,1.97266-.36719l.2207.92676c-.45605.20703-1.23633.44238-2.37012.44238-2.19434,0-3.50488-1.44336-3.50488-3.59277,0-2.15039,1.2666-3.84375,3.34277-3.84375,2.32715,0,2.94531,2.04688,2.94531,3.35742,0,.26562-.03027.47168-.04395.60352h-5.00684Zm3.79883-.92773c.01465-.82422-.33887-2.10547-1.7959-2.10547-1.31055,0-1.88477,1.20801-1.98828,2.10547h3.78418Z"/><path d="m155.43359,172.80115c0-.83887-.01367-1.56055-.05859-2.22363h1.13477l.04297,1.39941h.05957c.32324-.95703,1.10449-1.56152,1.97363-1.56152.14648,0,.25.01465.36719.04492v1.22168c-.13281-.0293-.26465-.04395-.44141-.04395-.91309,0-1.56055.69141-1.7373,1.66406-.03027.17676-.05957.38281-.05957.60352v3.79883h-1.28125v-4.90332Z"/><path d="m161.11914,170.57752l1.39844,4.00488c.23535.64844.42676,1.2373.57422,1.82617h.04395c.16211-.58887.36816-1.17773.60449-1.82617l1.38281-4.00488h1.35547l-2.79785,7.12695h-1.2373l-2.70898-7.12695h1.38477Z"/><path d="m169.14453,168.57556c.01367.44141-.31055.79492-.8252.79492-.45605,0-.78027-.35352-.78027-.79492,0-.45703.33789-.81055.80957-.81055.48535,0,.7959.35352.7959.81055Zm-1.44336,9.12891v-7.12695h1.29492v7.12695h-1.29492Z"/><path d="m176.22656,177.43982c-.33789.17676-1.08984.41211-2.04688.41211-2.14941,0-3.54883-1.45801-3.54883-3.6377,0-2.19336,1.50195-3.78418,3.8291-3.78418.76562,0,1.44238.19141,1.7959.36816l-.29395,1.00195c-.30957-.17676-.7959-.33887-1.50195-.33887-1.63477,0-2.51855,1.20703-2.51855,2.69434,0,1.64941,1.06055,2.66504,2.47461,2.66504.73633,0,1.22168-.19141,1.58984-.35352l.2207.97266Z"/><path d="m178.37695,174.37635c.0293,1.75293,1.14844,2.47363,2.44434,2.47363.92773,0,1.4873-.16113,1.97363-.36719l.2207.92676c-.45703.20703-1.2373.44238-2.37109.44238-2.19336,0-3.50391-1.44336-3.50391-3.59277,0-2.15039,1.26562-3.84375,3.3418-3.84375,2.32617,0,2.94531,2.04688,2.94531,3.35742,0,.26562-.0293.47168-.04492.60352h-5.00586Zm3.79883-.92773c.01562-.82422-.33789-2.10547-1.79688-2.10547-1.31055,0-1.88477,1.20801-1.9873,2.10547h3.78418Z"/><path d="m189.47949,167.77967v9.9248h-1.28027v-9.9248h1.28027Z"/><path d="m191.82031,172.50623c0-.73535-.01367-1.33984-.05859-1.92871h1.14844l.07422,1.17773h.0293c.35352-.67676,1.17773-1.33984,2.35547-1.33984.9873,0,2.51855.58887,2.51855,3.0332v4.25586h-1.2959v-4.1084c0-1.14844-.42676-2.10547-1.64844-2.10547-.85547,0-1.51758.60352-1.73828,1.3252-.05859.16211-.08789.38281-.08789.60352v4.28516h-1.29688v-5.19824Z"/><path d="m201.49609,168.53064v2.04688h1.85547v.98633h-1.85547v3.84375c0,.88379.25,1.38379.97168,1.38379.33887,0,.58887-.04395.75098-.08789l.05859.97168c-.25.10254-.64746.17676-1.14844.17676-.60352,0-1.08984-.19141-1.39844-.54492-.36816-.38281-.5-1.01562-.5-1.85547v-3.8877h-1.10547v-.98633h1.10547v-1.70801l1.26562-.33887Z"/><path d="m205.44238,174.37635c.0293,1.75293,1.14844,2.47363,2.44434,2.47363.92773,0,1.4873-.16113,1.97266-.36719l.2207.92676c-.45605.20703-1.23633.44238-2.37012.44238-2.19434,0-3.50488-1.44336-3.50488-3.59277,0-2.15039,1.2666-3.84375,3.34277-3.84375,2.32715,0,2.94531,2.04688,2.94531,3.35742,0,.26562-.03027.47168-.04395.60352h-5.00684Zm3.79883-.92773c.01465-.82422-.33887-2.10547-1.7959-2.10547-1.31055,0-1.88477,1.20801-1.98828,2.10547h3.78418Z"/><path d="m212.09766,172.80115c0-.83887-.01367-1.56055-.05859-2.22363h1.13477l.04297,1.39941h.05957c.32324-.95703,1.10449-1.56152,1.97363-1.56152.14648,0,.25.01465.36719.04492v1.22168c-.13281-.0293-.26465-.04395-.44141-.04395-.91309,0-1.56055.69141-1.7373,1.66406-.03027.17676-.05957.38281-.05957.60352v3.79883h-1.28125v-4.90332Z"/><path d="m217.48828,177.70447v-6.14062h-1.00195v-.98633h1.00195v-.33887c0-1.00098.2207-1.91406.82422-2.48828.48633-.4707,1.13379-.66211,1.7373-.66211.45605,0,.85449.10254,1.10449.20605l-.17676,1.00098c-.19141-.08789-.45605-.16211-.8252-.16211-1.10352,0-1.38379.97168-1.38379,2.06152v.38281h1.72363v.98633h-1.72363v6.14062h-1.28027Z"/><path d="m225.60156,177.70447l-.10352-.89844h-.04395c-.39746.55957-1.16309,1.06055-2.17871,1.06055-1.44336,0-2.17969-1.0166-2.17969-2.04688,0-1.72266,1.53125-2.66504,4.28516-2.65039v-.14746c0-.58887-.16211-1.64941-1.62012-1.64941-.66309,0-1.35449.20605-1.85547.53027l-.29395-.85352c.58789-.38281,1.44238-.63379,2.34082-.63379,2.17871,0,2.70996,1.4873,2.70996,2.91602v2.66504c0,.61816.0293,1.22168.11719,1.70801h-1.17773Zm-.19141-3.63672c-1.41406-.0293-3.01953.2207-3.01953,1.60449,0,.83984.56055,1.2373,1.22266,1.2373.92773,0,1.5166-.58887,1.72266-1.19336.04492-.13184.07422-.2793.07422-.41211v-1.23633Z"/><path d="m233.83203,177.43982c-.33789.17676-1.08887.41211-2.0459.41211-2.14941,0-3.54883-1.45801-3.54883-3.6377,0-2.19336,1.50195-3.78418,3.8291-3.78418.76562,0,1.44238.19141,1.7959.36816l-.29492,1.00195c-.30957-.17676-.79492-.33887-1.50098-.33887-1.63477,0-2.51855,1.20703-2.51855,2.69434,0,1.64941,1.05957,2.66504,2.47363,2.66504.73633,0,1.22266-.19141,1.58984-.35352l.2207.97266Z"/><path d="m235.9834,174.37635c.0293,1.75293,1.14844,2.47363,2.44434,2.47363.92773,0,1.4873-.16113,1.97266-.36719l.2207.92676c-.45605.20703-1.23633.44238-2.37012.44238-2.19434,0-3.50488-1.44336-3.50488-3.59277,0-2.15039,1.2666-3.84375,3.34277-3.84375,2.32715,0,2.94531,2.04688,2.94531,3.35742,0,.26562-.03027.47168-.04395.60352h-5.00684Zm3.79883-.92773c.01465-.82422-.33887-2.10547-1.7959-2.10547-1.31055,0-1.88477,1.20801-1.98828,2.10547h3.78418Z"/><rect x="52.08532" y="536.51786" width="424.55745" height="43.12291" style="fill:none; stroke:#231f20; stroke-miterlimit:10; stroke-width:1.20476px;"/><line x1="78.61296" y1="536.51786" x2="78.61296" y2="579.64077" style="fill:none; stroke:#231f20; stroke-miterlimit:10; stroke-width:1.20476px;"/><line x1="103.41057" y1="536.51786" x2="103.41057" y2="579.64077" style="fill:none; stroke:#231f20; stroke-miterlimit:10; stroke-width:1.20476px;"/><line x1="128.20819" y1="536.51786" x2="128.20819" y2="579.64077" style="fill:none; stroke:#231f20; stroke-miterlimit:10; stroke-width:1.20476px;"/><line x1="153.00581" y1="536.51786" x2="153.00581" y2="579.64077" style="fill:none; stroke:#231f20; stroke-miterlimit:10; stroke-width:1.20476px;"/><line x1="177.80343" y1="536.51786" x2="177.80343" y2="579.64077" style="fill:none; stroke:#231f20; stroke-miterlimit:10; stroke-width:1.20476px;"/><line x1="202.60105" y1="536.51786" x2="202.60105" y2="579.64077" style="fill:none; stroke:#231f20; stroke-miterlimit:10; stroke-width:1.20476px;"/><line x1="227.39867" y1="536.51786" x2="227.39867" y2="579.64077" style="fill:none; stroke:#231f20; stroke-miterlimit:10; stroke-width:1.20476px;"/><line x1="252.19629" y1="536.51786" x2="252.19629" y2="579.64077" style="fill:none; stroke:#231f20; stroke-miterlimit:10; stroke-width:1.20476px;"/><line x1="276.99391" y1="536.51786" x2="276.99391" y2="579.64077" style="fill:none; stroke:#231f20; stroke-miterlimit:10; stroke-width:1.20476px;"/><line x1="301.79153" y1="536.51786" x2="301.79153" y2="579.64077" style="fill:none; stroke:#231f20; stroke-miterlimit:10; stroke-width:1.20476px;"/><line x1="326.58915" y1="536.51786" x2="326.58915" y2="579.64077" style="fill:none; stroke:#231f20; stroke-miterlimit:10; stroke-width:1.20476px;"/><line x1="351.38677" y1="536.51786" x2="351.38677" y2="579.64077" style="fill:none; stroke:#231f20; stroke-miterlimit:10; stroke-width:1.20476px;"/><line x1="376.18439" y1="536.51786" x2="376.18439" y2="579.64077" style="fill:none; stroke:#231f20; stroke-miterlimit:10; stroke-width:1.20476px;"/><line x1="400.98201" y1="536.51786" x2="400.98201" y2="579.64077" style="fill:none; stroke:#231f20; stroke-miterlimit:10; stroke-width:1.20476px;"/><line x1="425.77963" y1="536.51786" x2="425.77963" y2="579.64077" style="fill:none; stroke:#231f20; stroke-miterlimit:10; stroke-width:1.20476px;"/><line x1="450.57724" y1="536.51786" x2="450.57724" y2="579.64077" style="fill:none; stroke:#231f20; stroke-miterlimit:10; stroke-width:1.20476px;"/><ellipse cx="59.7841" cy="550.32046" rx="1.47055" ry="1.38843" style="fill:#231f20;"/><ellipse cx="67.22339" cy="564.3681" rx="1.47055" ry="1.38843" style="fill:#231f20;"/><ellipse cx="92.02101" cy="557.34428" rx="1.47055" ry="1.38843" style="fill:#231f20;"/><ellipse cx="115.57875" cy="545.63791" rx="1.47055" ry="1.38843" style="fill:#231f20;"/><ellipse cx="110.61922" cy="556.17364" rx="1.47055" ry="1.38843" style="fill:#231f20;"/><ellipse cx="121.77815" cy="560.85619" rx="1.47055" ry="1.38843" style="fill:#231f20;"/><ellipse cx="118.05851" cy="562.02683" rx="1.47055" ry="1.38843" style="fill:#231f20;"/><ellipse cx="142.85613" cy="562.02683" rx="1.47055" ry="1.38843" style="fill:#231f20;"/><ellipse cx="167.65375" cy="550.32046" rx="1.47055" ry="1.38843" style="fill:#231f20;"/><ellipse cx="181.29244" cy="562.02683" rx="1.47055" ry="1.38843" style="fill:#231f20;"/><ellipse cx="218.48887" cy="562.02683" rx="1.47055" ry="1.38843" style="fill:#231f20;"/><ellipse cx="193.69125" cy="569.05065" rx="1.47055" ry="1.38843" style="fill:#231f20;"/><ellipse cx="168.89363" cy="569.05065" rx="1.47055" ry="1.38843" style="fill:#231f20;"/><ellipse cx="243.28649" cy="569.05065" rx="1.47055" ry="1.38843" style="fill:#231f20;"/><ellipse cx="230.88768" cy="545.63791" rx="1.47055" ry="1.38843" style="fill:#231f20;"/><ellipse cx="256.92518" cy="551.4911" rx="1.47055" ry="1.38843" style="fill:#231f20;"/><ellipse cx="244.52637" cy="551.4911" rx="1.47055" ry="1.38843" style="fill:#231f20;"/><ellipse cx="281.7228" cy="551.4911" rx="1.47055" ry="1.38843" style="fill:#231f20;"/><ellipse cx="290.40196" cy="551.4911" rx="1.47055" ry="1.38843" style="fill:#231f20;"/><ellipse cx="294.12161" cy="551.4911" rx="1.47055" ry="1.38843" style="fill:#231f20;"/><ellipse cx="292.88172" cy="556.17364" rx="1.47055" ry="1.38843" style="fill:#231f20;"/><ellipse cx="305.28053" cy="556.17364" rx="1.47055" ry="1.38843" style="fill:#231f20;"/><ellipse cx="335.26833" cy="558.9505" rx="1.47055" ry="1.38843" style="fill:#231f20;"/><ellipse cx="367.27458" cy="563.41526" rx="1.47055" ry="1.38843" style="fill:#231f20;"/><ellipse cx="359.8353" cy="562.24462" rx="1.47055" ry="1.38843" style="fill:#231f20;"/><ellipse cx="363.55494" cy="573.95099" rx="1.47055" ry="1.38843" style="fill:#231f20;"/><ellipse cx="457.78589" cy="573.95099" rx="1.47055" ry="1.38843" style="fill:#231f20;"/><ellipse cx="457.78589" cy="569.26844" rx="1.47055" ry="1.38843" style="fill:#231f20;"/><ellipse cx="466.46506" cy="557.56207" rx="1.47055" ry="1.38843" style="fill:#231f20;"/><ellipse cx="462.74542" cy="551.70889" rx="1.47055" ry="1.38843" style="fill:#231f20;"/><ellipse cx="392.0722" cy="547.02634" rx="1.47055" ry="1.38843" style="fill:#231f20;"/><ellipse cx="411.59241" cy="567.66222" rx="1.47055" ry="1.38843" style="fill:#231f20;"/><ellipse cx="429.26863" cy="556.17364" rx="1.47055" ry="1.38843" style="fill:#231f20;"/><path d="m62.47266,522.47596c-.09863-.24512-.24023-.44238-.4248-.59277-.18457-.14941-.41016-.25488-.67676-.31543-.26562-.05957-.55762-.08984-.875-.08984-.22266,0-.45898.02832-.70801.08398s-.47949.14355-.68848.26367c-.21094.12012-.38477.27441-.52148.46387-.13867.18848-.20703.41992-.20703.69531,0,.22266.03906.41406.11621.57227.07715.15918.18262.29688.31543.41211.13281.11621.29199.21289.47656.29004s.37988.14648.58594.20605l1.23633.33496c.2832.07715.55762.17383.82422.29004.26562.11523.50195.26562.70801.4502s.37109.41895.49512.70215c.125.2832.1875.63086.1875,1.04297,0,.48047-.10938.89453-.32812,1.24219s-.5.63574-.84375.86328-.72754.39648-1.15234.50879c-.42578.11133-.84375.16699-1.25586.16699-.54883,0-1.05566-.0625-1.51953-.18652-.46289-.125-.85645-.31543-1.17773-.57324-.32227-.25781-.56641-.58984-.73438-.99805-.16797-.40723-.23047-.89453-.18652-1.46191h1.22363c-.01758.41211.0293.75977.14062,1.04395.11133.2832.27734.51074.49609.68164.21875.17188.48242.29492.79199.36719.30957.07324.64746.10938,1.01758.10938.2832,0,.56348-.03418.84277-.10254s.52637-.17383.74023-.31543c.21484-.1416.38867-.32422.52148-.54785.13379-.22266.2002-.48926.2002-.79785,0-.23242-.04297-.43164-.12793-.59863-.08594-.16797-.20508-.30957-.35547-.42578-.15039-.11523-.32422-.21191-.52148-.28906s-.40723-.14648-.63086-.20605l-1.24805-.33496c-.27539-.07715-.53711-.17773-.78613-.30273-.24902-.12402-.46777-.27832-.65723-.46387-.18848-.18457-.33887-.40332-.4502-.65625-.1123-.25293-.16699-.55176-.16699-.89453,0-.44629.09766-.83496.2959-1.16602.19727-.33008.45215-.60742.7666-.83008.3125-.22363.66895-.39062,1.06836-.50293.39844-.11133.80469-.16699,1.2168-.16699.45508,0,.88672.05762,1.29395.17383s.7666.29199,1.0752.52832c.30957.23633.55176.53809.72852.90723.17578.36914.25488.81152.2373,1.32617h-1.22363c.00879-.36035-.03613-.66309-.13477-.90723Z" style="fill:#231f20;"/><path d="m66.61328,523.20349l-.23242.95312h.02539c.32617-.42969.66406-.72168,1.01172-.87598s.74414-.23145,1.19043-.23145c.42871,0,.80566.06641,1.12695.19922s.59473.32031.81738.56055c.22363.24023.39062.52734.50195.8623s.16797.7041.16797,1.10742c0,.50684-.08398,1.01074-.25098,1.5127-.16699.50293-.4082.95508-.72168,1.35938-.3125.40332-.69922.72949-1.1582.97852s-.98047.37305-1.56445.37305c-.19824,0-.40625-.01758-.625-.05176s-.4248-.09668-.61816-.18652c-.19238-.08984-.36426-.20996-.51465-.36035s-.25586-.33691-.31641-.56055h-.02539l-.70801,3.55469h-1.06934l1.93164-9.19434h1.03125Zm3.10938,1.28711c-.27051-.31738-.70703-.47559-1.30664-.47559-.41211,0-.78125.10742-1.10742.32129-.32715.21484-.59961.48535-.81836.81152s-.38672.68262-.50195,1.06836c-.11621.38672-.17383.75586-.17383,1.10742,0,.49805.14355.91016.43164,1.23633.28711.32617.70117.48926,1.24219.48926.4375,0,.82031-.10059,1.14648-.30273.32617-.20117.60059-.46094.82422-.77832.22266-.31738.39062-.66992.50195-1.05664.11133-.38574.16699-.76367.16699-1.13281,0-.54102-.13574-.96973-.40527-1.28809Z" style="fill:#231f20;"/><path d="m73.12793,527.43982c0,.25781.04785.4873.1416.68848.09473.20215.22266.37012.38672.50293.16211.13281.34766.23633.55371.30859.20605.07324.4209.10938.64355.10938.48926,0,.89258-.10938,1.21094-.32812.31641-.21875.55273-.53418.70801-.94629h1.09473c-.08594.36914-.22363.69336-.41211.97168-.18945.2793-.41699.51172-.68262.69531-.2666.18555-.5625.32422-.88867.41895s-.66895.1416-1.03027.1416c-.54883,0-1.00586-.08398-1.37109-.25098-.36523-.16797-.6543-.38184-.86914-.64355s-.36523-.5498-.45117-.86328-.12891-.61621-.12891-.90723c0-.63574.0918-1.21777.27734-1.74512.18457-.52832.43359-.98047.74609-1.3584.31445-.37793.67871-.66992,1.0957-.87598.41602-.20605.85156-.30859,1.30664-.30859.97852,0,1.69336.25684,2.14453.77246.4502.51465.67578,1.24023.67578,2.17578,0,.17188-.01367.33496-.03906.48926s-.04688.2793-.06445.37402h-5.00977c-.02539.18848-.03809.38184-.03809.5791Zm4.01074-2.23438c-.04688-.22754-.13281-.42871-.25684-.60547-.12402-.17578-.29004-.31738-.49609-.4248-.20605-.10645-.45898-.16016-.75879-.16016-.31836,0-.60352.04883-.85742.14746-.25293.09863-.47461.23438-.66211.40625-.18945.1709-.34766.37109-.47656.59863s-.23242.46973-.30957.72754h3.86328c.0166-.23242.00195-.46191-.0459-.68945Z" style="fill:#231f20;"/><path d="m83.80273,524.35584c-.24902-.22754-.5918-.34082-1.03027-.34082-.4209,0-.79199.09375-1.11426.2832-.32129.18848-.5918.43359-.81055.7334-.21875.30078-.38477.6377-.49609,1.01074-.11133.37402-.16797.74121-.16797,1.10156,0,.25684.02832.50195.08398.7334.05664.23242.14844.43359.27734.60547s.29883.30957.50879.41211c.20996.10352.46973.1543.77832.1543.47266,0,.87598-.12402,1.21094-.37305s.58008-.5791.73438-.99121h1.09375c-.19727.75488-.55762,1.33008-1.08105,1.72461-.52441.39551-1.17676.59277-1.95801.59277-.91016,0-1.59375-.24902-2.05273-.74707-.45996-.49707-.68945-1.20117-.68945-2.11133,0-.53223.0791-1.04297.23828-1.53223.1582-.48926.39453-.92578.70801-1.30762s.7002-.68652,1.15918-.91406.98438-.34082,1.57715-.34082c.75488,0,1.35449.18164,1.7959.54688.44238.36523.67676.93848.70215,1.71875h-1.09473c0-.41211-.12402-.73145-.37305-.95898Z" style="fill:#231f20;"/><path d="m97.68359,520.66639l-.20605,1.03027h-5.1123l-.61816,2.92285h4.76465l-.20605,1.03027h-4.77734l-.66895,3.18066h5.17578l-.23145,1.03027h-6.39941l1.94336-9.19434h6.33594Z" style="fill:#231f20;"/><path d="m98.6748,529.86072l-.95215-6.65723h1.1582l.56641,5.53711h.02539l2.88477-5.53711h1.18555l-3.69629,6.65723h-1.17188Z" style="fill:#231f20;"/><path d="m104.59766,527.43982c0,.25781.04785.4873.14258.68848.09375.20215.22266.37012.38672.50293.16211.13281.34766.23633.55273.30859.20703.07324.4209.10938.64453.10938.48828,0,.89258-.10938,1.20996-.32812s.55371-.53418.70801-.94629h1.09473c-.08594.36914-.22363.69336-.41211.97168-.18848.2793-.41699.51172-.68262.69531-.26562.18555-.5625.32422-.88867.41895s-.66895.1416-1.0293.1416c-.5498,0-1.00684-.08398-1.37109-.25098-.36523-.16797-.65527-.38184-.87012-.64355-.21387-.26172-.36426-.5498-.4502-.86328s-.12891-.61621-.12891-.90723c0-.63574.0918-1.21777.27734-1.74512.18359-.52832.43262-.98047.74609-1.3584s.67773-.66992,1.09473-.87598c.41602-.20605.85254-.30859,1.30762-.30859.97852,0,1.69336.25684,2.14355.77246.4502.51465.67578,1.24023.67578,2.17578,0,.17188-.0127.33496-.03809.48926-.02637.1543-.04785.2793-.06445.37402h-5.00977c-.02539.18848-.03906.38184-.03906.5791Zm4.01172-2.23438c-.04688-.22754-.13281-.42871-.25781-.60547-.12402-.17578-.28906-.31738-.49609-.4248-.20508-.10645-.45898-.16016-.75879-.16016-.31738,0-.60352.04883-.85645.14746-.25391.09863-.47461.23438-.66309.40625-.18848.1709-.34766.37109-.47656.59863s-.23145.46973-.30957.72754h3.86328c.01758-.23242.00195-.46191-.04492-.68945Z" style="fill:#231f20;"/><path d="m112.68457,523.20349l-.20605,1.00391h.02539c.27539-.38574.62305-.67578,1.04297-.86914.4209-.19336.86328-.28906,1.32617-.28906.62695,0,1.09375.13672,1.39844.41211.30469.27441.45703.70801.45703,1.2998,0,.14648-.01758.33496-.05176.56738-.03418.23145-.08203.47559-.1416.7334l-.81152,3.79883h-1.09473l.84961-3.88867c.00879-.06836.02148-.14844.03906-.23828s.03418-.18457.05176-.2832c.0166-.09863.03223-.19336.04492-.2832.0127-.09082.01855-.16504.01855-.22559,0-.31738-.11133-.55176-.33398-.70215-.22363-.14941-.49805-.22461-.82422-.22461-.30078,0-.59863.07227-.89453.21875-.29688.14551-.54785.33008-.75391.55371-.19727.17188-.35156.37988-.46289.62402-.1123.24512-.20215.5-.27148.7666l-.77148,3.68262h-1.08203l1.39062-6.65723h1.05566Z" style="fill:#231f20;"/><path d="m121.62109,523.20349l-.20508.96582h-1.32715l-.82422,3.91406c-.00879.07715-.0166.15039-.02539.21875-.00879.06934-.0127.14258-.0127.21973,0,.17188.06641.28906.19922.35352s.28516.09668.45703.09668c.11133,0,.21875-.01074.32227-.03223s.20605-.04883.30859-.08398l-.19336,1.00488c-.12891.01758-.25684.03223-.38574.04492s-.25781.01953-.38574.01953c-.20703,0-.40039-.01562-.58008-.04492-.17969-.03027-.33691-.08594-.4707-.16797-.13281-.08105-.24023-.19043-.32129-.32812-.08105-.13672-.12207-.31348-.12207-.52832,0-.09375.00586-.18359.01953-.26953.01172-.08594.02734-.18066.04492-.28418l.875-4.13281h-1.12012l.20605-.96582h1.12109l.41211-1.9707h1.09375l-.41211,1.9707h1.32617Z" style="fill:#231f20;"/><path d="m130.71289,520.66639c.88281,0,1.55957.21094,2.02734.63086.46777.4209.70215,1.05664.70215,1.90625,0,.2832-.05566.59473-.16699.93359-.1123.33887-.30273.6543-.57422.94629-.26953.29199-.63086.53418-1.08105.72754s-1.01465.29004-1.69336.29004h-2.72949l-.79883,3.75977h-1.22266l1.91797-9.19434h3.61914Zm-.5293,4.4043c.66992,0,1.17676-.17383,1.51953-.52148.34375-.34766.51562-.79688.51562-1.3457,0-.2832-.04102-.52148-.12207-.71484-.08203-.19336-.19141-.34766-.3291-.46387-.13672-.11523-.29492-.19922-.47656-.25098-.17969-.05176-.37305-.07715-.57812-.07715h-2.58887l-.70801,3.37402h2.76758Z" style="fill:#231f20;"/><path d="m136.39062,520.66639l-1.93164,9.19434h-1.08105l1.91895-9.19434h1.09375Z" style="fill:#231f20;"/><path d="m137.31152,524.25232c.17578-.26953.39258-.49512.64941-.67578.25781-.17969.5498-.31348.87695-.39941.32617-.08496.66406-.12793,1.0166-.12793.32617,0,.63574.02539.92676.07715.29199.05078.5498.1416.77344.27051.22266.12793.40039.30176.53418.52148.13281.21875.19922.49512.19922.83008,0,.18945-.02344.39258-.07129.61133-.04688.21973-.0918.41895-.13477.59961l-.4248,1.81543c-.02637.1377-.0625.29199-.10938.46387-.04785.17188-.07129.33398-.07129.48926,0,.1543.03027.26172.09082.32129.05957.06055.1377.09082.23145.09082.05176,0,.10938-.01074.17383-.03223s.12305-.04102.17383-.05859l-.16797.81152c-.08496.03418-.19531.06641-.32812.09668s-.24609.04492-.34082.04492c-.2998,0-.52832-.08203-.68262-.24414-.1543-.16309-.21484-.39062-.17969-.68262l-.02637-.02637c-.23145.30957-.51953.5459-.8623.70898-.34375.16211-.79883.24414-1.36523.24414-.2832,0-.54688-.03223-.79199-.09668s-.45703-.17188-.6377-.32227c-.17969-.14941-.32422-.34277-.43164-.5791-.10645-.23633-.16016-.52539-.16016-.86914,0-.48926.10547-.87109.31543-1.14551.20996-.27539.47852-.4834.80469-.625s.68652-.23828,1.08105-.29004c.39551-.05078.77734-.09375,1.14648-.12891.29199-.02539.54297-.05273.75391-.08301.20996-.03027.38379-.0791.52148-.14844.13672-.06836.23828-.16699.30273-.2959s.0957-.30469.0957-.52832c0-.17969-.04297-.32617-.12891-.4375s-.19336-.2002-.32129-.26367c-.12891-.06445-.27246-.11035-.43164-.13574s-.31152-.03809-.45703-.03809c-.20605,0-.41016.02148-.6123.06348-.20117.04395-.38379.11426-.54688.21289s-.30078.22363-.41211.37305c-.11133.15039-.18457.33301-.21875.54785h-1.09375c.05078-.36914.16406-.68945.34082-.95996Zm.30957,4.56543c.24414.1543.52148.23145.83008.23145.86719,0,1.48926-.29102,1.86719-.875.17969-.24902.30273-.51953.36719-.81152s.13477-.59277.21191-.90137h-.02637c-.1543.11133-.34961.19141-.58496.23828-.23633.04688-.4873.08398-.75293.10938-.2666.02539-.53516.05762-.80469.09668-.27148.03809-.51367.10059-.72852.18652s-.39062.20801-.52734.36719c-.1377.15918-.21094.37988-.21875.66309,0,.30859.12109.54102.36719.69531Z" style="fill:#231f20;"/><path d="m145.36523,523.20349l-.20508,1.00391h.02539c.27441-.38574.62305-.67578,1.04297-.86914s.86328-.28906,1.32617-.28906c.62695,0,1.09277.13672,1.39746.41211.30469.27441.45703.70801.45703,1.2998,0,.14648-.0166.33496-.05176.56738-.03418.23145-.08203.47559-.1416.7334l-.81152,3.79883h-1.09375l.84961-3.88867c.00781-.06836.02148-.14844.03906-.23828.0166-.08984.0332-.18457.05078-.2832s.03223-.19336.04492-.2832c.01367-.09082.01953-.16504.01953-.22559,0-.31738-.11133-.55176-.33398-.70215-.22461-.14941-.49805-.22461-.82422-.22461-.30078,0-.59961.07227-.89551.21875-.2959.14551-.54785.33008-.75293.55371-.19727.17188-.35254.37988-.46387.62402-.1123.24512-.20215.5-.27051.7666l-.77246,3.68262h-1.08105l1.39062-6.65723h1.05469Z" style="fill:#231f20;"/><path d="m151.35352,527.43982c0,.25781.04688.4873.1416.68848.09473.20215.22363.37012.38672.50293s.34766.23633.55371.30859c.20605.07324.41992.10938.64355.10938.48926,0,.89355-.10938,1.20996-.32812.31836-.21875.55469-.53418.70898-.94629h1.09375c-.08594.36914-.22266.69336-.41211.97168-.18848.2793-.41602.51172-.68164.69531-.2666.18555-.5625.32422-.88867.41895s-.66992.1416-1.03027.1416c-.5498,0-1.00684-.08398-1.37109-.25098-.36523-.16797-.65527-.38184-.87012-.64355-.21387-.26172-.36426-.5498-.4502-.86328s-.12793-.61621-.12793-.90723c0-.63574.0918-1.21777.27637-1.74512.18457-.52832.43262-.98047.74707-1.3584.3125-.37793.67773-.66992,1.09375-.87598s.85254-.30859,1.30762-.30859c.97852,0,1.69336.25684,2.14355.77246.45117.51465.67578,1.24023.67578,2.17578,0,.17188-.01172.33496-.03809.48926s-.04785.2793-.06445.37402h-5.00879c-.02539.18848-.03906.38184-.03906.5791Zm4.01172-2.23438c-.04785-.22754-.13379-.42871-.25781-.60547-.125-.17578-.29004-.31738-.49609-.4248-.20508-.10645-.45898-.16016-.75977-.16016-.31738,0-.60352.04883-.85547.14746-.25391.09863-.47461.23438-.66406.40625-.18848.1709-.34766.37109-.47656.59863s-.23145.46973-.30859.72754h3.86328c.01758-.23242.00195-.46191-.04492-.68945Z" style="fill:#231f20;"/><path d="m467.68652,510.93592c-.09863-.24512-.24023-.44238-.4248-.59277-.18457-.14941-.41016-.25488-.67578-.31543-.2666-.05957-.55859-.08984-.87598-.08984-.22363,0-.45996.02832-.70801.08398-.25.05566-.47852.14355-.68945.26367-.20996.12012-.38379.27441-.52148.46387-.13672.18848-.20508.41992-.20508.69531,0,.22266.03809.41406.11523.57227.07715.15918.18164.29688.31543.41211.13379.11621.29199.21289.47656.29004s.37988.14648.58594.20605l1.23633.33496c.2832.07715.55762.17383.82324.29004.2666.11523.50293.26562.70898.4502s.37109.41895.49609.70215c.12402.2832.18652.63086.18652,1.04297,0,.48047-.11035.89453-.3291,1.24219s-.5.63574-.84277.86328c-.34375.22754-.72754.39648-1.15332.50879-.42383.11133-.84277.16699-1.25488.16699-.5498,0-1.05566-.0625-1.51953-.18652-.46387-.125-.85645-.31543-1.17871-.57324-.32129-.25781-.56641-.58984-.7334-.99805-.16699-.40723-.22949-.89453-.18652-1.46191h1.22266c-.01758.41211.03027.75977.14258,1.04395.11133.2832.27637.51074.49512.68164.21973.17188.4834.29492.79199.36719.30859.07324.64844.10938,1.01758.10938.2832,0,.56445-.03418.84375-.10254.27832-.06836.52539-.17383.74023-.31543s.38867-.32422.52148-.54785c.13281-.22266.19922-.48926.19922-.79785,0-.23242-.04297-.43164-.12891-.59863-.08594-.16797-.20312-.30957-.35352-.42578-.15039-.11523-.32422-.21191-.52148-.28906s-.4082-.14648-.63086-.20605l-1.25-.33496c-.27441-.07715-.53613-.17773-.78516-.30273-.24902-.12402-.46777-.27832-.65625-.46387-.18945-.18457-.33984-.40332-.45117-.65625s-.16797-.55176-.16797-.89453c0-.44629.09961-.83496.29688-1.16602.19727-.33008.45312-.60742.76562-.83008.31445-.22363.66992-.39062,1.06934-.50293.39941-.11133.80469-.16699,1.2168-.16699.45508,0,.88574.05762,1.29395.17383s.7666.29199,1.07617.52832c.30859.23633.55078.53809.72656.90723s.25586.81152.23828,1.32617h-1.22266c.00781-.36035-.03711-.66309-.13574-.90723Z" style="fill:#231f20;"/><path d="m471.82617,511.66346l-.23145.95312h.02637c.32617-.42969.66211-.72168,1.00977-.87598s.74512-.23145,1.19141-.23145c.42969,0,.80469.06641,1.12695.19922s.59375.32031.81836.56055c.22266.24023.38965.52734.50195.8623.11133.33496.16699.7041.16699,1.10742,0,.50684-.08301,1.01074-.25098,1.5127-.16797.50293-.4082.95508-.7207,1.35938-.31445.40332-.7002.72949-1.16016.97852-.45898.24902-.98047.37305-1.56445.37305-.19727,0-.40527-.01758-.62402-.05176s-.4248-.09668-.61816-.18652-.36523-.20996-.51562-.36035c-.14941-.15039-.25488-.33691-.31445-.56055h-.02637l-.70801,3.55469h-1.06836l1.93164-9.19434h1.0293Zm3.11035,1.28711c-.27051-.31738-.70605-.47559-1.30762-.47559-.41211,0-.78125.10742-1.10742.32129-.32617.21484-.59766.48535-.81738.81152-.21875.32617-.38574.68262-.50195,1.06836-.11621.38672-.17383.75586-.17383,1.10742,0,.49805.14355.91016.43066,1.23633.28809.32617.70215.48926,1.24316.48926.43848,0,.81934-.10059,1.14551-.30273.32617-.20117.60156-.46094.82422-.77832.22363-.31738.39062-.66992.50195-1.05664.1123-.38574.16797-.76367.16797-1.13281,0-.54102-.13477-.96973-.40527-1.28809Z" style="fill:#231f20;"/><path d="m478.3418,515.89978c0,.25781.04688.4873.1416.68848.09473.20215.22363.37012.38672.50293s.34766.23633.55371.30859c.20605.07324.41992.10938.64355.10938.48926,0,.89355-.10938,1.20996-.32812.31836-.21875.55469-.53418.70898-.94629h1.09375c-.08594.36914-.22266.69336-.41211.97168-.18848.2793-.41602.51172-.68164.69531-.2666.18555-.5625.32422-.88867.41895s-.66992.1416-1.03027.1416c-.5498,0-1.00684-.08398-1.37109-.25098-.36523-.16797-.65527-.38184-.87012-.64355-.21387-.26172-.36426-.5498-.4502-.86328s-.12793-.61621-.12793-.90723c0-.63574.0918-1.21777.27637-1.74512.18457-.52832.43262-.98047.74707-1.3584.3125-.37793.67773-.66992,1.09375-.87598s.85254-.30859,1.30762-.30859c.97852,0,1.69336.25684,2.14355.77246.45117.51465.67578,1.24023.67578,2.17578,0,.17188-.01172.33496-.03809.48926s-.04785.2793-.06445.37402h-5.00879c-.02539.18848-.03906.38184-.03906.5791Zm4.01172-2.23438c-.04785-.22754-.13379-.42871-.25781-.60547-.125-.17578-.29004-.31738-.49609-.4248-.20508-.10645-.45898-.16016-.75977-.16016-.31738,0-.60352.04883-.85547.14746-.25391.09863-.47461.23438-.66406.40625-.18848.1709-.34766.37109-.47656.59863s-.23145.46973-.30859.72754h3.86328c.01758-.23242.00195-.46191-.04492-.68945Z" style="fill:#231f20;"/><path d="m489.0166,512.8158c-.24902-.22754-.59277-.34082-1.03027-.34082-.41992,0-.79199.09375-1.11328.2832-.32227.18848-.59277.43359-.81152.7334-.21973.30078-.38379.6377-.49609,1.01074-.11133.37402-.16699.74121-.16699,1.10156,0,.25684.02734.50195.08398.7334.05469.23242.14746.43359.27637.60547s.29785.30957.50879.41211c.20996.10352.46973.1543.7793.1543.47168,0,.875-.12402,1.20996-.37305s.5791-.5791.7334-.99121h1.0957c-.19824.75488-.55859,1.33008-1.08203,1.72461-.52344.39551-1.17578.59277-1.95703.59277-.91016,0-1.5957-.24902-2.05469-.74707-.45898-.49707-.68848-1.20117-.68848-2.11133,0-.53223.0791-1.04297.23828-1.53223s.39453-.92578.70801-1.30762.69922-.68652,1.15918-.91406c.45898-.22754.98535-.34082,1.57715-.34082.75586,0,1.35352.18164,1.79688.54688.44141.36523.67578.93848.70117,1.71875h-1.09375c0-.41211-.125-.73145-.37402-.95898Z" style="fill:#231f20;"/><path d="m393.94206,546.5491c12.63619-13.10795,26.85964-26.37464,45.40741-29.82136,5.1789-.96239,10.50335-1.04008,15.68271-.04608.77167.1481,1.10221-1.03441.32623-1.18333-19.00538-3.64744-36.86836,6.45933-50.55915,18.71019-4.0767,3.64793-7.92961,7.53582-11.72494,11.47284-.54829.56876.31836,1.43763.86774.86774h0Z" style="fill:#231f20;"/><path d="m230.68457,45.3451c1.07324.5498,2.72363,1.10059,4.4248,1.10059,1.83398,0,2.80273-.75977,2.80273-1.91211,0-1.09961-.83789-1.72754-2.95898-2.4873-2.93359-1.02148-4.84375-2.64453-4.84375-5.21094,0-3.01074,2.51367-5.31543,6.67578-5.31543,1.99023,0,3.45703.41895,4.50391.89062l-.89062,3.2207c-.70703-.34082-1.96289-.83789-3.69141-.83789s-2.56641.78516-2.56641,1.70215c0,1.12598.99609,1.62305,3.27344,2.4873,3.11523,1.15234,4.58203,2.77539,4.58203,5.2627,0,2.95898-2.27734,5.47266-7.12207,5.47266-2.0166,0-4.00586-.52344-5.00098-1.07324l.81152-3.2998Z"/><path d="m247.80664,44.32459c.13086,1.64941,1.75391,2.43457,3.61328,2.43457,1.36133,0,2.46094-.18262,3.53516-.52344l.52344,2.69727c-1.30957.52344-2.90625.78516-4.63477.78516-4.34668,0-6.83398-2.51367-6.83398-6.51953,0-3.24707,2.01562-6.83398,6.4668-6.83398,4.1377,0,5.70898,3.2207,5.70898,6.38867,0,.68066-.0791,1.2832-.13086,1.57129h-8.24805Zm4.68652-2.72363c0-.96875-.41895-2.5918-2.25195-2.5918-1.67578,0-2.35645,1.51855-2.46094,2.5918h4.71289Z"/><path d="m258.56543,40.86756c0-1.88477-.05176-3.11523-.10449-4.21484h3.42969l.13086,2.35645h.10547c.6543-1.85938,2.22461-2.64453,3.45605-2.64453.36621,0,.5498,0,.83789.05176v3.74512c-.28809-.05273-.62793-.10547-1.07324-.10547-1.4668,0-2.46191.78613-2.72363,2.0166-.05176.26172-.0791.57617-.0791.89062v6.49316h-3.97949v-8.58887Z"/><path d="m271.94336,36.65271l1.72754,5.94336c.31445,1.07324.5498,2.09473.7334,3.11621h.07812c.20898-1.04785.41895-2.0166.70703-3.11621l1.65039-5.94336h4.18945l-4.76562,12.80371h-3.98047l-4.66016-12.80371h4.32031Z"/><path d="m286.96973,33.09119c0,1.09961-.83789,1.99023-2.14746,1.99023-1.25586,0-2.09375-.89062-2.06836-1.99023-.02539-1.15234.8125-2.01562,2.0957-2.01562,1.28223,0,2.09375.86328,2.12012,2.01562Zm-4.11035,16.36523v-12.80371h3.97949v12.80371h-3.97949Z"/><path d="m299.6416,49.14197c-.70703.31445-2.04199.57617-3.56152.57617-4.13672,0-6.78125-2.51367-6.78125-6.5459,0-3.74414,2.56641-6.80762,7.33203-6.80762,1.04688,0,2.19922.18262,3.03711.49707l-.62891,2.95898c-.4707-.20898-1.17773-.39258-2.22559-.39258-2.09473,0-3.45605,1.49219-3.43066,3.58691,0,2.35645,1.57227,3.58691,3.50977,3.58691.94141,0,1.67578-.15625,2.27734-.39258l.47168,2.93262Z"/><path d="m304.61426,44.32459c.13086,1.64941,1.75488,2.43457,3.61328,2.43457,1.3623,0,2.46191-.18262,3.53516-.52344l.52344,2.69727c-1.30957.52344-2.90625.78516-4.63379.78516-4.34766,0-6.83398-2.51367-6.83398-6.51953,0-3.24707,2.01562-6.83398,6.4668-6.83398,4.13672,0,5.70801,3.2207,5.70801,6.38867,0,.68066-.0791,1.2832-.13086,1.57129h-8.24805Zm4.68652-2.72363c0-.96875-.41797-2.5918-2.25195-2.5918-1.67578,0-2.35547,1.51855-2.46094,2.5918h4.71289Z"/><rect x="54.06932" y="65.70397" width="424.27416" height="424.27416" style="fill:none; stroke:#000; stroke-miterlimit:10; stroke-width:1.63622px;"/><rect x="445.81471" y="50.55708" width="61.7301" height="30.14726" rx="11.48467" ry="11.48467" style="fill:#c1c1c1;"/><path d="m465.5625,62.03162c-.03418.60254-.06836,1.27441-.06836,2.29102v4.84082c0,1.91211-.37891,3.08398-1.18945,3.80762-.80859.75781-1.98047.99902-3.03125.99902-1,0-2.10156-.24121-2.77344-.68945l.37891-1.1543c.55078.34473,1.41211.65527,2.44629.65527,1.5498,0,2.6875-.80957,2.6875-2.91211v-.92969h-.03418c-.46582.77539-1.36133,1.39551-2.65332,1.39551-2.06738,0-3.54883-1.75781-3.54883-4.06543,0-2.82617,1.84277-4.42773,3.75488-4.42773,1.44727,0,2.24023.75781,2.60156,1.44727h.03516l.06836-1.25781h1.32617Zm-1.56738,3.29004c0-.25781-.0166-.48242-.08594-.68848-.27637-.87891-1.0166-1.60254-2.11914-1.60254-1.44629,0-2.48047,1.22363-2.48047,3.15234,0,1.63672.82715,2.99805,2.46387,2.99805.92969,0,1.77344-.58594,2.10156-1.55078.08594-.25781.12012-.55078.12012-.80957v-1.49902Z"/><path d="m468.06055,58.91346c.75781-.15527,1.84375-.24121,2.87695-.24121,1.60254,0,2.63574.29297,3.35938.94727.58594.5166.91309,1.30957.91309,2.20508,0,1.5332-.96484,2.5498-2.18848,2.96289v.05176c.89648.31055,1.43066,1.1377,1.70605,2.34277.37891,1.62012.65527,2.73926.89551,3.1875h-1.5498c-.19043-.32715-.44824-1.32617-.77539-2.77344-.34473-1.60254-.96484-2.20508-2.3252-2.25684h-1.41309v5.03027h-1.49902v-11.45605Zm1.49902,5.28906h1.5332c1.60254,0,2.61816-.87891,2.61816-2.20508,0-1.49902-1.08496-2.15332-2.66992-2.1709-.72363,0-1.24023.06836-1.48145.1377v4.23828Z"/><path d="m477.32812,58.89588c.72461-.12012,1.67188-.22363,2.87695-.22363,1.48242,0,2.56738.34473,3.25684.96484.6377.55078,1.0166,1.39551,1.0166,2.42871,0,1.05078-.31055,1.87793-.89648,2.48047-.79199.84473-2.08398,1.27539-3.54883,1.27539-.44727,0-.86133-.01758-1.20508-.10352v4.65137h-1.5v-11.47363Zm1.5,5.59961c.32617.08594.74023.12012,1.24023.12012,1.80859,0,2.91113-.87891,2.91113-2.48047,0-1.5332-1.08496-2.27441-2.73926-2.27441-.6543,0-1.1543.05176-1.41211.12109v4.51367Z"/><path d="m494.60742,69.9906c-.55078.27539-1.6543.55078-3.06641.55078-3.27344,0-5.73633-2.06641-5.73633-5.87402,0-3.63477,2.46289-6.09863,6.06348-6.09863,1.44727,0,2.36035.31055,2.75684.5166l-.3623,1.22363c-.56836-.27539-1.37793-.48242-2.34277-.48242-2.72168,0-4.53125,1.74023-4.53125,4.78906,0,2.84277,1.63672,4.66895,4.46289,4.66895.91211,0,1.84277-.18945,2.44531-.48242l.31055,1.18848Z"/><rect x="23.00001" y="50.50762" width="61.7301" height="30.14726" rx="11.48467" ry="11.48467" style="fill:#c1c1c1;"/><path d="m37.11523,58.70838v4.8584h5.61523v-4.8584h1.51562v11.61133h-1.51562v-5.44336h-5.61523v5.44336h-1.5v-11.61133h1.5Z"/><path d="m49.05273,59.98377h-3.53125v-1.27539h8.5957v1.27539h-3.54883v10.33594h-1.51562v-10.33594Z"/><path d="m58.26855,59.98377h-3.53125v-1.27539h8.59668v1.27539h-3.54883v10.33594h-1.5166v-10.33594Z"/><path d="m64.625,58.84607c.72363-.12012,1.67188-.22363,2.87695-.22363,1.48242,0,2.56641.34473,3.25586.96484.6377.55078,1.0166,1.39551,1.0166,2.42871,0,1.05078-.30957,1.87793-.89551,2.48047-.79297.84473-2.08496,1.27539-3.54883,1.27539-.44824,0-.86133-.01758-1.20605-.10352v4.65137h-1.49902v-11.47363Zm1.49902,5.59961c.32715.08594.74121.12012,1.24023.12012,1.80957,0,2.91113-.87891,2.91113-2.48047,0-1.5332-1.08496-2.27441-2.73828-2.27441-.65527,0-1.1543.05176-1.41309.12109v4.51367Z"/><rect x="25.23007" y="477.54934" width="61.7301" height="30.14726" rx="11.48467" ry="11.48467" style="fill:#c1c1c1;"/><path d="m42.42285,491.91834h-4.51367v4.18555h5.03027v1.25781h-6.5293v-11.61133h6.27148v1.25781h-4.77246v3.66895h4.51367v1.24121Z"/><path d="m45.29883,489.02381l1.63672,4.68555c.27539.75781.5,1.44727.67188,2.13672h.05273c.18945-.68945.42969-1.37891.70508-2.13672l1.62012-4.68555h1.58496l-3.27344,8.33789h-1.44727l-3.16992-8.33789h1.61914Z"/><path d="m53.67188,493.46814c.03516,2.0498,1.34375,2.89453,2.85938,2.89453,1.08594,0,1.74023-.18945,2.30859-.43066l.25879,1.08496c-.53418.24121-1.44727.5166-2.77344.5166-2.56738,0-4.10059-1.6875-4.10059-4.20312,0-2.51465,1.48242-4.49609,3.91113-4.49609,2.72168,0,3.44531,2.39453,3.44531,3.92773,0,.30957-.03418.55078-.05176.70605h-5.85742Zm4.44531-1.08496c.0166-.96484-.39648-2.46387-2.10156-2.46387-1.5332,0-2.20508,1.41309-2.32617,2.46387h4.42773Z"/><path d="m61.45898,491.28064c0-.86133-.01758-1.56738-.07031-2.25684h1.34375l.08691,1.37793h.03418c.41406-.79199,1.37891-1.56738,2.75586-1.56738,1.1543,0,2.94629.68945,2.94629,3.54883v4.97852h-1.51562v-4.80664c0-1.34375-.5-2.46289-1.92969-2.46289-.99902,0-1.77441.70605-2.03223,1.5498-.06934.18945-.10352.44824-.10352.70703v5.0127h-1.51562v-6.08105Z"/><path d="m72.77637,486.62928v2.39453h2.1709v1.1543h-2.1709v4.49609c0,1.0332.29297,1.61914,1.1377,1.61914.39551,0,.68848-.05176.87793-.10352l.06934,1.1377c-.29297.12012-.75781.20605-1.34375.20605-.70703,0-1.27539-.22363-1.63672-.63672-.43066-.44824-.58594-1.18945-.58594-2.1709v-4.54785h-1.29199v-1.1543h1.29199v-1.99805l1.48145-.39648Z"/></svg>