<?xml version="1.0" encoding="UTF-8"?><svg id="Layer_1" xmlns="http://www.w3.org/2000/svg" viewBox="0 0 532 618.27027"><rect x="54.06932" y="65.70397" width="424.27416" height="424.27416" style="fill:none; stroke:#000; stroke-miterlimit:10; stroke-width:1.63622px;"/><rect x="445.81471" y="50.55708" width="61.7301" height="30.14726" rx="11.48467" ry="11.48467" style="fill:#c1c1c1;"/><path d="m465.56299,62.03162c-.03467.60254-.06885,1.27441-.06885,2.29102v4.84082c0,1.91211-.37891,3.08398-1.18896,3.80762-.80957.75781-1.98096.99902-3.03174.99902-.99951,0-2.10205-.24121-2.77344-.68945l.37891-1.1543c.55127.34473,1.4126.65527,2.44629.65527,1.55029,0,2.6875-.80957,2.6875-2.91211v-.92969h-.03467c-.46533.77539-1.36084,1.39551-2.65283,1.39551-2.06738,0-3.54883-1.75781-3.54883-4.06543,0-2.82617,1.84326-4.42773,3.75537-4.42773,1.44727,0,2.23975.75781,2.60107,1.44727h.03467l.06885-1.25781h1.32666Zm-1.56787,3.29004c0-.25781-.01709-.48242-.08594-.68848-.27588-.87891-1.0166-1.60254-2.11914-1.60254-1.44678,0-2.48047,1.22363-2.48047,3.15234,0,1.63672.82666,2.99805,2.46338,2.99805.93018,0,1.77441-.58594,2.10156-1.55078.08643-.25781.12061-.55078.12061-.80957v-1.49902Z"/><path d="m468.06055,58.91346c.7583-.15527,1.84326-.24121,2.87695-.24121,1.60254,0,2.63574.29297,3.35938.94727.58594.5166.91309,1.30957.91309,2.20508,0,1.5332-.96484,2.5498-2.18799,2.96289v.05176c.896.31055,1.43018,1.1377,1.70557,2.34277.37891,1.62012.65479,2.73926.896,3.1875h-1.55029c-.18994-.32715-.44824-1.32617-.77539-2.77344-.34473-1.60254-.96484-2.20508-2.32568-2.25684h-1.4126v5.03027h-1.49902v-11.45605Zm1.49902,5.28906h1.5332c1.60205,0,2.61865-.87891,2.61865-2.20508,0-1.49902-1.08545-2.15332-2.67041-2.1709-.72363,0-1.24023.06836-1.48145.1377v4.23828Z"/><path d="m477.32861,58.89588c.72363-.12012,1.67139-.22363,2.87695-.22363,1.48193,0,2.56689.34473,3.25635.96484.63721.55078,1.01611,1.39551,1.01611,2.42871,0,1.05078-.31006,1.87793-.896,2.48047-.79199.84473-2.08447,1.27539-3.54834,1.27539-.44824,0-.86182-.01758-1.20605-.10352v4.65137h-1.49902v-11.47363Zm1.49902,5.59961c.32715.08594.74072.12012,1.24023.12012,1.80908,0,2.91162-.87891,2.91162-2.48047,0-1.5332-1.08545-2.27441-2.73926-2.27441-.65479,0-1.1543.05176-1.4126.12109v4.51367Z"/><path d="m494.60742,69.9906c-.55127.27539-1.65381.55078-3.06641.55078-3.27344,0-5.73682-2.06641-5.73682-5.87402,0-3.63477,2.46338-6.09863,6.06396-6.09863,1.44727,0,2.36035.31055,2.75635.5166l-.36182,1.22363c-.56836-.27539-1.37793-.48242-2.34277-.48242-2.72168,0-4.53076,1.74023-4.53076,4.78906,0,2.84277,1.63672,4.66895,4.46191,4.66895.91309,0,1.84326-.18945,2.44629-.48242l.31006,1.18848Z"/><rect x="23.00001" y="50.50762" width="61.7301" height="30.14726" rx="11.48467" ry="11.48467" style="fill:#c1c1c1;"/><path d="m37.11475,58.70838v4.8584h5.61572v-4.8584h1.5166v11.61133h-1.5166v-5.44336h-5.61572v5.44336h-1.49854v-11.61133h1.49854Z"/><path d="m49.05273,59.98377h-3.53125v-1.27539h8.59619v1.27539h-3.54883v10.33594h-1.51611v-10.33594Z"/><path d="m58.26953,59.98377h-3.53223v-1.27539h8.59668v1.27539h-3.54883v10.33594h-1.51562v-10.33594Z"/><path d="m64.62598,58.84607c.72363-.12012,1.6709-.22363,2.87695-.22363,1.48145,0,2.56689.34473,3.25586.96484.6377.55078,1.0166,1.39551,1.0166,2.42871,0,1.05078-.31055,1.87793-.896,2.48047-.79248.84473-2.08447,1.27539-3.54883,1.27539-.44775,0-.86133-.01758-1.20557-.10352v4.65137h-1.49902v-11.47363Zm1.49902,5.59961c.32715.08594.74023.12012,1.24023.12012,1.80859,0,2.91113-.87891,2.91113-2.48047,0-1.5332-1.08496-2.27441-2.73926-2.27441-.6543,0-1.1543.05176-1.41211.12109v4.51367Z"/><rect x="25.23007" y="477.54934" width="61.7301" height="30.14726" rx="11.48467" ry="11.48467" style="fill:#c1c1c1;"/><path d="m42.42285,491.91834h-4.51367v4.18555h5.03027v1.25781h-6.52881v-11.61133h6.27051v1.25781h-4.77197v3.66895h4.51367v1.24121Z"/><path d="m45.2998,489.02381l1.63672,4.68555c.27539.75781.49951,1.44727.67188,2.13672h.05176c.18945-.68945.43066-1.37891.70605-2.13672l1.61914-4.68555h1.58496l-3.27295,8.33789h-1.44678l-3.16992-8.33789h1.61914Z"/><path d="m53.67188,493.46814c.03467,2.0498,1.34375,2.89453,2.85986,2.89453,1.08545,0,1.73975-.18945,2.30811-.43066l.25879,1.08496c-.53418.24121-1.44727.5166-2.77344.5166-2.56738,0-4.10059-1.6875-4.10059-4.20312,0-2.51465,1.48193-4.49609,3.91113-4.49609,2.72168,0,3.44531,2.39453,3.44531,3.92773,0,.30957-.03467.55078-.05176.70605h-5.85742Zm4.44482-1.08496c.01709-.96484-.396-2.46387-2.10205-2.46387-1.5332,0-2.20508,1.41309-2.3252,2.46387h4.42725Z"/><path d="m61.4585,491.28064c0-.86133-.01709-1.56738-.06885-2.25684h1.34375l.08594,1.37793h.03467c.41357-.79199,1.37842-1.56738,2.75635-1.56738,1.1543,0,2.9458.68945,2.9458,3.54883v4.97852h-1.51611v-4.80664c0-1.34375-.49951-2.46289-1.92969-2.46289-.99902,0-1.77441.70605-2.03223,1.5498-.06934.18945-.10352.44824-.10352.70703v5.0127h-1.51611v-6.08105Z"/><path d="m72.77637,486.62928v2.39453h2.1709v1.1543h-2.1709v4.49609c0,1.0332.29297,1.61914,1.13721,1.61914.396,0,.68896-.05176.87842-.10352l.06934,1.1377c-.29297.12012-.7583.20605-1.34375.20605-.70654,0-1.27539-.22363-1.63672-.63672-.43066-.44824-.58594-1.18945-.58594-2.1709v-4.54785h-1.29199v-1.1543h1.29199v-1.99805l1.48145-.39648Z"/><path d="m79.61621,91.46912c.57422.35352,1.41357.64746,2.29688.64746,1.31055,0,2.07617-.69238,2.07617-1.69336,0-.92773-.52979-1.45801-1.87012-1.97266-1.61914-.57422-2.62061-1.41406-2.62061-2.8125,0-1.5459,1.28076-2.69531,3.20996-2.69531,1.01611,0,1.75244.23633,2.19385.48633l-.35352,1.0459c-.32373-.17676-.98633-.47168-1.88477-.47168-1.35449,0-1.87012.80957-1.87012,1.4873,0,.92773.604,1.38379,1.97363,1.91406,1.67822.64844,2.53223,1.45801,2.53223,2.91602,0,1.53125-1.13379,2.85645-3.47461,2.85645-.95703,0-2.00293-.28027-2.5332-.63379l.32422-1.07422Z"/><path d="m87.00879,88.22986c0-.91309-.02979-1.64941-.05908-2.32715h1.16309l.05908,1.22266h.0293c.53027-.86914,1.36914-1.38477,2.53271-1.38477,1.72266,0,3.01855,1.45801,3.01855,3.62305,0,2.56152-1.56104,3.82812-3.23975,3.82812-.94238,0-1.7666-.41211-2.19336-1.11914h-.02979v3.87207h-1.28076v-7.71484Zm1.28076,1.89941c0,.19141.02979.36816.05908.5293.23535.89844,1.01562,1.5166,1.94336,1.5166,1.36963,0,2.16455-1.11816,2.16455-2.75293,0-1.42871-.75098-2.65039-2.12061-2.65039-.88281,0-1.70801.63281-1.95801,1.60449-.04395.16211-.08838.35352-.08838.53027v1.22266Z"/><path d="m96.10889,89.70154c.02979,1.75293,1.14844,2.47363,2.44434,2.47363.92773,0,1.4873-.16113,1.97314-.36719l.2207.92676c-.45605.20703-1.23682.44238-2.37061.44238-2.19385,0-3.50439-1.44336-3.50439-3.59277,0-2.15039,1.2666-3.84375,3.34277-3.84375,2.32617,0,2.94434,2.04688,2.94434,3.35742,0,.26562-.0293.47168-.04395.60352h-5.00635Zm3.79932-.92773c.01465-.82422-.33887-2.10547-1.79688-2.10547-1.31055,0-1.88477,1.20801-1.98779,2.10547h3.78467Z"/><path d="m107.84521,92.76502c-.33887.17676-1.08984.41211-2.04688.41211-2.1499,0-3.54834-1.45801-3.54834-3.6377,0-2.19336,1.50195-3.78418,3.82812-3.78418.76562,0,1.44336.19141,1.79639.36816l-.29443,1.00195c-.30957-.17676-.79492-.33887-1.50195-.33887-1.63477,0-2.51758,1.20703-2.51758,2.69434,0,1.64941,1.05957,2.66504,2.47363,2.66504.73633,0,1.22168-.19141,1.58984-.35352l.22119.97266Z"/><path d="m113.61816,93.02967l-2.51807-9.9248h1.35449l1.17822,5.02148c.29443,1.2373.55957,2.47363.73633,3.43066h.0293c.16211-.98633.47119-2.16406.80957-3.44531l1.3252-5.00684h1.33984l1.20801,5.03613c.2793,1.17773.54492,2.35645.69189,3.40137h.0293c.20654-1.08984.48584-2.19434.79541-3.43066l1.31055-5.00684h1.31055l-2.8125,9.9248h-1.33984l-1.25195-5.16797c-.30908-1.2666-.51562-2.23828-.64795-3.24023h-.0293c-.17676.9873-.39795,1.95898-.76562,3.24023l-1.41357,5.16797h-1.33984Z"/><path d="m125.61914,83.90076c.01514.44141-.30859.79492-.82422.79492-.45654,0-.78027-.35352-.78027-.79492,0-.45703.33887-.81055.80957-.81055.48633,0,.79492.35352.79492.81055Zm-1.44238,9.12891v-7.12695h1.29541v7.12695h-1.29541Z"/><path d="m127.62207,88.12635c0-.83887-.01465-1.56055-.05859-2.22363h1.13379l.04395,1.39941h.05908c.32373-.95703,1.104-1.56152,1.97314-1.56152.14746,0,.25.01465.36816.04492v1.22168c-.13281-.0293-.26514-.04395-.44189-.04395-.9126,0-1.56104.69141-1.73779,1.66406-.0293.17676-.05859.38281-.05859.60352v3.79883h-1.28125v-4.90332Z"/><path d="m133.01221,89.70154c.02979,1.75293,1.14844,2.47363,2.44434,2.47363.92773,0,1.4873-.16113,1.97314-.36719l.2207.92676c-.45605.20703-1.23682.44238-2.37061.44238-2.19385,0-3.50439-1.44336-3.50439-3.59277,0-2.15039,1.2666-3.84375,3.34277-3.84375,2.32617,0,2.94434,2.04688,2.94434,3.35742,0,.26562-.0293.47168-.04395.60352h-5.00635Zm3.79932-.92773c.01465-.82422-.33887-2.10547-1.79688-2.10547-1.31055,0-1.88477,1.20801-1.98779,2.10547h3.78467Z"/><path d="m142.83447,83.22303c.61865-.10352,1.42822-.19141,2.45898-.19141,1.26611,0,2.19385.29492,2.78271.82422.54492.47168.86914,1.19336.86914,2.07617,0,.89844-.26514,1.60547-.76562,2.12109-.67773.7207-1.78223,1.08887-3.0332,1.08887-.38281,0-.73633-.01465-1.03125-.08789v3.97559h-1.28076v-9.80664Zm1.28076,4.78516c.28027.07422.6333.10352,1.06055.10352,1.5459,0,2.48828-.75098,2.48828-2.12012,0-1.31055-.92773-1.94434-2.34082-1.94434-.55957,0-.98682.04492-1.20801.10352v3.85742Z"/><path d="m150.38867,88.12635c0-.83887-.01465-1.56055-.05859-2.22363h1.13379l.04395,1.39941h.05908c.32373-.95703,1.104-1.56152,1.97314-1.56152.14746,0,.25.01465.36816.04492v1.22168c-.13281-.0293-.26514-.04395-.44189-.04395-.9126,0-1.56104.69141-1.73779,1.66406-.0293.17676-.05859.38281-.05859.60352v3.79883h-1.28125v-4.90332Z"/><path d="m161.50684,89.4076c0,2.63574-1.82617,3.78418-3.54883,3.78418-1.9292,0-3.41602-1.41406-3.41602-3.66699,0-2.38477,1.56055-3.78418,3.53369-3.78418,2.04639,0,3.43115,1.4873,3.43115,3.66699Zm-5.6543.07324c0,1.56055.89795,2.73926,2.16406,2.73926,1.2373,0,2.16504-1.16309,2.16504-2.76855,0-1.20703-.604-2.73926-2.13574-2.73926-1.53125,0-2.19336,1.41406-2.19336,2.76855Z"/><path d="m164.70215,83.85584v2.04688h1.85547v.98633h-1.85547v3.84375c0,.88281.25049,1.38379.97217,1.38379.33838,0,.58887-.04395.75098-.08789l.05908.97168c-.25098.10254-.64844.17676-1.14893.17676-.60352,0-1.08936-.19141-1.39893-.54492-.36816-.38281-.50049-1.0166-.50049-1.85547v-3.8877h-1.104v-.98633h1.104v-1.70801l1.26611-.33887Z"/><path d="m174.37695,89.4076c0,2.63574-1.82568,3.78418-3.54883,3.78418-1.92871,0-3.41602-1.41406-3.41602-3.66699,0-2.38477,1.56104-3.78418,3.53418-3.78418,2.04688,0,3.43066,1.4873,3.43066,3.66699Zm-5.6543.07324c0,1.56055.89844,2.73926,2.16504,2.73926,1.23633,0,2.16406-1.16309,2.16406-2.76855,0-1.20703-.60352-2.73926-2.13477-2.73926s-2.19434,1.41406-2.19434,2.76855Z"/><path d="m181.09229,92.76502c-.33887.17676-1.08984.41211-2.04688.41211-2.1499,0-3.54834-1.45801-3.54834-3.6377,0-2.19336,1.50195-3.78418,3.82812-3.78418.76562,0,1.44336.19141,1.79639.36816l-.29443,1.00195c-.30957-.17676-.79492-.33887-1.50195-.33887-1.63477,0-2.51758,1.20703-2.51758,2.69434,0,1.64941,1.05957,2.66504,2.47363,2.66504.73633,0,1.22168-.19141,1.58984-.35352l.22119.97266Z"/><path d="m188.9707,89.4076c0,2.63574-1.82617,3.78418-3.54883,3.78418-1.9292,0-3.41602-1.41406-3.41602-3.66699,0-2.38477,1.56055-3.78418,3.53369-3.78418,2.04639,0,3.43115,1.4873,3.43115,3.66699Zm-5.6543.07324c0,1.56055.89795,2.73926,2.16406,2.73926,1.2373,0,2.16504-1.16309,2.16504-2.76855,0-1.20703-.604-2.73926-2.13574-2.73926-1.53125,0-2.19336,1.41406-2.19336,2.76855Z"/><path d="m190.60547,82.57556h1.2959v10.4541h-1.2959v-10.4541Z"/><path d="m200.20605,88.56775v.95703h-3.63672v-.95703h3.63672Z"/><path d="m204.7124,91.46912c.57422.35352,1.41357.64746,2.29736.64746,1.31055,0,2.07617-.69238,2.07617-1.69336,0-.92773-.53027-1.45801-1.87012-1.97266-1.62012-.57422-2.62109-1.41406-2.62109-2.8125,0-1.5459,1.28125-2.69531,3.20996-2.69531,1.01562,0,1.75195.23633,2.19385.48633l-.35303,1.0459c-.32422-.17676-.98682-.47168-1.88477-.47168-1.35498,0-1.87012.80957-1.87012,1.4873,0,.92773.60352,1.38379,1.97266,1.91406,1.67871.64844,2.5332,1.45801,2.5332,2.91602,0,1.53125-1.13379,2.85645-3.47559,2.85645-.95703,0-2.00244-.28027-2.53223-.63379l.32373-1.07422Z"/><path d="m212.91455,89.70154c.02979,1.75293,1.14844,2.47363,2.44434,2.47363.92773,0,1.4873-.16113,1.97314-.36719l.2207.92676c-.45605.20703-1.23682.44238-2.37061.44238-2.19385,0-3.50439-1.44336-3.50439-3.59277,0-2.15039,1.2666-3.84375,3.34277-3.84375,2.32617,0,2.94434,2.04688,2.94434,3.35742,0,.26562-.0293.47168-.04395.60352h-5.00635Zm3.79932-.92773c.01465-.82422-.33887-2.10547-1.79688-2.10547-1.31055,0-1.88477,1.20801-1.98779,2.10547h3.78467Z"/><path d="m219.5708,88.12635c0-.83887-.01465-1.56055-.05908-2.22363h1.13379l.04443,1.39941h.05908c.32373-.95703,1.104-1.56152,1.97266-1.56152.14746,0,.25049.01465.36816.04492v1.22168c-.13232-.0293-.26465-.04395-.44141-.04395-.91309,0-1.56104.69141-1.73779,1.66406-.0293.17676-.05908.38281-.05908.60352v3.79883h-1.28076v-4.90332Z"/><path d="m225.8877,83.90076c.01514.44141-.30859.79492-.82422.79492-.45654,0-.78027-.35352-.78027-.79492,0-.45703.33887-.81055.80957-.81055.48633,0,.79492.35352.79492.81055Zm-1.44238,9.12891v-7.12695h1.29541v7.12695h-1.29541Z"/><path d="m231.83691,93.02967l-.10303-.89844h-.04443c-.39746.55957-1.16309,1.06055-2.17871,1.06055-1.44336,0-2.17969-1.0166-2.17969-2.04688,0-1.72266,1.53125-2.66504,4.28516-2.65039v-.14746c0-.58887-.16211-1.64941-1.61963-1.64941-.6626,0-1.35498.20703-1.85547.53027l-.29443-.85352c.58887-.38281,1.44287-.63379,2.34131-.63379,2.1792,0,2.70947,1.4873,2.70947,2.91602v2.66504c0,.61816.0293,1.22168.11768,1.70801h-1.17822Zm-.19141-3.63672c-1.41357-.0293-3.01855.2207-3.01855,1.60449,0,.83984.55957,1.2373,1.22217,1.2373.92773,0,1.51709-.58887,1.72314-1.19336.04395-.13184.07324-.2793.07324-.41211v-1.23633Z"/><path d="m234.98877,82.57556h1.29541v10.4541h-1.29541v-10.4541Z"/><path d="m239.90723,83.90076c.01465.44141-.30957.79492-.82471.79492-.45654,0-.78076-.35352-.78076-.79492,0-.45703.33887-.81055.81055-.81055.48535,0,.79492.35352.79492.81055Zm-1.44336,9.12891v-7.12695h1.2959v7.12695h-1.2959Z"/><path d="m241.1001,92.27869l3.22461-4.19629c.30908-.38281.60352-.72168.92773-1.10449v-.0293h-3.85791v-1.0459h5.43359l-.01514.80957-3.18018,4.1377c-.29492.39844-.58887.75098-.91309,1.11914v.03027h4.16699v1.03027h-5.78662v-.75098Z"/><path d="m252.15869,93.02967l-.10303-.89844h-.04395c-.39746.55957-1.16357,1.06055-2.1792,1.06055-1.44336,0-2.17969-1.0166-2.17969-2.04688,0-1.72266,1.53174-2.66504,4.28516-2.65039v-.14746c0-.58887-.16211-1.64941-1.61963-1.64941-.6626,0-1.35498.20703-1.85547.53027l-.29443-.85352c.58887-.38281,1.44287-.63379,2.34131-.63379,2.1792,0,2.70947,1.4873,2.70947,2.91602v2.66504c0,.61816.0293,1.22168.11768,1.70801h-1.17822Zm-.19141-3.63672c-1.41357-.0293-3.01855.2207-3.01855,1.60449,0,.83984.55957,1.2373,1.22217,1.2373.92773,0,1.5166-.58887,1.72266-1.19336.04443-.13184.07373-.2793.07373-.41211v-1.23633Z"/><path d="m256.81201,83.85584v2.04688h1.85547v.98633h-1.85547v3.84375c0,.88281.25049,1.38379.97168,1.38379.33887,0,.58936-.04395.75098-.08789l.05908.97168c-.25049.10254-.64795.17676-1.14844.17676-.604,0-1.08984-.19141-1.39893-.54492-.36816-.38281-.50049-1.0166-.50049-1.85547v-3.8877h-1.10449v-.98633h1.10449v-1.70801l1.26611-.33887Z"/><path d="m261.56836,83.90076c.01465.44141-.30957.79492-.82471.79492-.45654,0-.78027-.35352-.78027-.79492,0-.45703.33838-.81055.80957-.81055.48584,0,.79541.35352.79541.81055Zm-1.44336,9.12891v-7.12695h1.2959v7.12695h-1.2959Z"/><path d="m270.02051,89.4076c0,2.63574-1.82617,3.78418-3.54883,3.78418-1.92871,0-3.41602-1.41406-3.41602-3.66699,0-2.38477,1.56055-3.78418,3.53369-3.78418,2.04688,0,3.43115,1.4873,3.43115,3.66699Zm-5.6543.07324c0,1.56055.89795,2.73926,2.16455,2.73926,1.23682,0,2.16455-1.16309,2.16455-2.76855,0-1.20703-.604-2.73926-2.13525-2.73926s-2.19385,1.41406-2.19385,2.76855Z"/><path d="m271.65527,87.83142c0-.73535-.01465-1.33984-.05859-1.92871h1.14844l.07373,1.17773h.0293c.35352-.67676,1.17822-1.33984,2.35596-1.33984.98682,0,2.51807.58887,2.51807,3.0332v4.25586h-1.2959v-4.1084c0-1.14844-.42725-2.10547-1.64893-2.10547-.85449,0-1.51709.60352-1.73779,1.3252-.05908.16211-.08838.38281-.08838.60352v4.28516h-1.2959v-5.19824Z"/><path d="m289.20801,93.02967c-.27979-.2793-.54492-.55957-.92773-.97168-.854.79492-1.81104,1.13379-2.90088,1.13379-1.92871,0-3.04785-1.2959-3.04785-2.7832,0-1.35449.80957-2.28223,1.94336-2.90039v-.04492c-.51514-.64746-.82422-1.36914-.82422-2.07617,0-1.20703.86865-2.44434,2.51758-2.44434,1.2373,0,2.19434.8252,2.19434,2.10645,0,1.04492-.604,1.87012-2.1792,2.65039v.04395c.83887.97168,1.78125,2.06152,2.41455,2.76855.45654-.69238.76562-1.64941.95703-2.90137h1.17822c-.26514,1.56152-.69189,2.79785-1.42822,3.66699.52979.55957,1.04541,1.11914,1.63428,1.75195h-1.53125Zm-1.56104-1.70801c-.58887-.64746-1.69336-1.85547-2.79736-3.12207-.53027.33887-1.28125.97266-1.28125,2.01758,0,1.13379.83936,2.00293,2.03223,2.00293.854,0,1.5752-.38281,2.04639-.89844Zm-3.01855-6.05176c0,.70703.32422,1.25098.75098,1.78125,1.00146-.57422,1.64941-1.10449,1.64941-1.94336,0-.60352-.33887-1.28125-1.14893-1.28125-.82422,0-1.25146.67773-1.25146,1.44336Z"/><path d="m295.0249,83.23767c.78027-.11816,1.70801-.20605,2.72412-.20605,1.84033,0,3.15088.42676,4.01953,1.2373.88379.80957,1.39893,1.95801,1.39893,3.5625,0,1.62012-.50049,2.94531-1.42822,3.8584-.92773.92773-2.45898,1.42773-4.3877,1.42773-.91309,0-1.67871-.04395-2.32666-.11719v-9.7627Zm1.28076,8.77637c.32422.05859.79541.07324,1.2959.07324,2.73877,0,4.22607-1.53125,4.22607-4.21094.01465-2.3418-1.31055-3.8291-4.02002-3.8291-.6626,0-1.16309.05957-1.50195.13281v7.83398Z"/><path d="m305.56836,89.70154c.0293,1.75293,1.14844,2.47363,2.44434,2.47363.92773,0,1.4873-.16113,1.97314-.36719l.2207.92676c-.45654.20703-1.23682.44238-2.37061.44238-2.19385,0-3.50439-1.44336-3.50439-3.59277,0-2.15039,1.26611-3.84375,3.34229-3.84375,2.32666,0,2.94531,2.04688,2.94531,3.35742,0,.26562-.02979.47168-.04443.60352h-5.00635Zm3.79883-.92773c.01514-.82422-.33838-2.10547-1.79639-2.10547-1.31055,0-1.88477,1.20801-1.98779,2.10547h3.78418Z"/><path d="m312.04785,91.70447c.38281.25,1.06006.51562,1.70801.51562.94238,0,1.38379-.47168,1.38379-1.06055,0-.61816-.36816-.95703-1.3252-1.31055-1.28076-.45605-1.88477-1.16309-1.88477-2.01758,0-1.14844.92773-2.09082,2.45898-2.09082.72168,0,1.35498.20605,1.75244.44238l-.32373.94238c-.27979-.17676-.79541-.41309-1.45801-.41309-.76562,0-1.19287.44238-1.19287.97266,0,.58887.42725.85352,1.35498,1.20703,1.23682.47168,1.87012,1.08984,1.87012,2.14941,0,1.25195-.97217,2.13574-2.66553,2.13574-.78027,0-1.50195-.19141-2.00244-.48633l.32422-.98633Z"/><path d="m318.77734,89.70154c.0293,1.75293,1.14844,2.47363,2.44434,2.47363.92773,0,1.4873-.16113,1.97314-.36719l.2207.92676c-.45654.20703-1.23682.44238-2.37061.44238-2.19385,0-3.50439-1.44336-3.50439-3.59277,0-2.15039,1.26611-3.84375,3.34229-3.84375,2.32666,0,2.94531,2.04688,2.94531,3.35742,0,.26562-.02979.47168-.04443.60352h-5.00635Zm3.79883-.92773c.01514-.82422-.33838-2.10547-1.79639-2.10547-1.31055,0-1.88477,1.20801-1.98779,2.10547h3.78418Z"/><path d="m325.43311,88.12635c0-.83887-.01465-1.56055-.05859-2.22363h1.13379l.04395,1.39941h.05908c.32373-.95703,1.10449-1.56152,1.97314-1.56152.14697,0,.25049.01465.36816.04492v1.22168c-.13281-.0293-.26514-.04395-.44189-.04395-.91309,0-1.56055.69141-1.7373,1.66406-.02979.17676-.05908.38281-.05908.60352v3.79883h-1.28125v-4.90332Z"/><path d="m331.75049,83.90076c.01465.44141-.30957.79492-.82471.79492-.45654,0-.78027-.35352-.78027-.79492,0-.45703.33838-.81055.80957-.81055.48584,0,.79541.35352.79541.81055Zm-1.44336,9.12891v-7.12695h1.2959v7.12695h-1.2959Z"/><path d="m337.69922,93.02967l-.10303-.89844h-.04395c-.39795.55957-1.16357,1.06055-2.1792,1.06055-1.44336,0-2.17969-1.0166-2.17969-2.04688,0-1.72266,1.53174-2.66504,4.28516-2.65039v-.14746c0-.58887-.16211-1.64941-1.61963-1.64941-.6626,0-1.35498.20703-1.85547.53027l-.29443-.85352c.58887-.38281,1.44287-.63379,2.34131-.63379,2.1792,0,2.70947,1.4873,2.70947,2.91602v2.66504c0,.61816.0293,1.22168.11768,1.70801h-1.17822Zm-.19141-3.63672c-1.41357-.0293-3.01855.2207-3.01855,1.60449,0,.83984.55957,1.2373,1.22217,1.2373.92773,0,1.5166-.58887,1.72266-1.19336.04443-.13184.07373-.2793.07373-.41211v-1.23633Z"/><path d="m340.85059,82.57556h1.2959v10.4541h-1.2959v-10.4541Z"/><path d="m345.76904,83.90076c.01465.44141-.30957.79492-.82471.79492-.45654,0-.78027-.35352-.78027-.79492,0-.45703.33838-.81055.80957-.81055.48584,0,.79541.35352.79541.81055Zm-1.44336,9.12891v-7.12695h1.2959v7.12695h-1.2959Z"/><path d="m346.96191,92.27869l3.22461-4.19629c.30908-.38281.60352-.72168.92773-1.10449v-.0293h-3.85791v-1.0459h5.43359l-.01514.80957-3.18018,4.1377c-.29443.39844-.58936.75098-.91309,1.11914v.03027h4.16699v1.03027h-5.78662v-.75098Z"/><path d="m358.02051,93.02967l-.10303-.89844h-.04395c-.39795.55957-1.16357,1.06055-2.1792,1.06055-1.44336,0-2.17969-1.0166-2.17969-2.04688,0-1.72266,1.53174-2.66504,4.28516-2.65039v-.14746c0-.58887-.16211-1.64941-1.61963-1.64941-.6626,0-1.35498.20703-1.85547.53027l-.29443-.85352c.58887-.38281,1.44287-.63379,2.34131-.63379,2.1792,0,2.70947,1.4873,2.70947,2.91602v2.66504c0,.61816.0293,1.22168.11768,1.70801h-1.17822Zm-.19141-3.63672c-1.41357-.0293-3.01855.2207-3.01855,1.60449,0,.83984.55957,1.2373,1.22217,1.2373.92773,0,1.5166-.58887,1.72266-1.19336.04443-.13184.07373-.2793.07373-.41211v-1.23633Z"/><path d="m362.67432,83.85584v2.04688h1.85547v.98633h-1.85547v3.84375c0,.88281.25049,1.38379.97168,1.38379.33887,0,.58936-.04395.75098-.08789l.05908.97168c-.25049.10254-.64795.17676-1.14844.17676-.604,0-1.08984-.19141-1.39893-.54492-.36816-.38281-.50049-1.0166-.50049-1.85547v-3.8877h-1.10449v-.98633h1.10449v-1.70801l1.26611-.33887Z"/><path d="m367.43066,83.90076c.01465.44141-.30957.79492-.82471.79492-.45654,0-.78027-.35352-.78027-.79492,0-.45703.33838-.81055.80957-.81055.48584,0,.79541.35352.79541.81055Zm-1.44336,9.12891v-7.12695h1.2959v7.12695h-1.2959Z"/><path d="m375.88281,89.4076c0,2.63574-1.82617,3.78418-3.54883,3.78418-1.92871,0-3.41602-1.41406-3.41602-3.66699,0-2.38477,1.56055-3.78418,3.53369-3.78418,2.04688,0,3.43115,1.4873,3.43115,3.66699Zm-5.6543.07324c0,1.56055.89795,2.73926,2.16455,2.73926,1.23682,0,2.16455-1.16309,2.16455-2.76855,0-1.20703-.604-2.73926-2.13525-2.73926s-2.19385,1.41406-2.19385,2.76855Z"/><path d="m377.51758,87.83142c0-.73535-.01465-1.33984-.05859-1.92871h1.14844l.07373,1.17773h.0293c.35352-.67676,1.17822-1.33984,2.35596-1.33984.98682,0,2.51807.58887,2.51807,3.0332v4.25586h-1.2959v-4.1084c0-1.14844-.42725-2.10547-1.64893-2.10547-.85449,0-1.51709.60352-1.73779,1.3252-.05908.16211-.08838.38281-.08838.60352v4.28516h-1.2959v-5.19824Z"/><rect x="52.08532" y="536.51786" width="424.55745" height="43.12291" style="fill:none; stroke:#231f20; stroke-miterlimit:10; stroke-width:1.20476px;"/><line x1="78.61296" y1="536.51786" x2="78.61296" y2="579.64077" style="fill:none; stroke:#231f20; stroke-miterlimit:10; stroke-width:1.20476px;"/><line x1="103.41057" y1="536.51786" x2="103.41057" y2="579.64077" style="fill:none; stroke:#231f20; stroke-miterlimit:10; stroke-width:1.20476px;"/><line x1="128.20819" y1="536.51786" x2="128.20819" y2="579.64077" style="fill:none; stroke:#231f20; stroke-miterlimit:10; stroke-width:1.20476px;"/><line x1="153.00581" y1="536.51786" x2="153.00581" y2="579.64077" style="fill:none; stroke:#231f20; stroke-miterlimit:10; stroke-width:1.20476px;"/><line x1="177.80343" y1="536.51786" x2="177.80343" y2="579.64077" style="fill:none; stroke:#231f20; stroke-miterlimit:10; stroke-width:1.20476px;"/><line x1="202.60105" y1="536.51786" x2="202.60105" y2="579.64077" style="fill:none; stroke:#231f20; stroke-miterlimit:10; stroke-width:1.20476px;"/><line x1="227.39867" y1="536.51786" x2="227.39867" y2="579.64077" style="fill:none; stroke:#231f20; stroke-miterlimit:10; stroke-width:1.20476px;"/><line x1="252.19629" y1="536.51786" x2="252.19629" y2="579.64077" style="fill:none; stroke:#231f20; stroke-miterlimit:10; stroke-width:1.20476px;"/><line x1="276.99391" y1="536.51786" x2="276.99391" y2="579.64077" style="fill:none; stroke:#231f20; stroke-miterlimit:10; stroke-width:1.20476px;"/><line x1="301.79153" y1="536.51786" x2="301.79153" y2="579.64077" style="fill:none; stroke:#231f20; stroke-miterlimit:10; stroke-width:1.20476px;"/><line x1="326.58915" y1="536.51786" x2="326.58915" y2="579.64077" style="fill:none; stroke:#231f20; stroke-miterlimit:10; stroke-width:1.20476px;"/><line x1="351.38677" y1="536.51786" x2="351.38677" y2="579.64077" style="fill:none; stroke:#231f20; stroke-miterlimit:10; stroke-width:1.20476px;"/><line x1="376.18439" y1="536.51786" x2="376.18439" y2="579.64077" style="fill:none; stroke:#231f20; stroke-miterlimit:10; stroke-width:1.20476px;"/><line x1="400.98201" y1="536.51786" x2="400.98201" y2="579.64077" style="fill:none; stroke:#231f20; stroke-miterlimit:10; stroke-width:1.20476px;"/><line x1="425.77963" y1="536.51786" x2="425.77963" y2="579.64077" style="fill:none; stroke:#231f20; stroke-miterlimit:10; stroke-width:1.20476px;"/><line x1="450.57724" y1="536.51786" x2="450.57724" y2="579.64077" style="fill:none; stroke:#231f20; stroke-miterlimit:10; stroke-width:1.20476px;"/><ellipse cx="59.7841" cy="550.32046" rx="1.47055" ry="1.38843" style="fill:#231f20;"/><ellipse cx="67.22339" cy="564.3681" rx="1.47055" ry="1.38843" style="fill:#231f20;"/><ellipse cx="92.02101" cy="557.34428" rx="1.47055" ry="1.38843" style="fill:#231f20;"/><ellipse cx="115.57875" cy="545.63791" rx="1.47055" ry="1.38843" style="fill:#231f20;"/><ellipse cx="110.61922" cy="556.17364" rx="1.47055" ry="1.38843" style="fill:#231f20;"/><ellipse cx="121.77815" cy="560.85619" rx="1.47055" ry="1.38843" style="fill:#231f20;"/><ellipse cx="118.05851" cy="562.02683" rx="1.47055" ry="1.38843" style="fill:#231f20;"/><ellipse cx="142.85613" cy="562.02683" rx="1.47055" ry="1.38843" style="fill:#231f20;"/><ellipse cx="167.65375" cy="550.32046" rx="1.47055" ry="1.38843" style="fill:#231f20;"/><ellipse cx="181.29244" cy="562.02683" rx="1.47055" ry="1.38843" style="fill:#231f20;"/><ellipse cx="218.48887" cy="562.02683" rx="1.47055" ry="1.38843" style="fill:#231f20;"/><ellipse cx="193.69125" cy="569.05065" rx="1.47055" ry="1.38843" style="fill:#231f20;"/><ellipse cx="168.89363" cy="569.05065" rx="1.47055" ry="1.38843" style="fill:#231f20;"/><ellipse cx="243.28649" cy="569.05065" rx="1.47055" ry="1.38843" style="fill:#231f20;"/><ellipse cx="230.88768" cy="545.63791" rx="1.47055" ry="1.38843" style="fill:#231f20;"/><ellipse cx="256.92518" cy="551.4911" rx="1.47055" ry="1.38843" style="fill:#231f20;"/><ellipse cx="244.52637" cy="551.4911" rx="1.47055" ry="1.38843" style="fill:#231f20;"/><ellipse cx="281.7228" cy="551.4911" rx="1.47055" ry="1.38843" style="fill:#231f20;"/><ellipse cx="290.40196" cy="551.4911" rx="1.47055" ry="1.38843" style="fill:#231f20;"/><ellipse cx="294.12161" cy="551.4911" rx="1.47055" ry="1.38843" style="fill:#231f20;"/><ellipse cx="292.88172" cy="556.17364" rx="1.47055" ry="1.38843" style="fill:#231f20;"/><ellipse cx="305.28053" cy="556.17364" rx="1.47055" ry="1.38843" style="fill:#231f20;"/><ellipse cx="335.26833" cy="558.9505" rx="1.47055" ry="1.38843" style="fill:#231f20;"/><ellipse cx="367.27458" cy="563.41526" rx="1.47055" ry="1.38843" style="fill:#231f20;"/><ellipse cx="359.8353" cy="562.24462" rx="1.47055" ry="1.38843" style="fill:#231f20;"/><ellipse cx="363.55494" cy="573.95099" rx="1.47055" ry="1.38843" style="fill:#231f20;"/><ellipse cx="457.78589" cy="573.95099" rx="1.47055" ry="1.38843" style="fill:#231f20;"/><ellipse cx="457.78589" cy="569.26844" rx="1.47055" ry="1.38843" style="fill:#231f20;"/><ellipse cx="466.46506" cy="557.56207" rx="1.47055" ry="1.38843" style="fill:#231f20;"/><ellipse cx="462.74542" cy="551.70889" rx="1.47055" ry="1.38843" style="fill:#231f20;"/><ellipse cx="392.0722" cy="547.02634" rx="1.47055" ry="1.38843" style="fill:#231f20;"/><ellipse cx="411.59241" cy="567.66222" rx="1.47055" ry="1.38843" style="fill:#231f20;"/><ellipse cx="429.26863" cy="556.17364" rx="1.47055" ry="1.38843" style="fill:#231f20;"/><path d="m62.47266,522.47596c-.09863-.24512-.24023-.44238-.4248-.59277-.18457-.14941-.41016-.25488-.67578-.31543-.2666-.05957-.55859-.08984-.87598-.08984-.22363,0-.45898.02832-.70801.08398s-.47852.14355-.68945.26367c-.20996.12012-.38379.27441-.52148.46387-.13721.18848-.20605.41992-.20605.69531,0,.22266.03906.41406.11621.57227.07715.15918.18262.29688.31543.41211.13281.11621.29199.21289.47656.29004s.37988.14648.58594.20605l1.23633.33496c.2832.07715.55762.17383.82422.29004.26562.11523.50195.26562.70801.4502s.37109.41895.49561.70215.18701.63086.18701,1.04297c0,.48047-.10938.89453-.32861,1.24219-.21875.34766-.50049.63574-.84326.86328-.34375.22754-.72754.39648-1.15234.50879-.42529.11133-.84375.16699-1.25586.16699-.54932,0-1.05566-.0625-1.51953-.18652-.46338-.125-.85645-.31543-1.17822-.57324s-.56641-.58984-.73389-.99805c-.16748-.40723-.22949-.89453-.18652-1.46191h1.22314c-.01709.41211.02979.75977.1416,1.04395.11182.2832.27686.51074.49561.68164.21875.17188.4834.29492.79199.36719.30908.07324.64844.10938,1.01758.10938.2832,0,.56445-.03418.84326-.10254s.52588-.17383.74072-.31543c.21387-.1416.3877-.32422.52148-.54785.13281-.22266.19922-.48926.19922-.79785,0-.23242-.04297-.43164-.12891-.59863-.08594-.16797-.2041-.30957-.35352-.42578-.15039-.11523-.32422-.21191-.52197-.28906s-.40771-.14648-.63086-.20605l-1.24902-.33496c-.2749-.07715-.53662-.17773-.78564-.30273-.24902-.12402-.46777-.27832-.65674-.46387-.18896-.18457-.33936-.40332-.45068-.65625s-.16699-.55176-.16699-.89453c0-.44629.09863-.83496.2959-1.16602.19727-.33008.45264-.60742.76611-.83008.31299-.22363.66943-.39062,1.06885-.50293.39941-.11133.80469-.16699,1.2168-.16699.45508,0,.88623.05762,1.29395.17383.4082.11621.7666.29199,1.0752.52832.30957.23633.55176.53809.72754.90723s.25586.81152.23828,1.32617h-1.22314c.0083-.36035-.03662-.66309-.13525-.90723Z" style="fill:#231f20;"/><path d="m66.6123,523.20349l-.23145.95312h.02588c.32568-.42969.66309-.72168,1.01074-.87598s.74463-.23145,1.19092-.23145c.42969,0,.80469.06641,1.12695.19922s.59424.32031.81738.56055c.22363.24023.39062.52734.50244.8623s.16748.7041.16748,1.10742c0,.50684-.08398,1.01074-.25098,1.5127-.16748.50293-.4082.95508-.72119,1.35938-.31348.40332-.69971.72949-1.15869.97852-.45996.24902-.98145.37305-1.56494.37305-.19775,0-.40576-.01758-.62451-.05176s-.4248-.09668-.61816-.18652-.36475-.20996-.51465-.36035c-.15039-.15039-.25586-.33691-.31592-.56055h-.02588l-.70801,3.55469h-1.06885l1.93164-9.19434h1.02979Zm3.11035,1.28711c-.27051-.31738-.70654-.47559-1.30713-.47559-.41211,0-.78125.10742-1.10742.32129-.32666.21484-.59912.48535-.81787.81152s-.38623.68262-.50195,1.06836c-.11621.38672-.17383.75586-.17383,1.10742,0,.49805.14355.91016.43115,1.23633s.70166.48926,1.24268.48926c.4375,0,.81982-.10059,1.146-.30273.32617-.20117.60107-.46094.82422-.77832s.39062-.66992.50244-1.05664c.11133-.38574.16699-.76367.16699-1.13281,0-.54102-.13477-.96973-.40527-1.28809Z" style="fill:#231f20;"/><path d="m73.12842,527.43982c0,.25781.04736.4873.1416.68848.09424.20215.22314.37012.38623.50293s.34766.23633.55371.30859c.20605.07324.4209.10938.64355.10938.48975,0,.89307-.10938,1.21094-.32812.31738-.21875.55371-.53418.70801-.94629h1.09473c-.08594.36914-.22363.69336-.41211.97168-.18896.2793-.4165.51172-.68262.69531-.26611.18555-.5625.32422-.88867.41895s-.66943.1416-1.03027.1416c-.54883,0-1.00635-.08398-1.37109-.25098-.36523-.16797-.65479-.38184-.86914-.64355-.21484-.26172-.36523-.5498-.45068-.86328-.08594-.31348-.12891-.61621-.12891-.90723,0-.63574.09229-1.21777.27686-1.74512.18457-.52832.43359-.98047.74707-1.3584s.67773-.66992,1.09473-.87598c.41602-.20605.85156-.30859,1.30664-.30859.97852,0,1.69336.25684,2.14404.77246.45068.51465.67627,1.24023.67627,2.17578,0,.17188-.0127.33496-.03906.48926-.02539.1543-.04688.2793-.06445.37402h-5.00879c-.02588.18848-.03857.38184-.03857.5791Zm4.01123-2.23438c-.04736-.22754-.1333-.42871-.25781-.60547-.12402-.17578-.28955-.31738-.49561-.4248-.20605-.10645-.45947-.16016-.75977-.16016-.31787,0-.60303.04883-.85596.14746-.25391.09863-.47461.23438-.66357.40625-.18896.1709-.34766.37109-.47607.59863-.12891.22754-.23242.46973-.30957.72754h3.86328c.01709-.23242.00195-.46191-.04492-.68945Z" style="fill:#231f20;"/><path d="m83.80322,524.35584c-.24902-.22754-.59229-.34082-1.03027-.34082-.42041,0-.7915.09375-1.11377.2832-.32227.18848-.59229.43359-.81152.7334-.21875.30078-.38379.6377-.49512,1.01074-.1123.37402-.16797.74121-.16797,1.10156,0,.25684.02832.50195.08398.7334.05566.23242.14795.43359.27686.60547.12842.17188.29834.30957.5083.41211.21045.10352.47021.1543.7793.1543.47217,0,.87598-.12402,1.21045-.37305s.57959-.5791.73389-.99121h1.09473c-.19775.75488-.55811,1.33008-1.08203,1.72461-.52344.39551-1.17578.59277-1.95703.59277-.91016,0-1.59473-.24902-2.05371-.74707-.45947-.49707-.68896-1.20117-.68896-2.11133,0-.53223.0791-1.04297.23779-1.53223.15918-.48926.39502-.92578.7085-1.30762.31299-.38184.69971-.68652,1.15869-.91406.45947-.22754.98535-.34082,1.57764-.34082.75537,0,1.354.18164,1.79639.54688s.67578.93848.70215,1.71875h-1.09473c0-.41211-.125-.73145-.37354-.95898Z" style="fill:#231f20;"/><path d="m97.68457,520.66639l-.20605,1.03027h-5.1123l-.61816,2.92285h4.76465l-.20605,1.03027h-4.77734l-.66992,3.18066h5.17676l-.23145,1.03027h-6.40039l1.94482-9.19434h6.33545Z" style="fill:#231f20;"/><path d="m98.67578,529.86072l-.95312-6.65723h1.15918l.56641,5.53711h.02588l2.88428-5.53711h1.18506l-3.6958,6.65723h-1.17188Z" style="fill:#231f20;"/><path d="m104.59912,527.43982c0,.25781.04736.4873.1416.68848.09424.20215.22314.37012.38623.50293s.34766.23633.55371.30859c.20605.07324.4209.10938.64355.10938.48975,0,.89307-.10938,1.21094-.32812.31738-.21875.55371-.53418.70801-.94629h1.09473c-.08594.36914-.22363.69336-.41211.97168-.18896.2793-.4165.51172-.68262.69531-.26611.18555-.5625.32422-.88867.41895s-.66943.1416-1.03027.1416c-.54883,0-1.00635-.08398-1.37109-.25098-.36523-.16797-.65479-.38184-.86914-.64355-.21484-.26172-.36523-.5498-.45068-.86328-.08594-.31348-.12891-.61621-.12891-.90723,0-.63574.09229-1.21777.27686-1.74512.18457-.52832.43359-.98047.74707-1.3584s.67773-.66992,1.09473-.87598c.41602-.20605.85156-.30859,1.30664-.30859.97852,0,1.69336.25684,2.14404.77246.45068.51465.67627,1.24023.67627,2.17578,0,.17188-.0127.33496-.03906.48926-.02539.1543-.04688.2793-.06445.37402h-5.00879c-.02588.18848-.03857.38184-.03857.5791Zm4.01123-2.23438c-.04736-.22754-.1333-.42871-.25781-.60547-.12402-.17578-.28955-.31738-.49561-.4248-.20605-.10645-.45947-.16016-.75977-.16016-.31787,0-.60303.04883-.85596.14746-.25391.09863-.47461.23438-.66357.40625-.18896.1709-.34766.37109-.47607.59863-.12891.22754-.23242.46973-.30957.72754h3.86328c.01709-.23242.00195-.46191-.04492-.68945Z" style="fill:#231f20;"/><path d="m112.68555,523.20349l-.20605,1.00391h.02588c.2749-.38574.62256-.67578,1.04297-.86914s.86279-.28906,1.32666-.28906c.62598,0,1.0918.13672,1.39697.41211.3042.27441.45703.70801.45703,1.2998,0,.14648-.01709.33496-.05127.56738-.03467.23145-.08203.47559-.1416.7334l-.81152,3.79883h-1.09473l.8501-3.88867c.0083-.06836.021-.14844.03857-.23828.01709-.08984.03418-.18457.05176-.2832.0166-.09863.03223-.19336.04492-.2832.0127-.09082.01953-.16504.01953-.22559,0-.31738-.1123-.55176-.33496-.70215-.22363-.14941-.49805-.22461-.82422-.22461-.30078,0-.59863.07227-.89502.21875-.29639.14551-.54736.33008-.75342.55371-.19727.17188-.35205.37988-.46338.62402-.11182.24512-.20166.5-.27051.7666l-.77246,3.68262h-1.08154l1.39062-6.65723h1.05566Z" style="fill:#231f20;"/><path d="m121.62207,523.20349l-.20605.96582h-1.32617l-.82422,3.91406c-.00879.07715-.01709.15039-.02539.21875-.00879.06934-.0127.14258-.0127.21973,0,.17188.06641.28906.19922.35352s.28516.09668.45703.09668c.11133,0,.21875-.01074.32227-.03223.10254-.02148.20605-.04883.30859-.08398l-.19287,1.00488c-.12842.01758-.25732.03223-.38623.04492s-.25781.01953-.38672.01953c-.20605,0-.39893-.01562-.5791-.04492-.18066-.03027-.33691-.08594-.46973-.16797-.13379-.08105-.24072-.19043-.32227-.32812-.08203-.13672-.12207-.31348-.12207-.52832,0-.09375.00586-.18359.01904-.26953s.02783-.18066.04541-.28418l.875-4.13281h-1.12012l.20605-.96582h1.12012l.41211-1.9707h1.09473l-.41211,1.9707h1.32617Z" style="fill:#231f20;"/><path d="m130.71338,520.66639c.88428,0,1.56006.21094,2.02783.63086.46826.4209.70215,1.05664.70215,1.90625,0,.2832-.05566.59473-.16748.93359s-.30225.6543-.57275.94629-.63086.53418-1.08203.72754c-.4502.19336-1.01514.29004-1.69336.29004h-2.72949l-.79883,3.75977h-1.22314l1.91846-9.19434h3.61865Zm-.52783,4.4043c.66943,0,1.17578-.17383,1.51953-.52148.34277-.34766.51465-.79688.51465-1.3457,0-.2832-.04053-.52148-.12207-.71484s-.19141-.34766-.32812-.46387c-.1377-.11523-.29639-.19922-.47656-.25098-.18066-.05176-.37354-.07715-.57959-.07715h-2.58838l-.70801,3.37402h2.76855Z" style="fill:#231f20;"/><path d="m136.39209,520.66639l-1.93115,9.19434h-1.08203l1.91895-9.19434h1.09424Z" style="fill:#231f20;"/><path d="m137.3125,524.25232c.17578-.26953.39258-.49512.65039-.67578.25781-.17969.54932-.31348.87549-.39941.32617-.08496.66553-.12793,1.01709-.12793.32617,0,.63574.02539.92773.07715.2915.05078.54883.1416.77246.27051.22266.12793.40137.30176.53418.52148.13281.21875.19971.49512.19971.83008,0,.18945-.02393.39258-.0708.61133-.04736.21973-.09277.41895-.13525.59961l-.42529,1.81543c-.02539.1377-.06201.29199-.10938.46387-.04688.17188-.07031.33398-.07031.48926,0,.1543.02979.26172.08984.32129.06006.06055.13721.09082.23193.09082.05127,0,.10938-.01074.17383-.03223.06396-.02148.12256-.04102.17383-.05859l-.16748.81152c-.08594.03418-.19531.06641-.32812.09668-.13379.03027-.24707.04492-.3418.04492-.30029,0-.52734-.08203-.68213-.24414-.15479-.16309-.21484-.39062-.18018-.68262l-.02588-.02637c-.23193.30957-.51953.5459-.86279.70898-.34375.16211-.79834.24414-1.36523.24414-.2832,0-.54688-.03223-.79199-.09668-.24414-.06445-.45703-.17188-.63672-.32227-.18066-.14941-.32422-.34277-.43164-.5791s-.16113-.52539-.16113-.86914c0-.48926.10547-.87109.31543-1.14551.21045-.27539.47852-.4834.80469-.625s.68701-.23828,1.08203-.29004c.39453-.05078.77686-.09375,1.146-.12891.2915-.02539.54248-.05273.75342-.08301.20996-.03027.38379-.0791.52148-.14844.13721-.06836.23828-.16699.30273-.2959s.09668-.30469.09668-.52832c0-.17969-.04346-.32617-.12891-.4375-.08594-.11133-.19336-.2002-.32227-.26367-.12891-.06445-.27246-.11035-.43115-.13574s-.31104-.03809-.45752-.03809c-.20605,0-.40967.02148-.61133.06348-.20215.04395-.38428.11426-.54736.21289s-.30029.22363-.41211.37305c-.11182.15039-.18457.33301-.21875.54785h-1.09473c.05127-.36914.16553-.68945.34131-.95996Zm.30908,4.56543c.24463.1543.52148.23145.83057.23145.86719,0,1.48926-.29102,1.86719-.875.18018-.24902.30273-.51953.36719-.81152s.13477-.59277.21191-.90137h-.02539c-.1543.11133-.34961.19141-.58594.23828s-.4873.08398-.75293.10938c-.2666.02539-.53467.05762-.80518.09668-.27051.03809-.51318.10059-.72754.18652s-.39062.20801-.52783.36719c-.1377.15918-.21094.37988-.21875.66309,0,.30859.12207.54102.3667.69531Z" style="fill:#231f20;"/><path d="m145.36719,523.20349l-.20605,1.00391h.02539c.2749-.38574.62256-.67578,1.04297-.86914.4209-.19336.86328-.28906,1.32666-.28906.62646,0,1.09229.13672,1.39697.41211.30469.27441.45703.70801.45703,1.2998,0,.14648-.01709.33496-.05127.56738-.03467.23145-.08154.47559-.1416.7334l-.81104,3.79883h-1.09473l.84961-3.88867c.00879-.06836.02148-.14844.03906-.23828.0166-.08984.03418-.18457.05127-.2832s.03223-.19336.04541-.2832c.0127-.09082.01904-.16504.01904-.22559,0-.31738-.11182-.55176-.33447-.70215-.22363-.14941-.49805-.22461-.82422-.22461-.30078,0-.59912.07227-.89551.21875-.2959.14551-.54688.33008-.75293.55371-.19775.17188-.35254.37988-.46387.62402-.11133.24512-.20166.5-.27051.7666l-.77246,3.68262h-1.08154l1.39062-6.65723h1.05615Z" style="fill:#231f20;"/><path d="m151.35498,527.43982c0,.25781.04736.4873.1416.68848.09424.20215.22314.37012.38623.50293s.34766.23633.55371.30859c.20605.07324.4209.10938.64355.10938.48975,0,.89307-.10938,1.21094-.32812.31738-.21875.55371-.53418.70801-.94629h1.09473c-.08594.36914-.22363.69336-.41211.97168-.18896.2793-.4165.51172-.68262.69531-.26611.18555-.5625.32422-.88867.41895s-.66943.1416-1.03027.1416c-.54883,0-1.00635-.08398-1.37109-.25098-.36523-.16797-.65479-.38184-.86914-.64355-.21484-.26172-.36523-.5498-.45068-.86328-.08594-.31348-.12891-.61621-.12891-.90723,0-.63574.09229-1.21777.27686-1.74512.18457-.52832.43359-.98047.74707-1.3584s.67773-.66992,1.09473-.87598c.41602-.20605.85156-.30859,1.30664-.30859.97852,0,1.69336.25684,2.14404.77246.45068.51465.67627,1.24023.67627,2.17578,0,.17188-.0127.33496-.03906.48926-.02539.1543-.04688.2793-.06445.37402h-5.00879c-.02588.18848-.03857.38184-.03857.5791Zm4.01123-2.23438c-.04736-.22754-.1333-.42871-.25781-.60547-.12402-.17578-.28955-.31738-.49561-.4248-.20605-.10645-.45947-.16016-.75977-.16016-.31787,0-.60303.04883-.85596.14746-.25391.09863-.47461.23438-.66357.40625-.18896.1709-.34766.37109-.47607.59863-.12891.22754-.23242.46973-.30957.72754h3.86328c.01709-.23242.00195-.46191-.04492-.68945Z" style="fill:#231f20;"/><path d="m467.68652,510.93592c-.09863-.24512-.24023-.44238-.4248-.59277-.18457-.14941-.41016-.25488-.67627-.31543-.26611-.05957-.55811-.08984-.87549-.08984-.22314,0-.45947.02832-.70801.08398-.24951.05566-.479.14355-.68896.26367-.21045.12012-.38428.27441-.52148.46387-.1377.18848-.20605.41992-.20605.69531,0,.22266.03857.41406.11572.57227.07715.15918.18213.29688.31543.41211.1333.11621.29199.21289.47656.29004s.37988.14648.58594.20605l1.23633.33496c.2832.07715.55762.17383.82373.29004.26611.11523.50244.26562.7085.4502s.37109.41895.49561.70215.18701.63086.18701,1.04297c0,.48047-.10986.89453-.32861,1.24219s-.5.63574-.84326.86328c-.34375.22754-.72754.39648-1.15283.50879-.4248.11133-.84326.16699-1.25537.16699-.54932,0-1.05566-.0625-1.51953-.18652-.46338-.125-.85645-.31543-1.17822-.57324s-.56641-.58984-.73389-.99805c-.16748-.40723-.22998-.89453-.18652-1.46191h1.22314c-.01758.41211.02979.75977.1416,1.04395.11133.2832.27686.51074.49561.68164.21924.17188.48291.29492.79199.36719.30908.07324.64795.10938,1.01758.10938.2832,0,.56396-.03418.84326-.10254.27881-.06836.52588-.17383.74023-.31543.21484-.1416.38867-.32422.52148-.54785.1333-.22266.19971-.48926.19971-.79785,0-.23242-.04297-.43164-.12842-.59863-.08594-.16797-.2041-.30957-.35449-.42578-.15039-.11523-.32422-.21191-.52148-.28906s-.40771-.14648-.63086-.20605l-1.24902-.33496c-.2749-.07715-.53662-.17773-.78564-.30273-.24902-.12402-.46777-.27832-.65674-.46387-.18896-.18457-.33936-.40332-.45068-.65625-.11182-.25293-.16748-.55176-.16748-.89453,0-.44629.09863-.83496.29639-1.16602.19727-.33008.45264-.60742.76611-.83008.31348-.22363.66943-.39062,1.06885-.50293.39893-.11133.80469-.16699,1.2168-.16699.45508,0,.88623.05762,1.29395.17383s.7666.29199,1.07568.52832.55127.53809.72754.90723c.17578.36914.25537.81152.23779,1.32617h-1.22314c.0083-.36035-.03662-.66309-.13525-.90723Z" style="fill:#231f20;"/><path d="m471.82666,511.66346l-.23193.95312h.02588c.32617-.42969.66309-.72168,1.01074-.87598s.74463-.23145,1.19092-.23145c.4292,0,.80518.06641,1.12695.19922s.59424.32031.81787.56055c.22314.24023.39014.52734.50195.8623.11133.33496.16748.7041.16748,1.10742,0,.50684-.0835,1.01074-.25098,1.5127-.16748.50293-.4082.95508-.72119,1.35938-.31348.40332-.69971.72949-1.15918.97852-.45898.24902-.98047.37305-1.56445.37305-.19775,0-.40576-.01758-.62451-.05176s-.4248-.09668-.61816-.18652c-.19287-.08984-.36475-.20996-.51514-.36035-.1499-.15039-.25537-.33691-.31543-.56055h-.02588l-.70801,3.55469h-1.06885l1.93164-9.19434h1.03027Zm3.10986,1.28711c-.27051-.31738-.70654-.47559-1.30713-.47559-.41211,0-.78125.10742-1.10742.32129-.32666.21484-.59863.48535-.81787.81152-.21875.32617-.38623.68262-.50195,1.06836-.11621.38672-.17383.75586-.17383,1.10742,0,.49805.14355.91016.43115,1.23633s.70166.48926,1.24268.48926c.43799,0,.81982-.10059,1.146-.30273.32617-.20117.60107-.46094.82422-.77832s.39062-.66992.50195-1.05664c.11182-.38574.16748-.76367.16748-1.13281,0-.54102-.13525-.96973-.40527-1.28809Z" style="fill:#231f20;"/><path d="m478.3418,515.89978c0,.25781.04736.4873.1416.68848.09473.20215.22314.37012.38672.50293.1626.13281.34766.23633.55371.30859.20605.07324.42041.10938.64355.10938.48926,0,.89307-.10938,1.21045-.32812s.55371-.53418.7085-.94629h1.09424c-.08594.36914-.22314.69336-.41211.97168-.18896.2793-.4165.51172-.68213.69531-.2666.18555-.5625.32422-.88867.41895s-.66943.1416-1.03027.1416c-.54932,0-1.00635-.08398-1.37109-.25098-.36523-.16797-.65479-.38184-.86963-.64355-.21436-.26172-.36475-.5498-.45068-.86328s-.12842-.61621-.12842-.90723c0-.63574.0918-1.21777.27686-1.74512.18457-.52832.43311-.98047.74658-1.3584s.67822-.66992,1.09473-.87598c.41602-.20605.85205-.30859,1.30713-.30859.97852,0,1.69336.25684,2.14404.77246.45068.51465.67578,1.24023.67578,2.17578,0,.17188-.0127.33496-.03857.48926s-.04736.2793-.06445.37402h-5.00928c-.02539.18848-.03857.38184-.03857.5791Zm4.01123-2.23438c-.04736-.22754-.1333-.42871-.25732-.60547-.12451-.17578-.29004-.31738-.49609-.4248-.20557-.10645-.45898-.16016-.75928-.16016-.31787,0-.60352.04883-.85645.14746-.25342.09863-.47461.23438-.66309.40625-.18896.1709-.34766.37109-.47656.59863s-.23193.46973-.30908.72754h3.86328c.01709-.23242.00195-.46191-.04541-.68945Z" style="fill:#231f20;"/><path d="m489.0166,512.8158c-.24902-.22754-.59229-.34082-1.03027-.34082-.42041,0-.79199.09375-1.11377.2832-.32178.18848-.59229.43359-.81104.7334-.21924.30078-.38428.6377-.49609,1.01074-.11133.37402-.16748.74121-.16748,1.10156,0,.25684.02783.50195.08398.7334.05566.23242.14795.43359.27686.60547s.29834.30957.50879.41211c.20996.10352.46973.1543.77881.1543.47217,0,.87549-.12402,1.21045-.37305s.57959-.5791.73389-.99121h1.09473c-.19775.75488-.55811,1.33008-1.08154,1.72461-.52393.39551-1.17627.59277-1.95752.59277-.91016,0-1.59473-.24902-2.05371-.74707-.45947-.49707-.68896-1.20117-.68896-2.11133,0-.53223.0791-1.04297.23828-1.53223.15869-.48926.39453-.92578.70801-1.30762s.69971-.68652,1.15918-.91406c.45898-.22754.98486-.34082,1.57715-.34082.75537,0,1.354.18164,1.79639.54688.44189.36523.67627.93848.70166,1.71875h-1.09424c0-.41211-.12451-.73145-.37354-.95898Z" style="fill:#231f20;"/><path d="m393.94206,546.5491c12.63619-13.10795,26.85964-26.37464,45.40741-29.82136,5.1789-.96239,10.50335-1.04008,15.68271-.04608.77167.1481,1.10221-1.03441.32623-1.18333-19.00538-3.64744-36.86836,6.45933-50.55915,18.71019-4.0767,3.64793-7.92961,7.53582-11.72494,11.47284-.54829.56876.31836,1.43763.86774.86774h0Z" style="fill:#231f20;"/><path d="m230.68457,45.3451c1.07373.5498,2.72363,1.10059,4.42529,1.10059,1.83301,0,2.80176-.75977,2.80176-1.91211,0-1.09961-.83789-1.72754-2.95898-2.4873-2.93262-1.02148-4.84424-2.64453-4.84424-5.21094,0-3.01074,2.51367-5.31543,6.67725-5.31543,1.98975,0,3.45654.41895,4.50342.89062l-.89014,3.2207c-.70654-.34082-1.96338-.83789-3.69189-.83789-1.72803,0-2.56592.78516-2.56592,1.70215,0,1.12598.99463,1.62305,3.27295,2.4873,3.11621,1.15234,4.58203,2.77539,4.58203,5.2627,0,2.95898-2.27783,5.47266-7.12207,5.47266-2.01611,0-4.00586-.52344-5.00098-1.07324l.81152-3.2998Z"/><path d="m247.80615,44.32459c.13086,1.64941,1.75439,2.43457,3.61328,2.43457,1.36182,0,2.46143-.18262,3.53467-.52344l.52393,2.69727c-1.30908.52344-2.90674.78516-4.63477.78516-4.34619,0-6.83398-2.51367-6.83398-6.51953,0-3.24707,2.01611-6.83398,6.46729-6.83398,4.13721,0,5.7085,3.2207,5.7085,6.38867,0,.68066-.07861,1.2832-.13086,1.57129h-8.24805Zm4.68701-2.72363c0-.96875-.41895-2.5918-2.25195-2.5918-1.67578,0-2.35645,1.51855-2.46143,2.5918h4.71338Z"/><path d="m258.56543,40.86756c0-1.88477-.05225-3.11523-.10449-4.21484h3.42969l.13135,2.35645h.10449c.65479-1.85938,2.22559-2.64453,3.45654-2.64453.36621,0,.5498,0,.83789.05176v3.74512c-.28809-.05273-.62842-.10547-1.07373-.10547-1.46631,0-2.46143.78613-2.72314,2.0166-.05225.26172-.07861.57617-.07861.89062v6.49316h-3.97998v-8.58887Z"/><path d="m271.94287,36.65271l1.72803,5.94336c.31445,1.07324.5498,2.09473.7334,3.11621h.07812c.20947-1.04785.41895-2.0166.70703-3.11621l1.6499-5.94336h4.18945l-4.76562,12.80371h-3.97998l-4.66064-12.80371h4.32031Z"/><path d="m286.96973,33.09119c0,1.09961-.83789,1.99023-2.14697,1.99023-1.25684,0-2.09473-.89062-2.06836-1.99023-.02637-1.15234.81152-2.01562,2.09473-2.01562,1.28271,0,2.09473.86328,2.12061,2.01562Zm-4.11084,16.36523v-12.80371h3.97998v12.80371h-3.97998Z"/><path d="m299.6416,49.14197c-.70703.31445-2.04248.57617-3.56152.57617-4.13672,0-6.78125-2.51367-6.78125-6.5459,0-3.74414,2.56592-6.80762,7.33154-6.80762,1.04736,0,2.19922.18262,3.03711.49707l-.62842,2.95898c-.47119-.20898-1.17822-.39258-2.22559-.39258-2.09473,0-3.45605,1.49219-3.43018,3.58691,0,2.35645,1.57129,3.58691,3.50879,3.58691.94238,0,1.67578-.15625,2.27783-.39258l.47168,2.93262Z"/><path d="m304.61426,44.32459c.13086,1.64941,1.75439,2.43457,3.61328,2.43457,1.36182,0,2.46143-.18262,3.53516-.52344l.52344,2.69727c-1.30908.52344-2.90625.78516-4.63428.78516-4.34668,0-6.83398-2.51367-6.83398-6.51953,0-3.24707,2.01611-6.83398,6.46729-6.83398,4.13721,0,5.70801,3.2207,5.70801,6.38867,0,.68066-.07861,1.2832-.13086,1.57129h-8.24805Zm4.68701-2.72363c0-.96875-.41895-2.5918-2.25195-2.5918-1.67578,0-2.35645,1.51855-2.46094,2.5918h4.71289Z"/></svg>