<?xml version="1.0" encoding="UTF-8"?><svg id="Layer_1" xmlns="http://www.w3.org/2000/svg" viewBox="0 0 532 618.27027"><rect x="139.17183" y="272.07257" width="262.61376" height="130.07971" style="fill:none; stroke:#000; stroke-miterlimit:10; stroke-width:2.86339px;"/><rect x="54.06932" y="65.70397" width="424.27416" height="424.27416" style="fill:none; stroke:#000; stroke-miterlimit:10; stroke-width:1.63622px;"/><rect x="445.81471" y="50.55708" width="61.7301" height="30.14726" rx="11.48467" ry="11.48467" style="fill:#c1c1c1;"/><path d="m465.56348,62.03162c-.03418.60254-.06934,1.27441-.06934,2.29102v4.84082c0,1.91211-.37891,3.08398-1.18848,3.80762-.80957.75781-1.98145.99902-3.03223.99902-.99902,0-2.10156-.24121-2.77344-.68945l.37891-1.1543c.55176.34473,1.41309.65527,2.44629.65527,1.55078,0,2.6875-.80957,2.6875-2.91211v-.92969h-.03418c-.46484.77539-1.36133,1.39551-2.65332,1.39551-2.06738,0-3.54883-1.75781-3.54883-4.06543,0-2.82617,1.84375-4.42773,3.75586-4.42773,1.44727,0,2.23926.75781,2.60156,1.44727h.03418l.06934-1.25781h1.32617Zm-1.56738,3.29004c0-.25781-.01758-.48242-.08691-.68848-.27539-.87891-1.01562-1.60254-2.11816-1.60254-1.44727,0-2.48145,1.22363-2.48145,3.15234,0,1.63672.82715,2.99805,2.46387,2.99805.93066,0,1.77441-.58594,2.10156-1.55078.08594-.25781.12109-.55078.12109-.80957v-1.49902Z"/><path d="m468.06152,58.91346c.75781-.15527,1.84277-.24121,2.87695-.24121,1.60156,0,2.63574.29297,3.35938.94727.58496.5166.91309,1.30957.91309,2.20508,0,1.5332-.96484,2.5498-2.18848,2.96289v.05176c.89551.31055,1.42969,1.1377,1.70605,2.34277.37891,1.62012.6543,2.73926.89551,3.1875h-1.55078c-.18945-.32715-.44727-1.32617-.77539-2.77344-.34375-1.60254-.96387-2.20508-2.3252-2.25684h-1.41309v5.03027h-1.49805v-11.45605Zm1.49805,5.28906h1.5332c1.60254,0,2.61914-.87891,2.61914-2.20508,0-1.49902-1.08594-2.15332-2.66992-2.1709-.72363,0-1.24121.06836-1.48242.1377v4.23828Z"/><path d="m477.3291,58.89588c.72363-.12012,1.6709-.22363,2.87695-.22363,1.48145,0,2.56641.34473,3.25586.96484.63672.55078,1.0166,1.39551,1.0166,2.42871,0,1.05078-.31055,1.87793-.89648,2.48047-.79199.84473-2.08398,1.27539-3.54883,1.27539-.44727,0-.86133-.01758-1.20605-.10352v4.65137h-1.49805v-11.47363Zm1.49805,5.59961c.32812.08594.74121.12012,1.24121.12012,1.80859,0,2.91113-.87891,2.91113-2.48047,0-1.5332-1.08594-2.27441-2.73926-2.27441-.6543,0-1.1543.05176-1.41309.12109v4.51367Z"/><path d="m494.60742,69.9906c-.55078.27539-1.65332.55078-3.06641.55078-3.27246,0-5.73633-2.06641-5.73633-5.87402,0-3.63477,2.46387-6.09863,6.06445-6.09863,1.44629,0,2.35938.31055,2.75586.5166l-.36133,1.22363c-.56934-.27539-1.37891-.48242-2.34375-.48242-2.72168,0-4.53027,1.74023-4.53027,4.78906,0,2.84277,1.63672,4.66895,4.46191,4.66895.91309,0,1.84277-.18945,2.44629-.48242l.30957,1.18848Z"/><rect x="23.00001" y="50.50762" width="61.7301" height="30.14726" rx="11.48467" ry="11.48467" style="fill:#c1c1c1;"/><path d="m37.11426,58.70838v4.8584h5.61621v-4.8584h1.5166v11.61133h-1.5166v-5.44336h-5.61621v5.44336h-1.49805v-11.61133h1.49805Z"/><path d="m49.05273,59.98377h-3.53223v-1.27539h8.59668v1.27539h-3.54883v10.33594h-1.51562v-10.33594Z"/><path d="m58.26855,59.98377h-3.53223v-1.27539h8.59668v1.27539h-3.54883v10.33594h-1.51562v-10.33594Z"/><path d="m64.625,58.84607c.72363-.12012,1.6709-.22363,2.87695-.22363,1.48145,0,2.56641.34473,3.25586.96484.63672.55078,1.0166,1.39551,1.0166,2.42871,0,1.05078-.31055,1.87793-.89648,2.48047-.79199.84473-2.08398,1.27539-3.54883,1.27539-.44727,0-.86133-.01758-1.20605-.10352v4.65137h-1.49805v-11.47363Zm1.49805,5.59961c.32812.08594.74121.12012,1.24121.12012,1.80859,0,2.91113-.87891,2.91113-2.48047,0-1.5332-1.08594-2.27441-2.73926-2.27441-.6543,0-1.1543.05176-1.41309.12109v4.51367Z"/><rect x="25.23007" y="477.54934" width="61.7301" height="30.14726" rx="11.48467" ry="11.48467" style="fill:#c1c1c1;"/><path d="m42.42285,491.91834h-4.51367v4.18555h5.03027v1.25781h-6.52832v-11.61133h6.27051v1.25781h-4.77246v3.66895h4.51367v1.24121Z"/><path d="m45.30078,489.02381l1.63574,4.68555c.27637.75781.5,1.44727.67188,2.13672h.05176c.18945-.68945.43066-1.37891.70703-2.13672l1.61914-4.68555h1.58496l-3.27344,8.33789h-1.44727l-3.16992-8.33789h1.62012Z"/><path d="m53.67188,493.46814c.03418,2.0498,1.34375,2.89453,2.85938,2.89453,1.08594,0,1.74023-.18945,2.30859-.43066l.25879,1.08496c-.53418.24121-1.44727.5166-2.77344.5166-2.56738,0-4.10059-1.6875-4.10059-4.20312,0-2.51465,1.48145-4.49609,3.91113-4.49609,2.72168,0,3.44531,2.39453,3.44531,3.92773,0,.30957-.03418.55078-.05176.70605h-5.85742Zm4.44434-1.08496c.01758-.96484-.39551-2.46387-2.10156-2.46387-1.5332,0-2.20508,1.41309-2.3252,2.46387h4.42676Z"/><path d="m61.45898,491.28064c0-.86133-.01758-1.56738-.06934-2.25684h1.34375l.08594,1.37793h.03516c.41309-.79199,1.37793-1.56738,2.75586-1.56738,1.1543,0,2.94629.68945,2.94629,3.54883v4.97852h-1.5166v-4.80664c0-1.34375-.49902-2.46289-1.92871-2.46289-1,0-1.77441.70605-2.0332,1.5498-.06934.18945-.10352.44824-.10352.70703v5.0127h-1.51562v-6.08105Z"/><path d="m72.77734,486.62928v2.39453h2.16992v1.1543h-2.16992v4.49609c0,1.0332.29297,1.61914,1.13672,1.61914.39648,0,.68945-.05176.87891-.10352l.06836,1.1377c-.29297.12012-.75781.20605-1.34375.20605-.70605,0-1.27441-.22363-1.63672-.63672-.43066-.44824-.58496-1.18945-.58496-2.1709v-4.54785h-1.29199v-1.1543h1.29199v-1.99805l1.48145-.39648Z"/><path d="m147.75098,257.56678h-3.75v3.47754h4.17969v1.04492h-5.4248v-9.64648h5.20996v1.04492h-3.96484v3.04785h3.75v1.03125Z"/><path d="m149.75684,257.0365c0-.71484-.01465-1.30176-.05762-1.875h1.11621l.07227,1.14551h.02832c.34375-.6582,1.14551-1.30273,2.29004-1.30273.95898,0,2.44727.57227,2.44727,2.94824v4.13672h-1.25879v-3.99316c0-1.11621-.41602-2.04688-1.60352-2.04688-.83008,0-1.47461.58691-1.68848,1.28809-.05762.15723-.08594.37207-.08594.58691v4.16504h-1.25977v-5.05273Z"/><path d="m159.16211,253.17224v1.98926h1.80371v.95898h-1.80371v3.73633c0,.8584.24414,1.34473.94531,1.34473.3291,0,.57227-.04297.72949-.08594l.05762.94531c-.24316.09961-.62988.17188-1.11621.17188-.58691,0-1.05957-.18652-1.36035-.53027-.35742-.37207-.48633-.9873-.48633-1.80273v-3.7793h-1.07324v-.95898h1.07324v-1.66016l1.23047-.3291Z"/><path d="m163.78711,253.21521c.01465.42969-.30078.77344-.80176.77344-.44336,0-.75781-.34375-.75781-.77344,0-.44336.3291-.78711.78711-.78711.47168,0,.77246.34375.77246.78711Zm-1.40234,8.87402v-6.92773h1.25977v6.92773h-1.25977Z"/><path d="m167.25098,253.17224v1.98926h1.80371v.95898h-1.80371v3.73633c0,.8584.24414,1.34473.94531,1.34473.3291,0,.57227-.04297.72949-.08594l.05762.94531c-.24316.09961-.62988.17188-1.11621.17188-.58691,0-1.05957-.18652-1.36035-.53027-.35742-.37207-.48633-.9873-.48633-1.80273v-3.7793h-1.07324v-.95898h1.07324v-1.66016l1.23047-.3291Z"/><path d="m171.06055,255.1615l1.5166,4.09375c.1582.45801.33008,1.00195.44434,1.41699h.02832c.12891-.41504.27246-.94434.44336-1.44531l1.37402-4.06543h1.33203l-1.88965,4.93848c-.90137,2.37598-1.51758,3.5918-2.37598,4.33691-.61523.54395-1.23047.75781-1.5459.81543l-.31445-1.05957c.31445-.09961.72949-.2998,1.10156-.61523.34375-.27148.77344-.75879,1.05957-1.40234.05664-.12891.09961-.22949.09961-.30078s-.02832-.17188-.08594-.3291l-2.56152-6.38379h1.37402Z"/><path d="m180.42383,252.57166c.75879-.11523,1.66016-.20117,2.64746-.20117,1.78906,0,3.06348.41504,3.90723,1.20312.85938.78711,1.36035,1.90332,1.36035,3.46289,0,1.5752-.4873,2.86328-1.38867,3.75-.90137.90234-2.38965,1.38867-4.26465,1.38867-.8877,0-1.63184-.04297-2.26172-.11426v-9.48926Zm1.24512,8.53027c.31445.05664.77246.07129,1.25977.07129,2.66211,0,4.10742-1.48828,4.10742-4.09375.01465-2.27539-1.27344-3.7207-3.90723-3.7207-.64453,0-1.13086.05664-1.45996.12891v7.61426Z"/><path d="m196.24219,258.56873c0,2.56152-1.77441,3.67773-3.44922,3.67773-1.875,0-3.32031-1.37402-3.32031-3.56348,0-2.31934,1.51758-3.67871,3.43457-3.67871,1.99023,0,3.33496,1.44531,3.33496,3.56445Zm-5.49609.07129c0,1.5166.87305,2.66211,2.10449,2.66211,1.20215,0,2.10352-1.13086,2.10352-2.69043,0-1.17383-.58691-2.66309-2.0752-2.66309s-2.13281,1.37402-2.13281,2.69141Z"/><path d="m197.83398,257.0365c0-.71484-.01465-1.30176-.05762-1.875h1.10254l.05664,1.11719h.04297c.38672-.65918,1.03125-1.27441,2.17578-1.27441.94434,0,1.66016.57227,1.96094,1.38867h.02832c.21484-.38672.4873-.6875.77344-.90234.41504-.31445.87305-.48633,1.53125-.48633.91602,0,2.27539.60156,2.27539,3.00586v4.0791h-1.23047v-3.92188c0-1.33105-.48633-2.13281-1.50293-2.13281-.71582,0-1.27344.53027-1.48828,1.14551-.05762.17188-.10059.40039-.10059.62988v4.2793h-1.23047v-4.15039c0-1.10254-.4873-1.9043-1.44629-1.9043-.78711,0-1.35938.62988-1.55957,1.25977-.07129.18652-.10059.40137-.10059.61523v4.17969h-1.23047v-5.05273Z"/><path d="m213.61035,262.08924l-.10059-.87305h-.04297c-.38672.54395-1.13086,1.03027-2.11816,1.03027-1.40234,0-2.11816-.9873-2.11816-1.98926,0-1.6748,1.48828-2.59082,4.16504-2.57617v-.14355c0-.57227-.15723-1.60254-1.57422-1.60254-.64453,0-1.31738.2002-1.80371.51465l-.28613-.83008c.57227-.37207,1.40234-.61523,2.27539-.61523,2.11816,0,2.63379,1.44531,2.63379,2.83398v2.59082c0,.60059.02832,1.1875.11426,1.66016h-1.14453Zm-.18652-3.53516c-1.37402-.02832-2.93359.21484-2.93359,1.55957,0,.81641.54395,1.20312,1.1875,1.20312.90234,0,1.47461-.57324,1.6748-1.16016.04297-.12891.07129-.27148.07129-.40039v-1.20215Z"/><path d="m218.07715,253.21521c.01465.42969-.30078.77344-.80176.77344-.44336,0-.75781-.34375-.75781-.77344,0-.44336.3291-.78711.78711-.78711.47168,0,.77246.34375.77246.78711Zm-1.40234,8.87402v-6.92773h1.25977v6.92773h-1.25977Z"/><path d="m220.02441,257.0365c0-.71484-.01465-1.30176-.05762-1.875h1.11621l.07227,1.14551h.02832c.34375-.6582,1.14551-1.30273,2.29004-1.30273.95898,0,2.44727.57227,2.44727,2.94824v4.13672h-1.25879v-3.99316c0-1.11621-.41602-2.04688-1.60352-2.04688-.83008,0-1.47461.58691-1.68848,1.28809-.05762.15723-.08594.37207-.08594.58691v4.16504h-1.25977v-5.05273Z"/><path d="m232.29395,252.44275v9.64648h-1.24512v-9.64648h1.24512Z"/><path d="m234.57031,257.0365c0-.71484-.01465-1.30176-.05762-1.875h1.11621l.07227,1.14551h.02832c.34375-.6582,1.14551-1.30273,2.29004-1.30273.95898,0,2.44727.57227,2.44727,2.94824v4.13672h-1.25879v-3.99316c0-1.11621-.41504-2.04688-1.60352-2.04688-.83008,0-1.47461.58691-1.68848,1.28809-.05762.15723-.08594.37207-.08594.58691v4.16504h-1.25977v-5.05273Z"/><path d="m242.81641,255.1615l1.36035,3.89355c.22852.62988.41504,1.20215.55762,1.77441h.04297c.15723-.57227.3584-1.14453.58691-1.77441l1.3457-3.89355h1.31641l-2.71973,6.92773h-1.20215l-2.63281-6.92773h1.34473Z"/><path d="m252.99512,262.08924l-.10059-.87305h-.04297c-.38672.54395-1.13086,1.03027-2.11816,1.03027-1.40234,0-2.11816-.9873-2.11816-1.98926,0-1.6748,1.48828-2.59082,4.16504-2.57617v-.14355c0-.57227-.15723-1.60254-1.57422-1.60254-.64453,0-1.31738.2002-1.80371.51465l-.28613-.83008c.57227-.37207,1.40234-.61523,2.27539-.61523,2.11816,0,2.63379,1.44531,2.63379,2.83398v2.59082c0,.60059.02832,1.1875.11426,1.66016h-1.14453Zm-.18652-3.53516c-1.37402-.02832-2.93359.21484-2.93359,1.55957,0,.81641.54395,1.20312,1.1875,1.20312.90234,0,1.47461-.57324,1.6748-1.16016.04297-.12891.07129-.27148.07129-.40039v-1.20215Z"/><path d="m256.05957,257.32264c0-.81543-.01465-1.5166-.05762-2.16113h1.10254l.04297,1.36035h.05664c.31543-.93066,1.07422-1.51758,1.91797-1.51758.14355,0,.24316.01465.3584.04297v1.18848c-.12891-.0293-.25781-.04297-.42969-.04297-.8877,0-1.51758.67188-1.68848,1.61719-.0293.17188-.05762.37207-.05762.58691v3.69238h-1.24512v-4.7666Z"/><path d="m262.20117,253.21521c.01465.42969-.30078.77344-.80176.77344-.44336,0-.75781-.34375-.75781-.77344,0-.44336.3291-.78711.78711-.78711.47168,0,.77246.34375.77246.78711Zm-1.40234,8.87402v-6.92773h1.25977v6.92773h-1.25977Z"/><path d="m267.98438,262.08924l-.10059-.87305h-.04297c-.38574.54395-1.13086,1.03027-2.11816,1.03027-1.40234,0-2.11816-.9873-2.11816-1.98926,0-1.6748,1.48828-2.59082,4.16504-2.57617v-.14355c0-.57227-.15723-1.60254-1.57422-1.60254-.64453,0-1.31738.2002-1.80371.51465l-.28613-.83008c.57227-.37207,1.40234-.61523,2.27539-.61523,2.11816,0,2.63379,1.44531,2.63379,2.83398v2.59082c0,.60059.02832,1.1875.11426,1.66016h-1.14453Zm-.18652-3.53516c-1.37402-.02832-2.93359.21484-2.93359,1.55957,0,.81641.54395,1.20312,1.1875,1.20312.90234,0,1.47461-.57324,1.6748-1.16016.04297-.12891.07129-.27148.07129-.40039v-1.20215Z"/><path d="m271.04883,257.0365c0-.71484-.01465-1.30176-.05762-1.875h1.11621l.07227,1.14551h.02832c.34375-.6582,1.14551-1.30273,2.29004-1.30273.95898,0,2.44727.57227,2.44727,2.94824v4.13672h-1.25879v-3.99316c0-1.11621-.41504-2.04688-1.60352-2.04688-.83008,0-1.47461.58691-1.68848,1.28809-.05762.15723-.08594.37207-.08594.58691v4.16504h-1.25977v-5.05273Z"/><path d="m280.45312,253.17224v1.98926h1.80371v.95898h-1.80371v3.73633c0,.8584.24414,1.34473.94531,1.34473.3291,0,.57227-.04297.72949-.08594l.05762.94531c-.24316.09961-.62988.17188-1.11621.17188-.58691,0-1.05957-.18652-1.36035-.53027-.35742-.37207-.48633-.9873-.48633-1.80273v-3.7793h-1.07324v-.95898h1.07324v-1.66016l1.23047-.3291Z"/><path d="m288.35742,262.08924l-3.14844-9.64648h1.34473l1.50293,4.75195c.41504,1.30176.77344,2.47559,1.03027,3.60645h.0293c.27148-1.11621.67285-2.33301,1.10156-3.59277l1.63184-4.76562h1.33105l-3.44922,9.64648h-1.37402Z"/><path d="m297.54883,262.08924l-.10059-.87305h-.04297c-.38574.54395-1.13086,1.03027-2.11816,1.03027-1.40234,0-2.11816-.9873-2.11816-1.98926,0-1.6748,1.48828-2.59082,4.16504-2.57617v-.14355c0-.57227-.15723-1.60254-1.57422-1.60254-.64453,0-1.31738.2002-1.80371.51465l-.28613-.83008c.57227-.37207,1.40234-.61523,2.27539-.61523,2.11816,0,2.63379,1.44531,2.63379,2.83398v2.59082c0,.60059.02832,1.1875.11426,1.66016h-1.14453Zm-.18652-3.53516c-1.37402-.02832-2.93359.21484-2.93359,1.55957,0,.81641.54395,1.20312,1.1875,1.20312.90234,0,1.47461-.57324,1.6748-1.16016.04297-.12891.07129-.27148.07129-.40039v-1.20215Z"/><path d="m300.61328,251.92713h1.25977v10.16211h-1.25977v-10.16211Z"/><path d="m305.39453,253.21521c.01465.42969-.30078.77344-.80176.77344-.44336,0-.75781-.34375-.75781-.77344,0-.44336.3291-.78711.78711-.78711.47168,0,.77246.34375.77246.78711Zm-1.40234,8.87402v-6.92773h1.25977v6.92773h-1.25977Z"/><path d="m313.32422,251.92713v8.37305c0,.61523.01465,1.31641.05762,1.78906h-1.13086l-.05762-1.20215h-.02832c-.38672.77246-1.23047,1.35938-2.36133,1.35938-1.6748,0-2.96289-1.41699-2.96289-3.52051-.01465-2.30469,1.41699-3.72168,3.10547-3.72168,1.05957,0,1.77539.50098,2.08984,1.05957h.02832v-4.13672h1.25977Zm-1.25977,6.05469c0-.1582-.01367-.37207-.05664-.53027-.18652-.80078-.87305-1.45996-1.81836-1.45996-1.30176,0-2.0752,1.14551-2.0752,2.67676,0,1.40234.6875,2.5625,2.04688,2.5625.84473,0,1.61719-.55859,1.84668-1.50293.04297-.17188.05664-.34375.05664-.54395v-1.20215Z"/><path d="m319.25195,262.08924l-.10059-.87305h-.04297c-.38574.54395-1.13086,1.03027-2.11816,1.03027-1.40234,0-2.11816-.9873-2.11816-1.98926,0-1.6748,1.48828-2.59082,4.16504-2.57617v-.14355c0-.57227-.15723-1.60254-1.57422-1.60254-.64453,0-1.31738.2002-1.80371.51465l-.28613-.83008c.57227-.37207,1.40234-.61523,2.27539-.61523,2.11816,0,2.63379,1.44531,2.63379,2.83398v2.59082c0,.60059.02832,1.1875.11426,1.66016h-1.14453Zm-.18652-3.53516c-1.37402-.02832-2.93359.21484-2.93359,1.55957,0,.81641.54395,1.20312,1.1875,1.20312.90234,0,1.47461-.57324,1.6748-1.16016.04297-.12891.07129-.27148.07129-.40039v-1.20215Z"/><path d="m323.77539,253.17224v1.98926h1.80371v.95898h-1.80371v3.73633c0,.8584.24414,1.34473.94531,1.34473.3291,0,.57227-.04297.72949-.08594l.05762.94531c-.24316.09961-.62988.17188-1.11621.17188-.58691,0-1.05957-.18652-1.36035-.53027-.35742-.37207-.48633-.9873-.48633-1.80273v-3.7793h-1.07324v-.95898h1.07324v-1.66016l1.23047-.3291Z"/><path d="m328.40039,253.21521c.01465.42969-.30078.77344-.80176.77344-.44336,0-.75781-.34375-.75781-.77344,0-.44336.3291-.78711.78711-.78711.47168,0,.77246.34375.77246.78711Zm-1.40234,8.87402v-6.92773h1.25977v6.92773h-1.25977Z"/><path d="m336.61621,258.56873c0,2.56152-1.77441,3.67773-3.44922,3.67773-1.875,0-3.32031-1.37402-3.32031-3.56348,0-2.31934,1.5166-3.67871,3.43457-3.67871,1.99023,0,3.33496,1.44531,3.33496,3.56445Zm-5.49609.07129c0,1.5166.87305,2.66211,2.10449,2.66211,1.20215,0,2.10352-1.13086,2.10352-2.69043,0-1.17383-.58691-2.66309-2.0752-2.66309s-2.13281,1.37402-2.13281,2.69141Z"/><path d="m338.20801,257.0365c0-.71484-.01465-1.30176-.05762-1.875h1.11621l.07227,1.14551h.02832c.34375-.6582,1.14551-1.30273,2.29004-1.30273.95898,0,2.44727.57227,2.44727,2.94824v4.13672h-1.25879v-3.99316c0-1.11621-.41602-2.04688-1.60352-2.04688-.83008,0-1.47461.58691-1.68848,1.28809-.05762.15723-.08594.37207-.08594.58691v4.16504h-1.25977v-5.05273Z"/><path d="m355.27148,262.08924c-.27246-.27148-.5293-.54395-.90234-.94434-.83008.77246-1.75977,1.10156-2.81934,1.10156-1.875,0-2.96289-1.25977-2.96289-2.70508,0-1.31641.78711-2.21875,1.88965-2.81934v-.04297c-.50098-.62988-.80176-1.33105-.80176-2.01855,0-1.17285.84473-2.37598,2.44727-2.37598,1.20312,0,2.13281.80176,2.13281,2.04688,0,1.0166-.58691,1.81836-2.11816,2.57617v.04297c.81641.94531,1.73242,2.00391,2.34766,2.69141.44336-.67285.74414-1.60352.92969-2.81934h1.14551c-.25781,1.5166-.67285,2.71875-1.38867,3.56348.51562.54395,1.0166,1.08789,1.58887,1.70312h-1.48828Zm-1.51758-1.66016c-.57227-.62988-1.64551-1.80371-2.71875-3.03418-.51562.3291-1.24609.94434-1.24609,1.96094,0,1.10156.81641,1.94629,1.97559,1.94629.83008,0,1.53125-.37207,1.98926-.87305Zm-2.93359-5.88281c0,.6875.31445,1.2168.72949,1.73242.97363-.55859,1.60352-1.07422,1.60352-1.88965,0-.58691-.3291-1.24512-1.11621-1.24512-.80176,0-1.2168.6582-1.2168,1.40234Z"/><path d="m362.17383,252.44275v4.03613h4.66602v-4.03613h1.25977v9.64648h-1.25977v-4.52246h-4.66602v4.52246h-1.24512v-9.64648h1.24512Z"/><path d="m374.05664,262.08924l-.10059-.87305h-.04297c-.38574.54395-1.13086,1.03027-2.11816,1.03027-1.40234,0-2.11816-.9873-2.11816-1.98926,0-1.6748,1.48828-2.59082,4.16504-2.57617v-.14355c0-.57227-.15723-1.60254-1.57422-1.60254-.64453,0-1.31738.2002-1.80371.51465l-.28613-.83008c.57227-.37207,1.40234-.61523,2.27539-.61523,2.11816,0,2.63379,1.44531,2.63379,2.83398v2.59082c0,.60059.02832,1.1875.11426,1.66016h-1.14453Zm-.18652-3.53516c-1.37402-.02832-2.93359.21484-2.93359,1.55957,0,.81641.54395,1.20312,1.1875,1.20312.90234,0,1.47461-.57324,1.6748-1.16016.04297-.12891.07129-.27148.07129-.40039v-1.20215Z"/><path d="m377.12109,257.0365c0-.71484-.01465-1.30176-.05762-1.875h1.11621l.07227,1.14551h.02832c.34375-.6582,1.14551-1.30273,2.29004-1.30273.95898,0,2.44727.57227,2.44727,2.94824v4.13672h-1.25879v-3.99316c0-1.11621-.41504-2.04688-1.60352-2.04688-.83008,0-1.47461.58691-1.68848,1.28809-.05762.15723-.08594.37207-.08594.58691v4.16504h-1.25977v-5.05273Z"/><path d="m391.0498,251.92713v8.37305c0,.61523.01465,1.31641.05762,1.78906h-1.13086l-.05762-1.20215h-.02832c-.38672.77246-1.23047,1.35938-2.36133,1.35938-1.6748,0-2.96289-1.41699-2.96289-3.52051-.01465-2.30469,1.41699-3.72168,3.10547-3.72168,1.05957,0,1.77539.50098,2.08984,1.05957h.02832v-4.13672h1.25977Zm-1.25977,6.05469c0-.1582-.01367-.37207-.05664-.53027-.18652-.80078-.87305-1.45996-1.81738-1.45996-1.30273,0-2.07617,1.14551-2.07617,2.67676,0,1.40234.6875,2.5625,2.04688,2.5625.84473,0,1.61719-.55859,1.84668-1.50293.04297-.17188.05664-.34375.05664-.54395v-1.20215Z"/><path d="m393.1416,251.92713h1.25977v10.16211h-1.25977v-10.16211Z"/><path d="m397.22168,258.85486c.02832,1.70312,1.11621,2.4043,2.37598,2.4043.90137,0,1.44531-.15723,1.91797-.35742l.21484.90137c-.44434.2002-1.20215.42969-2.30469.42969-2.13281,0-3.40625-1.40332-3.40625-3.49316,0-2.08887,1.23047-3.73535,3.24902-3.73535,2.26172,0,2.8623,1.98926,2.8623,3.26367,0,.25781-.02832.45801-.04297.58691h-4.86621Zm3.69238-.90234c.01465-.80078-.3291-2.0459-1.74609-2.0459-1.27344,0-1.83203,1.17285-1.93164,2.0459h3.67773Z"/><path d="m403.69336,257.32264c0-.81543-.01465-1.5166-.05762-2.16113h1.10254l.04297,1.36035h.05664c.31543-.93066,1.07422-1.51758,1.91797-1.51758.14355,0,.24414.01465.3584.04297v1.18848c-.12891-.0293-.25781-.04297-.42969-.04297-.8877,0-1.5166.67188-1.68848,1.61719-.0293.17188-.05762.37207-.05762.58691v3.69238h-1.24512v-4.7666Z"/><path d="m408.20312,260.80115c.37207.24316,1.03027.50098,1.66016.50098.91602,0,1.3457-.45801,1.3457-1.03027,0-.60156-.3584-.93066-1.28809-1.27441-1.24512-.44336-1.83203-1.13086-1.83203-1.96094,0-1.11621.90137-2.03223,2.38965-2.03223.70215,0,1.31738.2002,1.70312.42969l-.31445.91602c-.27148-.17188-.77246-.40137-1.41699-.40137-.74414,0-1.15918.42969-1.15918.94531,0,.57227.41504.83008,1.31641,1.17383,1.20215.45801,1.81836,1.05859,1.81836,2.08887,0,1.2168-.94531,2.07617-2.59082,2.07617-.75879,0-1.45996-.18652-1.94629-.47266l.31445-.95898Z"/><rect x="52.08532" y="536.51786" width="424.55745" height="43.12291" style="fill:none; stroke:#231f20; stroke-miterlimit:10; stroke-width:1.20476px;"/><line x1="78.61296" y1="536.51786" x2="78.61296" y2="579.64077" style="fill:none; stroke:#231f20; stroke-miterlimit:10; stroke-width:1.20476px;"/><line x1="103.41057" y1="536.51786" x2="103.41057" y2="579.64077" style="fill:none; stroke:#231f20; stroke-miterlimit:10; stroke-width:1.20476px;"/><line x1="128.20819" y1="536.51786" x2="128.20819" y2="579.64077" style="fill:none; stroke:#231f20; stroke-miterlimit:10; stroke-width:1.20476px;"/><line x1="153.00581" y1="536.51786" x2="153.00581" y2="579.64077" style="fill:none; stroke:#231f20; stroke-miterlimit:10; stroke-width:1.20476px;"/><line x1="177.80343" y1="536.51786" x2="177.80343" y2="579.64077" style="fill:none; stroke:#231f20; stroke-miterlimit:10; stroke-width:1.20476px;"/><line x1="202.60105" y1="536.51786" x2="202.60105" y2="579.64077" style="fill:none; stroke:#231f20; stroke-miterlimit:10; stroke-width:1.20476px;"/><line x1="227.39867" y1="536.51786" x2="227.39867" y2="579.64077" style="fill:none; stroke:#231f20; stroke-miterlimit:10; stroke-width:1.20476px;"/><line x1="252.19629" y1="536.51786" x2="252.19629" y2="579.64077" style="fill:none; stroke:#231f20; stroke-miterlimit:10; stroke-width:1.20476px;"/><line x1="276.99391" y1="536.51786" x2="276.99391" y2="579.64077" style="fill:none; stroke:#231f20; stroke-miterlimit:10; stroke-width:1.20476px;"/><line x1="301.79153" y1="536.51786" x2="301.79153" y2="579.64077" style="fill:none; stroke:#231f20; stroke-miterlimit:10; stroke-width:1.20476px;"/><line x1="326.58915" y1="536.51786" x2="326.58915" y2="579.64077" style="fill:none; stroke:#231f20; stroke-miterlimit:10; stroke-width:1.20476px;"/><line x1="351.38677" y1="536.51786" x2="351.38677" y2="579.64077" style="fill:none; stroke:#231f20; stroke-miterlimit:10; stroke-width:1.20476px;"/><line x1="376.18439" y1="536.51786" x2="376.18439" y2="579.64077" style="fill:none; stroke:#231f20; stroke-miterlimit:10; stroke-width:1.20476px;"/><line x1="400.98201" y1="536.51786" x2="400.98201" y2="579.64077" style="fill:none; stroke:#231f20; stroke-miterlimit:10; stroke-width:1.20476px;"/><line x1="425.77963" y1="536.51786" x2="425.77963" y2="579.64077" style="fill:none; stroke:#231f20; stroke-miterlimit:10; stroke-width:1.20476px;"/><line x1="450.57724" y1="536.51786" x2="450.57724" y2="579.64077" style="fill:none; stroke:#231f20; stroke-miterlimit:10; stroke-width:1.20476px;"/><ellipse cx="59.7841" cy="550.32046" rx="1.47055" ry="1.38843" style="fill:#231f20;"/><ellipse cx="67.22339" cy="564.3681" rx="1.47055" ry="1.38843" style="fill:#231f20;"/><ellipse cx="92.02101" cy="557.34428" rx="1.47055" ry="1.38843" style="fill:#231f20;"/><ellipse cx="115.57875" cy="545.63791" rx="1.47055" ry="1.38843" style="fill:#231f20;"/><ellipse cx="110.61922" cy="556.17364" rx="1.47055" ry="1.38843" style="fill:#231f20;"/><ellipse cx="121.77815" cy="560.85619" rx="1.47055" ry="1.38843" style="fill:#231f20;"/><ellipse cx="118.05851" cy="562.02683" rx="1.47055" ry="1.38843" style="fill:#231f20;"/><ellipse cx="142.85613" cy="562.02683" rx="1.47055" ry="1.38843" style="fill:#231f20;"/><ellipse cx="167.65375" cy="550.32046" rx="1.47055" ry="1.38843" style="fill:#231f20;"/><ellipse cx="181.29244" cy="562.02683" rx="1.47055" ry="1.38843" style="fill:#231f20;"/><ellipse cx="218.48887" cy="562.02683" rx="1.47055" ry="1.38843" style="fill:#231f20;"/><ellipse cx="193.69125" cy="569.05065" rx="1.47055" ry="1.38843" style="fill:#231f20;"/><ellipse cx="168.89363" cy="569.05065" rx="1.47055" ry="1.38843" style="fill:#231f20;"/><ellipse cx="243.28649" cy="569.05065" rx="1.47055" ry="1.38843" style="fill:#231f20;"/><ellipse cx="230.88768" cy="545.63791" rx="1.47055" ry="1.38843" style="fill:#231f20;"/><ellipse cx="256.92518" cy="551.4911" rx="1.47055" ry="1.38843" style="fill:#231f20;"/><ellipse cx="244.52637" cy="551.4911" rx="1.47055" ry="1.38843" style="fill:#231f20;"/><ellipse cx="281.7228" cy="551.4911" rx="1.47055" ry="1.38843" style="fill:#231f20;"/><ellipse cx="290.40196" cy="551.4911" rx="1.47055" ry="1.38843" style="fill:#231f20;"/><ellipse cx="294.12161" cy="551.4911" rx="1.47055" ry="1.38843" style="fill:#231f20;"/><ellipse cx="292.88172" cy="556.17364" rx="1.47055" ry="1.38843" style="fill:#231f20;"/><ellipse cx="305.28053" cy="556.17364" rx="1.47055" ry="1.38843" style="fill:#231f20;"/><ellipse cx="335.26833" cy="558.9505" rx="1.47055" ry="1.38843" style="fill:#231f20;"/><ellipse cx="367.27458" cy="563.41526" rx="1.47055" ry="1.38843" style="fill:#231f20;"/><ellipse cx="359.8353" cy="562.24462" rx="1.47055" ry="1.38843" style="fill:#231f20;"/><ellipse cx="363.55494" cy="573.95099" rx="1.47055" ry="1.38843" style="fill:#231f20;"/><ellipse cx="457.78589" cy="573.95099" rx="1.47055" ry="1.38843" style="fill:#231f20;"/><ellipse cx="457.78589" cy="569.26844" rx="1.47055" ry="1.38843" style="fill:#231f20;"/><ellipse cx="466.46506" cy="557.56207" rx="1.47055" ry="1.38843" style="fill:#231f20;"/><ellipse cx="462.74542" cy="551.70889" rx="1.47055" ry="1.38843" style="fill:#231f20;"/><ellipse cx="392.0722" cy="547.02634" rx="1.47055" ry="1.38843" style="fill:#231f20;"/><ellipse cx="411.59241" cy="567.66222" rx="1.47055" ry="1.38843" style="fill:#231f20;"/><ellipse cx="429.26863" cy="556.17364" rx="1.47055" ry="1.38843" style="fill:#231f20;"/><path d="m62.47266,522.47596c-.09863-.24512-.24023-.44238-.4248-.59277-.18457-.14941-.41016-.25488-.67578-.31543-.2666-.05957-.55859-.08984-.87598-.08984-.22363,0-.45898.02832-.70801.08398s-.47852.14355-.68945.26367c-.20996.12012-.38379.27441-.52148.46387-.13672.18848-.20605.41992-.20605.69531,0,.22266.03906.41406.11621.57227.07715.15918.18262.29688.31543.41211.13281.11621.29199.21289.47656.29004s.37988.14648.58594.20605l1.23633.33496c.2832.07715.55762.17383.82422.29004.26562.11523.50195.26562.70801.4502s.37109.41895.49609.70215c.12402.2832.18652.63086.18652,1.04297,0,.48047-.10938.89453-.32812,1.24219-.21973.34766-.50098.63574-.84375.86328-.34375.22754-.72754.39648-1.15234.50879-.4248.11133-.84375.16699-1.25586.16699-.5498,0-1.05566-.0625-1.51953-.18652-.46387-.125-.85645-.31543-1.17773-.57324-.32227-.25781-.56738-.58984-.73438-.99805-.16699-.40723-.22949-.89453-.18652-1.46191h1.22266c-.0166.41211.03027.75977.14258,1.04395.11133.2832.27637.51074.49512.68164.21875.17188.4834.29492.79199.36719.30957.07324.64844.10938,1.01758.10938.2832,0,.56445-.03418.84375-.10254.27832-.06836.52539-.17383.74023-.31543.21387-.1416.3877-.32422.52148-.54785.13281-.22266.19922-.48926.19922-.79785,0-.23242-.04297-.43164-.12891-.59863-.08594-.16797-.2041-.30957-.35352-.42578-.15039-.11523-.32422-.21191-.52148-.28906-.19824-.07715-.4082-.14648-.63184-.20605l-1.24902-.33496c-.27441-.07715-.53613-.17773-.78516-.30273-.24902-.12402-.46777-.27832-.65625-.46387-.18945-.18457-.33984-.40332-.45117-.65625s-.16699-.55176-.16699-.89453c0-.44629.09863-.83496.2959-1.16602.19727-.33008.45312-.60742.7666-.83008.3125-.22363.66895-.39062,1.06836-.50293.39941-.11133.80469-.16699,1.2168-.16699.45508,0,.88672.05762,1.29395.17383.4082.11621.7666.29199,1.0752.52832.30957.23633.55176.53809.72754.90723s.25586.81152.23828,1.32617h-1.22266c.00781-.36035-.03711-.66309-.13574-.90723Z" style="fill:#231f20;"/><path d="m66.61328,523.20349l-.23145.95312h.02539c.32617-.42969.66309-.72168,1.01074-.87598s.74512-.23145,1.19141-.23145c.42871,0,.80469.06641,1.12598.19922.32227.13281.59473.32031.81836.56055.22266.24023.39062.52734.50195.8623s.16699.7041.16699,1.10742c0,.50684-.08301,1.01074-.25098,1.5127-.16699.50293-.40723.95508-.7207,1.35938-.31348.40332-.7002.72949-1.15918.97852s-.98047.37305-1.56445.37305c-.19727,0-.40527-.01758-.62402-.05176-.21973-.03418-.42578-.09668-.61816-.18652-.19336-.08984-.36523-.20996-.51562-.36035s-.25488-.33691-.31543-.56055h-.02539l-.70801,3.55469h-1.06934l1.93164-9.19434h1.03027Zm3.10938,1.28711c-.27051-.31738-.70605-.47559-1.30664-.47559-.41211,0-.78125.10742-1.10742.32129-.32617.21484-.59863.48535-.81738.81152-.21973.32617-.38672.68262-.50293,1.06836-.11523.38672-.17383.75586-.17383,1.10742,0,.49805.14355.91016.43164,1.23633.28711.32617.70215.48926,1.24316.48926.4375,0,.81934-.10059,1.14551-.30273.32617-.20117.60059-.46094.82422-.77832.22266-.31738.39062-.66992.50195-1.05664.11133-.38574.16797-.76367.16797-1.13281,0-.54102-.13574-.96973-.40625-1.28809Z" style="fill:#231f20;"/><path d="m73.12891,527.43982c0,.25781.04688.4873.1416.68848.09375.20215.22266.37012.38574.50293s.34766.23633.55371.30859c.20605.07324.4209.10938.64453.10938.48926,0,.89258-.10938,1.20996-.32812s.55371-.53418.70801-.94629h1.09473c-.08594.36914-.22363.69336-.41211.97168-.18848.2793-.41602.51172-.68262.69531-.26562.18555-.5625.32422-.88867.41895s-.66895.1416-1.0293.1416c-.5498,0-1.00684-.08398-1.37207-.25098-.36426-.16797-.6543-.38184-.86914-.64355s-.36523-.5498-.4502-.86328c-.08594-.31348-.12891-.61621-.12891-.90723,0-.63574.0918-1.21777.27637-1.74512.18457-.52832.43359-.98047.74707-1.3584s.67773-.66992,1.09473-.87598c.41602-.20605.85156-.30859,1.30664-.30859.97852,0,1.69336.25684,2.14453.77246.4502.51465.67578,1.24023.67578,2.17578,0,.17188-.0127.33496-.03809.48926-.02637.1543-.04785.2793-.06445.37402h-5.00977c-.02539.18848-.03809.38184-.03809.5791Zm4.01074-2.23438c-.04688-.22754-.13281-.42871-.25781-.60547-.12402-.17578-.28906-.31738-.49512-.4248-.20605-.10645-.45996-.16016-.75977-.16016-.31836,0-.60352.04883-.85645.14746s-.47461.23438-.66309.40625c-.18945.1709-.34766.37109-.47656.59863s-.23145.46973-.30957.72754h3.86328c.01758-.23242.00195-.46191-.04492-.68945Z" style="fill:#231f20;"/><path d="m83.80371,524.35584c-.24902-.22754-.59277-.34082-1.03027-.34082-.4209,0-.79199.09375-1.11328.2832-.32227.18848-.59277.43359-.81152.7334-.21875.30078-.38477.6377-.49609,1.01074-.11133.37402-.16699.74121-.16699,1.10156,0,.25684.02734.50195.08301.7334.05664.23242.14844.43359.27734.60547s.29785.30957.50879.41211c.20996.10352.46973.1543.7793.1543.47168,0,.875-.12402,1.20996-.37305s.5791-.5791.73438-.99121h1.09375c-.19727.75488-.55762,1.33008-1.08105,1.72461-.52344.39551-1.17676.59277-1.95703.59277-.91016,0-1.59473-.24902-2.05469-.74707-.45898-.49707-.68848-1.20117-.68848-2.11133,0-.53223.0791-1.04297.23828-1.53223.1582-.48926.39453-.92578.70801-1.30762s.69922-.68652,1.15918-.91406c.45898-.22754.98535-.34082,1.57715-.34082.75586,0,1.35449.18164,1.79688.54688.44141.36523.67578.93848.70117,1.71875h-1.09473c0-.41211-.12402-.73145-.37305-.95898Z" style="fill:#231f20;"/><path d="m97.68555,520.66639l-.20605,1.03027h-5.1123l-.61816,2.92285h4.76465l-.20605,1.03027h-4.77734l-.66992,3.18066h5.17676l-.23145,1.03027h-6.40039l1.94434-9.19434h6.33594Z" style="fill:#231f20;"/><path d="m98.67773,529.86072l-.95312-6.65723h1.15918l.56641,5.53711h.02539l2.88477-5.53711h1.18457l-3.69531,6.65723h-1.17188Z" style="fill:#231f20;"/><path d="m104.60059,527.43982c0,.25781.04688.4873.1416.68848.09375.20215.22266.37012.38574.50293s.34766.23633.55371.30859c.20605.07324.4209.10938.64453.10938.48926,0,.89258-.10938,1.20996-.32812s.55371-.53418.70801-.94629h1.09473c-.08594.36914-.22363.69336-.41211.97168-.18848.2793-.41602.51172-.68262.69531-.26562.18555-.5625.32422-.88867.41895s-.66895.1416-1.0293.1416c-.5498,0-1.00684-.08398-1.37207-.25098-.36426-.16797-.6543-.38184-.86914-.64355s-.36523-.5498-.4502-.86328c-.08594-.31348-.12891-.61621-.12891-.90723,0-.63574.0918-1.21777.27637-1.74512.18457-.52832.43359-.98047.74707-1.3584s.67773-.66992,1.09473-.87598c.41602-.20605.85156-.30859,1.30664-.30859.97852,0,1.69336.25684,2.14453.77246.4502.51465.67578,1.24023.67578,2.17578,0,.17188-.0127.33496-.03809.48926-.02637.1543-.04785.2793-.06445.37402h-5.00977c-.02539.18848-.03809.38184-.03809.5791Zm4.01074-2.23438c-.04688-.22754-.13281-.42871-.25781-.60547-.12402-.17578-.28906-.31738-.49512-.4248-.20605-.10645-.45996-.16016-.75977-.16016-.31836,0-.60352.04883-.85645.14746s-.47461.23438-.66309.40625c-.18945.1709-.34766.37109-.47656.59863s-.23145.46973-.30957.72754h3.86328c.01758-.23242.00195-.46191-.04492-.68945Z" style="fill:#231f20;"/><path d="m112.6875,523.20349l-.20605,1.00391h.02539c.27441-.38574.62207-.67578,1.04297-.86914s.86328-.28906,1.32617-.28906c.62695,0,1.09277.13672,1.39746.41211.30469.27441.45703.70801.45703,1.2998,0,.14648-.01758.33496-.05176.56738-.03418.23145-.08105.47559-.1416.7334l-.81055,3.79883h-1.09473l.84961-3.88867c.00879-.06836.02148-.14844.03906-.23828.0166-.08984.03418-.18457.05078-.2832.01758-.09863.03223-.19336.04492-.2832.01367-.09082.01953-.16504.01953-.22559,0-.31738-.11133-.55176-.33496-.70215-.22266-.14941-.49805-.22461-.82422-.22461-.2998,0-.59863.07227-.89453.21875-.2959.14551-.54688.33008-.75293.55371-.19824.17188-.35254.37988-.46387.62402-.11133.24512-.20215.5-.27051.7666l-.77246,3.68262h-1.08203l1.39062-6.65723h1.05664Z" style="fill:#231f20;"/><path d="m121.62305,523.20349l-.20605.96582h-1.32617l-.82422,3.91406c-.00879.07715-.0166.15039-.02539.21875-.00879.06934-.0127.14258-.0127.21973,0,.17188.06641.28906.19922.35352s.28516.09668.45703.09668c.11133,0,.21875-.01074.32227-.03223.10254-.02148.20605-.04883.30859-.08398l-.19336,1.00488c-.12793.01758-.25684.03223-.38574.04492s-.25781.01953-.38672.01953c-.20605,0-.39844-.01562-.5791-.04492-.18066-.03027-.33691-.08594-.46973-.16797-.13379-.08105-.24121-.19043-.32227-.32812-.08203-.13672-.12207-.31348-.12207-.52832,0-.09375.00586-.18359.01953-.26953.0127-.08594.02734-.18066.04492-.28418l.875-4.13281h-1.12012l.20605-.96582h1.12012l.41211-1.9707h1.09473l-.41211,1.9707h1.32617Z" style="fill:#231f20;"/><path d="m130.71387,520.66639c.88477,0,1.56055.21094,2.02832.63086.46777.4209.70215,1.05664.70215,1.90625,0,.2832-.05664.59473-.16797.93359s-.30273.6543-.57227.94629c-.27051.29199-.63184.53418-1.08203.72754-.45117.19336-1.01562.29004-1.69336.29004h-2.72949l-.79883,3.75977h-1.22363l1.91895-9.19434h3.61816Zm-.52734,4.4043c.66895,0,1.17578-.17383,1.51953-.52148.34277-.34766.51465-.79688.51465-1.3457,0-.2832-.04102-.52148-.12207-.71484-.08203-.19336-.19141-.34766-.32812-.46387-.1377-.11523-.29688-.19922-.47656-.25098-.18066-.05176-.37402-.07715-.58008-.07715h-2.58789l-.70801,3.37402h2.76855Z" style="fill:#231f20;"/><path d="m136.39355,520.66639l-1.93164,9.19434h-1.08203l1.91895-9.19434h1.09473Z" style="fill:#231f20;"/><path d="m137.31348,524.25232c.17578-.26953.39258-.49512.65039-.67578.25781-.17969.5498-.31348.87598-.39941.32617-.08496.66504-.12793,1.01758-.12793.32617,0,.63477.02539.92676.07715.29199.05078.54883.1416.77246.27051.22363.12793.40137.30176.53418.52148.13379.21875.2002.49512.2002.83008,0,.18945-.02441.39258-.07129.61133-.04688.21973-.0918.41895-.13477.59961l-.4248,1.81543c-.02637.1377-.0625.29199-.10938.46387-.04785.17188-.07129.33398-.07129.48926,0,.1543.03027.26172.08984.32129.06055.06055.1377.09082.23242.09082.05078,0,.10938-.01074.17383-.03223s.12207-.04102.17383-.05859l-.16797.81152c-.08594.03418-.19531.06641-.32812.09668s-.24707.04492-.34082.04492c-.30078,0-.52832-.08203-.68262-.24414-.15527-.16309-.21484-.39062-.18066-.68262l-.02539-.02637c-.23242.30957-.51953.5459-.86328.70898-.34277.16211-.79785.24414-1.36426.24414-.28418,0-.54785-.03223-.79199-.09668-.24512-.06445-.45801-.17188-.6377-.32227-.18066-.14941-.32422-.34277-.43164-.5791s-.16113-.52539-.16113-.86914c0-.48926.10547-.87109.31543-1.14551.21094-.27539.47852-.4834.80566-.625.3252-.1416.68652-.23828,1.08105-.29004.39453-.05078.77734-.09375,1.14648-.12891.29102-.02539.54297-.05273.75293-.08301s.38379-.0791.52148-.14844c.1377-.06836.23828-.16699.30273-.2959s.09668-.30469.09668-.52832c0-.17969-.04297-.32617-.12891-.4375s-.19336-.2002-.32227-.26367c-.12793-.06445-.27246-.11035-.43066-.13574-.15918-.02539-.31152-.03809-.45703-.03809-.20605,0-.41016.02148-.6123.06348-.20117.04395-.38379.11426-.54688.21289s-.30078.22363-.41211.37305c-.1123.15039-.18457.33301-.21875.54785h-1.09473c.05176-.36914.16504-.68945.34082-.95996Zm.30957,4.56543c.24414.1543.52148.23145.83008.23145.86719,0,1.48926-.29102,1.86719-.875.18066-.24902.30273-.51953.36719-.81152s.13477-.59277.21289-.90137h-.02637c-.1543.11133-.34961.19141-.58594.23828s-.4873.08398-.75293.10938c-.2666.02539-.53418.05762-.80469.09668-.27051.03809-.51367.10059-.72754.18652-.21484.08594-.39062.20801-.52832.36719s-.20996.37988-.21875.66309c0,.30859.12207.54102.36719.69531Z" style="fill:#231f20;"/><path d="m145.36914,523.20349l-.20605,1.00391h.02539c.27441-.38574.62207-.67578,1.04297-.86914s.86328-.28906,1.32617-.28906c.62695,0,1.09277.13672,1.39746.41211.30469.27441.45703.70801.45703,1.2998,0,.14648-.01758.33496-.05176.56738-.03418.23145-.08105.47559-.1416.7334l-.81055,3.79883h-1.09473l.84961-3.88867c.00879-.06836.02148-.14844.03906-.23828.0166-.08984.03418-.18457.05078-.2832.01758-.09863.03223-.19336.04492-.2832.01367-.09082.01953-.16504.01953-.22559,0-.31738-.11133-.55176-.33496-.70215-.22266-.14941-.49805-.22461-.82422-.22461-.2998,0-.59863.07227-.89453.21875-.2959.14551-.54688.33008-.75293.55371-.19824.17188-.35254.37988-.46387.62402-.11133.24512-.20215.5-.27051.7666l-.77246,3.68262h-1.08203l1.39062-6.65723h1.05664Z" style="fill:#231f20;"/><path d="m151.35645,527.43982c0,.25781.04688.4873.1416.68848.09375.20215.22266.37012.38574.50293s.34766.23633.55371.30859c.20605.07324.4209.10938.64453.10938.48926,0,.89258-.10938,1.20996-.32812s.55371-.53418.70801-.94629h1.09473c-.08594.36914-.22363.69336-.41211.97168-.18848.2793-.41602.51172-.68262.69531-.26562.18555-.5625.32422-.88867.41895s-.66895.1416-1.0293.1416c-.5498,0-1.00684-.08398-1.37207-.25098-.36426-.16797-.6543-.38184-.86914-.64355s-.36523-.5498-.4502-.86328c-.08594-.31348-.12891-.61621-.12891-.90723,0-.63574.0918-1.21777.27637-1.74512.18457-.52832.43359-.98047.74707-1.3584s.67773-.66992,1.09473-.87598c.41602-.20605.85156-.30859,1.30664-.30859.97852,0,1.69336.25684,2.14453.77246.4502.51465.67578,1.24023.67578,2.17578,0,.17188-.0127.33496-.03809.48926-.02637.1543-.04785.2793-.06445.37402h-5.00977c-.02539.18848-.03809.38184-.03809.5791Zm4.01074-2.23438c-.04688-.22754-.13281-.42871-.25781-.60547-.12402-.17578-.28906-.31738-.49512-.4248-.20605-.10645-.45996-.16016-.75977-.16016-.31836,0-.60352.04883-.85645.14746s-.47461.23438-.66309.40625c-.18945.1709-.34766.37109-.47656.59863s-.23145.46973-.30957.72754h3.86328c.01758-.23242.00195-.46191-.04492-.68945Z" style="fill:#231f20;"/><path d="m467.68652,510.93592c-.09863-.24512-.24023-.44238-.4248-.59277-.18457-.14941-.41016-.25488-.67578-.31543-.2666-.05957-.55859-.08984-.87598-.08984-.22363,0-.45898.02832-.70801.08398s-.47852.14355-.68945.26367c-.20996.12012-.38379.27441-.52148.46387-.13672.18848-.20605.41992-.20605.69531,0,.22266.03906.41406.11621.57227.07715.15918.18262.29688.31543.41211.13281.11621.29199.21289.47656.29004s.37988.14648.58594.20605l1.23633.33496c.2832.07715.55762.17383.82422.29004.26562.11523.50195.26562.70801.4502s.37109.41895.49609.70215c.12402.2832.18652.63086.18652,1.04297,0,.48047-.10938.89453-.32812,1.24219-.21973.34766-.50098.63574-.84375.86328-.34375.22754-.72754.39648-1.15234.50879-.4248.11133-.84375.16699-1.25586.16699-.5498,0-1.05566-.0625-1.51953-.18652-.46387-.125-.85645-.31543-1.17773-.57324-.32227-.25781-.56738-.58984-.73438-.99805-.16699-.40723-.22949-.89453-.18652-1.46191h1.22266c-.0166.41211.03027.75977.14258,1.04395.11133.2832.27637.51074.49512.68164.21875.17188.4834.29492.79199.36719.30957.07324.64844.10938,1.01758.10938.2832,0,.56445-.03418.84375-.10254.27832-.06836.52539-.17383.74023-.31543.21387-.1416.3877-.32422.52148-.54785.13281-.22266.19922-.48926.19922-.79785,0-.23242-.04297-.43164-.12891-.59863-.08594-.16797-.2041-.30957-.35352-.42578-.15039-.11523-.32422-.21191-.52148-.28906-.19824-.07715-.4082-.14648-.63184-.20605l-1.24902-.33496c-.27441-.07715-.53613-.17773-.78516-.30273-.24902-.12402-.46777-.27832-.65625-.46387-.18945-.18457-.33984-.40332-.45117-.65625s-.16699-.55176-.16699-.89453c0-.44629.09863-.83496.2959-1.16602.19727-.33008.45312-.60742.7666-.83008.3125-.22363.66895-.39062,1.06836-.50293.39941-.11133.80469-.16699,1.2168-.16699.45508,0,.88672.05762,1.29395.17383.4082.11621.7666.29199,1.0752.52832.30957.23633.55176.53809.72754.90723s.25586.81152.23828,1.32617h-1.22266c.00781-.36035-.03711-.66309-.13574-.90723Z" style="fill:#231f20;"/><path d="m471.82617,511.66346l-.23145.95312h.02539c.32617-.42969.66309-.72168,1.01074-.87598s.74512-.23145,1.19141-.23145c.42871,0,.80469.06641,1.12598.19922.32227.13281.59473.32031.81836.56055.22266.24023.39062.52734.50195.8623s.16699.7041.16699,1.10742c0,.50684-.08301,1.01074-.25098,1.5127-.16699.50293-.40723.95508-.7207,1.35938-.31348.40332-.7002.72949-1.15918.97852s-.98047.37305-1.56445.37305c-.19727,0-.40527-.01758-.62402-.05176-.21973-.03418-.42578-.09668-.61816-.18652-.19336-.08984-.36523-.20996-.51562-.36035s-.25488-.33691-.31543-.56055h-.02539l-.70801,3.55469h-1.06934l1.93164-9.19434h1.03027Zm3.10938,1.28711c-.27051-.31738-.70605-.47559-1.30664-.47559-.41211,0-.78125.10742-1.10742.32129-.32617.21484-.59863.48535-.81738.81152-.21973.32617-.38672.68262-.50293,1.06836-.11523.38672-.17383.75586-.17383,1.10742,0,.49805.14355.91016.43164,1.23633.28711.32617.70215.48926,1.24316.48926.4375,0,.81934-.10059,1.14551-.30273.32617-.20117.60059-.46094.82422-.77832.22266-.31738.39062-.66992.50195-1.05664.11133-.38574.16797-.76367.16797-1.13281,0-.54102-.13574-.96973-.40625-1.28809Z" style="fill:#231f20;"/><path d="m478.3418,515.89978c0,.25781.04688.4873.1416.68848.09375.20215.22266.37012.38574.50293s.34766.23633.55371.30859c.20605.07324.4209.10938.64453.10938.48926,0,.89258-.10938,1.20996-.32812s.55371-.53418.70801-.94629h1.09473c-.08594.36914-.22363.69336-.41211.97168-.18848.2793-.41602.51172-.68262.69531-.26562.18555-.5625.32422-.88867.41895s-.66895.1416-1.0293.1416c-.5498,0-1.00684-.08398-1.37207-.25098-.36426-.16797-.6543-.38184-.86914-.64355s-.36523-.5498-.4502-.86328c-.08594-.31348-.12891-.61621-.12891-.90723,0-.63574.0918-1.21777.27637-1.74512.18457-.52832.43359-.98047.74707-1.3584s.67773-.66992,1.09473-.87598c.41602-.20605.85156-.30859,1.30664-.30859.97852,0,1.69336.25684,2.14453.77246.4502.51465.67578,1.24023.67578,2.17578,0,.17188-.0127.33496-.03809.48926-.02637.1543-.04785.2793-.06445.37402h-5.00977c-.02539.18848-.03809.38184-.03809.5791Zm4.01074-2.23438c-.04688-.22754-.13281-.42871-.25781-.60547-.12402-.17578-.28906-.31738-.49512-.4248-.20605-.10645-.45996-.16016-.75977-.16016-.31836,0-.60352.04883-.85645.14746s-.47461.23438-.66309.40625c-.18945.1709-.34766.37109-.47656.59863s-.23145.46973-.30957.72754h3.86328c.01758-.23242.00195-.46191-.04492-.68945Z" style="fill:#231f20;"/><path d="m489.0166,512.8158c-.24902-.22754-.59277-.34082-1.03027-.34082-.4209,0-.79199.09375-1.11328.2832-.32227.18848-.59277.43359-.81152.7334-.21875.30078-.38477.6377-.49609,1.01074-.11133.37402-.16699.74121-.16699,1.10156,0,.25684.02734.50195.08301.7334.05664.23242.14844.43359.27734.60547s.29785.30957.50879.41211c.20996.10352.46973.1543.7793.1543.47168,0,.875-.12402,1.20996-.37305s.5791-.5791.73438-.99121h1.09375c-.19727.75488-.55762,1.33008-1.08105,1.72461-.52344.39551-1.17676.59277-1.95703.59277-.91016,0-1.59473-.24902-2.05469-.74707-.45898-.49707-.68848-1.20117-.68848-2.11133,0-.53223.0791-1.04297.23828-1.53223.1582-.48926.39453-.92578.70801-1.30762s.69922-.68652,1.15918-.91406c.45898-.22754.98535-.34082,1.57715-.34082.75586,0,1.35449.18164,1.79688.54688.44141.36523.67578.93848.70117,1.71875h-1.09473c0-.41211-.12402-.73145-.37305-.95898Z" style="fill:#231f20;"/><path d="m393.94206,546.5491c12.63619-13.10795,26.85964-26.37464,45.40741-29.82136,5.1789-.96239,10.50335-1.04008,15.68271-.04608.77167.1481,1.10221-1.03441.32623-1.18333-19.00538-3.64744-36.86836,6.45933-50.55915,18.71019-4.0767,3.64793-7.92961,7.53582-11.72494,11.47284-.54829.56876.31836,1.43763.86774.86774h0Z" style="fill:#231f20;"/><path d="m230.68555,45.3451c1.07324.5498,2.72266,1.10059,4.4248,1.10059,1.83301,0,2.80176-.75977,2.80176-1.91211,0-1.09961-.83789-1.72754-2.95898-2.4873-2.93262-1.02148-4.84375-2.64453-4.84375-5.21094,0-3.01074,2.51367-5.31543,6.67676-5.31543,1.99023,0,3.45605.41895,4.50391.89062l-.89062,3.2207c-.70703-.34082-1.96387-.83789-3.69141-.83789-1.72852,0-2.56641.78516-2.56641,1.70215,0,1.12598.99512,1.62305,3.27246,2.4873,3.11621,1.15234,4.58301,2.77539,4.58301,5.2627,0,2.95898-2.27832,5.47266-7.12207,5.47266-2.0166,0-4.00684-.52344-5.00195-1.07324l.8125-3.2998Z"/><path d="m247.80664,44.32459c.13086,1.64941,1.75391,2.43457,3.61328,2.43457,1.36133,0,2.46094-.18262,3.53418-.52344l.52441,2.69727c-1.30957.52344-2.90625.78516-4.63477.78516-4.34668,0-6.83398-2.51367-6.83398-6.51953,0-3.24707,2.01562-6.83398,6.4668-6.83398,4.1377,0,5.70898,3.2207,5.70898,6.38867,0,.68066-.0791,1.2832-.13086,1.57129h-8.24805Zm4.68652-2.72363c0-.96875-.41895-2.5918-2.25195-2.5918-1.67578,0-2.35645,1.51855-2.46094,2.5918h4.71289Z"/><path d="m258.56641,40.86756c0-1.88477-.05273-3.11523-.10547-4.21484h3.43066l.13086,2.35645h.10449c.6543-1.85938,2.22559-2.64453,3.45605-2.64453.36719,0,.5498,0,.83789.05176v3.74512c-.28809-.05273-.62793-.10547-1.07324-.10547-1.4668,0-2.46094.78613-2.72266,2.0166-.05273.26172-.0791.57617-.0791.89062v6.49316h-3.97949v-8.58887Z"/><path d="m271.94434,36.65271l1.72852,5.94336c.31445,1.07324.5498,2.09473.7334,3.11621h.07812c.20996-1.04785.41895-2.0166.70703-3.11621l1.64941-5.94336h4.18945l-4.76562,12.80371h-3.97949l-4.66113-12.80371h4.32031Z"/><path d="m286.97168,33.09119c0,1.09961-.83789,1.99023-2.14746,1.99023-1.25586,0-2.09375-.89062-2.06836-1.99023-.02539-1.15234.8125-2.01562,2.09473-2.01562,1.2832,0,2.09473.86328,2.12109,2.01562Zm-4.11035,16.36523v-12.80371h3.97949v12.80371h-3.97949Z"/><path d="m299.64355,49.14197c-.70703.31445-2.04297.57617-3.56152.57617-4.13672,0-6.78125-2.51367-6.78125-6.5459,0-3.74414,2.56543-6.80762,7.33105-6.80762,1.04785,0,2.2002.18262,3.03809.49707l-.62891,2.95898c-.47168-.20898-1.17773-.39258-2.22559-.39258-2.09473,0-3.45605,1.49219-3.42969,3.58691,0,2.35645,1.57031,3.58691,3.50781,3.58691.94336,0,1.67578-.15625,2.27832-.39258l.47168,2.93262Z"/><path d="m304.61621,44.32459c.13086,1.64941,1.75391,2.43457,3.61328,2.43457,1.36133,0,2.46094-.18262,3.53418-.52344l.52441,2.69727c-1.30957.52344-2.90723.78516-4.63477.78516-4.34668,0-6.83398-2.51367-6.83398-6.51953,0-3.24707,2.01562-6.83398,6.46777-6.83398,4.13672,0,5.70801,3.2207,5.70801,6.38867,0,.68066-.0791,1.2832-.13086,1.57129h-8.24805Zm4.68652-2.72363c0-.96875-.41895-2.5918-2.25195-2.5918-1.67578,0-2.35645,1.51855-2.46094,2.5918h4.71289Z"/></svg>