<?xml version="1.0" encoding="UTF-8"?><svg id="Layer_1" xmlns="http://www.w3.org/2000/svg" viewBox="0 0 532 618.27027"><rect x="74.5221" y="105.99596" width="390.66712" height="357.51468" style="fill:none; stroke:#000; stroke-miterlimit:10; stroke-width:.39816px;"/><rect x="90.08514" y="147.71964" width="358.74185" height="300.65594" style="fill:none; stroke:#000; stroke-miterlimit:10; stroke-width:.34989px;"/><rect x="106.44737" y="191.07954" width="327.24456" height="242.57003" style="fill:none; stroke:#000; stroke-miterlimit:10; stroke-width:.30016px;"/><rect x="122.8096" y="229.12172" width="295.74727" height="190.2109" style="fill:none; stroke:#000; stroke-miterlimit:10; stroke-width:.25269px;"/><rect x="139.17183" y="272.07257" width="262.61376" height="130.07971" style="fill:none; stroke:#ba2456; stroke-miterlimit:10; stroke-width:2.86339px;"/><rect x="383.63422" y="221.75872" width="30.96905" height="15.12442" rx="5.76168" ry="5.76168" style="fill:#c1c1c1;"/><path d="m389.20801,227.03748h-1.08789v-.39258h2.64941v.39258h-1.09375v3.18652h-.46777v-3.18652Z"/><path d="m391.1123,227.65369l.5625,1.51855c.05859.16992.12207.37207.16504.52637h.01074c.04785-.1543.10059-.35059.16406-.53613l.50977-1.50879h.49414l-.70117,1.83203c-.33398.88184-.5625,1.33301-.88086,1.60938-.22852.20117-.45703.28125-.57422.30273l-.11621-.39355c.11621-.03711.27051-.11133.4082-.22852.12793-.10059.28711-.28125.39355-.51953.02148-.04785.03711-.08496.03711-.1123,0-.02637-.01074-.06348-.03223-.12207l-.9502-2.36816h.50977Z"/><path d="m393.44727,228.49256c0-.3291-.01074-.59473-.02148-.83887h.41992l.02148.44141h.00977c.19141-.31348.49414-.5.91406-.5.62109,0,1.08789.52637,1.08789,1.30664,0,.92383-.5625,1.38086-1.16797,1.38086-.33984,0-.63672-.14844-.79102-.40332h-.01074v1.39648h-.46191v-2.7832Zm.46191.68555c0,.06836.01074.13281.02148.19141.08496.32324.36621.54688.7002.54688.49414,0,.78125-.4043.78125-.99316,0-.51562-.27148-.95605-.76465-.95605-.31836,0-.61621.22852-.70605.5791-.0166.05859-.03223.12695-.03223.19043v.44141Z"/><path d="m396.73242,229.02381c.01074.63184.41406.89258.88184.89258.33496,0,.53613-.05859.71191-.13281l.0791.33398c-.16406.07422-.44629.15918-.85449.15918-.79102,0-1.26367-.52051-1.26367-1.29492,0-.77539.45605-1.38672,1.20508-1.38672.83887,0,1.06152.73828,1.06152,1.21094,0,.0957-.00977.16992-.01562.21777h-1.80566Zm1.37012-.33398c.00586-.29785-.12207-.75977-.64746-.75977-.47266,0-.67969.43555-.7168.75977h1.36426Z"/><path d="m399.07324,229.74646c.1377.08984.38184.18555.61523.18555.33984,0,.5-.16992.5-.38281,0-.22266-.13281-.34473-.47852-.47266-.46191-.16406-.67969-.41895-.67969-.72656,0-.41504.33496-.75488.88672-.75488.26074,0,.48926.0752.63184.16016l-.11621.33984c-.10156-.06445-.28711-.14941-.52637-.14941-.27539,0-.42969.15918-.42969.35059,0,.21289.1543.30859.48828.43555.44629.16992.6748.39258.6748.77539,0,.45117-.35059.76953-.96094.76953-.28223,0-.54199-.06836-.72266-.1748l.11719-.35547Z"/><path d="m403.07422,230.1283c-.12207.06348-.39258.14844-.73828.14844-.77539,0-1.2793-.52539-1.2793-1.31152,0-.79102.54102-1.36426,1.37988-1.36426.27637,0,.52051.06934.64844.13281l-.10645.36133c-.11133-.06445-.28711-.12207-.54199-.12207-.58887,0-.90723.43457-.90723.97168,0,.59473.38184.96094.8916.96094.26562,0,.44043-.06934.57324-.12793l.08008.35059Z"/><path d="m403.62402,228.45545c0-.30273-.00488-.5625-.02148-.80176h.40918l.01562.50488h.02148c.11719-.3457.39844-.56348.71191-.56348.05273,0,.08984.00586.13184.0166v.44043c-.04688-.01074-.09473-.01562-.15918-.01562-.3291,0-.5625.24902-.62598.59961-.01074.06348-.02148.13867-.02148.21777v1.37012h-.46191v-1.76855Z"/><path d="m405.90527,226.93201c.00488.15918-.11133.28613-.29785.28613-.16406,0-.28125-.12695-.28125-.28613,0-.16504.12207-.29199.29199-.29199.17578,0,.28711.12695.28711.29199Zm-.52051,3.29199v-2.57031h.4668v2.57031h-.4668Z"/><path d="m406.62891,228.49256c0-.3291-.01074-.59473-.02148-.83887h.41992l.02148.44141h.00977c.19141-.31348.49414-.5.91406-.5.62109,0,1.08789.52637,1.08789,1.30664,0,.92383-.5625,1.38086-1.16797,1.38086-.33984,0-.63672-.14844-.79102-.40332h-.01074v1.39648h-.46191v-2.7832Zm.46191.68555c0,.06836.01074.13281.02148.19141.08496.32324.36621.54688.7002.54688.49414,0,.78125-.4043.78125-.99316,0-.51562-.27148-.95605-.76465-.95605-.31836,0-.61621.22852-.70605.5791-.0166.05859-.03223.12695-.03223.19043v.44141Z"/><path d="m410.2168,226.91541v.73828h.66895v.35645h-.66895v1.38574c0,.31836.09082.49902.35059.49902.12207,0,.21289-.01562.27051-.03223l.02148.35059c-.08984.03711-.2334.06348-.41406.06348-.21777,0-.39258-.06836-.50391-.19629-.13281-.1377-.18066-.36621-.18066-.66895v-1.40137h-.39844v-.35645h.39844v-.61621l.45605-.12207Z"/><rect x="348.18397" y="221.75872" width="30.96905" height="15.12442" rx="5.76168" ry="5.76168" style="fill:#c1c1c1;"/><path d="m355.23633,226.73377c.27246-.0459.63086-.08496,1.08496-.08496.55957,0,.96875.13086,1.22949.36426.24023.20801.38281.52637.38281.91699,0,.39648-.11719.70801-.33789.93555-.29883.31836-.78613.48145-1.33887.48145-.16895,0-.3252-.00684-.45508-.03906v1.75488h-.56543v-4.3291Zm.56543,2.1123c.12305.0332.2793.0459.46777.0459.68262,0,1.09863-.33203,1.09863-.93652,0-.57812-.40918-.85742-1.0332-.85742-.24707,0-.43555.01953-.5332.04492v1.70312Z"/><path d="m358.90918,227.91639l.68848,1.85938c.07227.20801.15039.45508.20215.64355h.0127c.05859-.18848.12402-.42871.20117-.65625l.62402-1.84668h.60449l-.85742,2.24316c-.40918,1.0791-.68945,1.63184-1.0791,1.96973-.2793.24707-.55957.34375-.70215.37012l-.14258-.48145c.14258-.04492.33105-.13574.5-.2793.15625-.12305.35156-.34473.48145-.63672.02539-.05859.04492-.10449.04492-.13672s-.0127-.07812-.03906-.14941l-1.16309-2.89941h.62402Z"/><path d="m362.45117,227.01306v.90332h.81934v.43555h-.81934v1.69727c0,.38965.11133.61035.42969.61035.14941,0,.25977-.01953.33105-.03906l.02637.42969c-.11035.04492-.28613.07812-.50684.07812-.2666,0-.48145-.08496-.61816-.24121-.16211-.16895-.2207-.44824-.2207-.81836v-1.7168h-.4873v-.43555h.4873v-.75391l.55859-.14941Z"/><path d="m363.91406,226.44764h.57227v1.96289h.0127c.09082-.16211.23438-.30566.40918-.40234.16895-.09766.37109-.16309.58496-.16309.42285,0,1.09863.25977,1.09863,1.3457v1.87207h-.57129v-1.80664c0-.50781-.18848-.93652-.72852-.93652-.37012,0-.66309.25977-.7666.57227-.0332.07812-.03906.16211-.03906.27246v1.89844h-.57227v-4.61523Z"/><path d="m370.36816,229.46424c0,1.16309-.80566,1.66992-1.56641,1.66992-.85156,0-1.50781-.62402-1.50781-1.61816,0-1.05273.68848-1.6709,1.55957-1.6709.9043,0,1.51465.65625,1.51465,1.61914Zm-2.49609.03223c0,.68848.39648,1.20898.95605,1.20898.5459,0,.95508-.51367.95508-1.22168,0-.5332-.2666-1.20996-.94238-1.20996s-.96875.62402-.96875,1.22266Z"/><path d="m371.08984,228.76795c0-.32422-.00684-.59082-.02637-.85156h.50684l.0332.52051h.0127c.15625-.29883.52051-.5918,1.04004-.5918.43555,0,1.11133.25977,1.11133,1.33887v1.87891h-.57129v-1.81348c0-.50684-.18848-.92969-.72852-.92969-.37695,0-.66992.2666-.7666.58496-.02637.07129-.03906.16895-.03906.2666v1.8916h-.57227v-2.29492Z"/><rect x="312.73372" y="221.75872" width="30.96905" height="15.12442" rx="5.76168" ry="5.76168" style="fill:#c1c1c1;"/><path d="m321.96191,230.92029c-.20801.10352-.62402.20801-1.15723.20801-1.23535,0-2.16406-.78027-2.16406-2.2168,0-1.37207.92871-2.30176,2.28809-2.30176.5459,0,.89062.11719,1.04004.19531l-.13672.46191c-.21484-.10449-.52051-.18262-.88379-.18262-1.02734,0-1.70996.65723-1.70996,1.80762,0,1.07227.61719,1.76172,1.68359,1.76172.34473,0,.69531-.07227.92285-.18262l.11719.44922Z"/><path d="m322.57227,230.47791c.16895.11035.46777.22754.75391.22754.41602,0,.61133-.20801.61133-.46777,0-.27344-.16309-.42285-.58496-.5791-.56543-.20117-.83203-.51367-.83203-.89062,0-.50684.40918-.92285,1.08496-.92285.31934,0,.59863.09082.77344.19531l-.14258.41602c-.12305-.07812-.35059-.18262-.64355-.18262-.33789,0-.52637.19531-.52637.42969,0,.25977.18848.37695.59766.5332.5459.20801.82617.48047.82617.94824,0,.55273-.42969.94336-1.17676.94336-.34473,0-.66309-.08496-.88379-.21484l.14258-.43555Z"/><path d="m325.22363,226.44764h.57227v1.96289h.0127c.09082-.16211.23438-.30566.40918-.40234.16895-.09766.37109-.16309.58496-.16309.42285,0,1.09863.25977,1.09863,1.3457v1.87207h-.57129v-1.80664c0-.50781-.18945-.93652-.72852-.93652-.37012,0-.66309.25977-.7666.57227-.0332.07812-.03906.16211-.03906.27246v1.89844h-.57227v-4.61523Z"/><path d="m330.57324,231.06287l-.0459-.39648h-.01953c-.17578.24707-.51367.46777-.96191.46777-.63672,0-.96191-.44824-.96191-.90332,0-.76074.67578-1.17676,1.8916-1.16992v-.06543c0-.25977-.07129-.72754-.71484-.72754-.29297,0-.59863.09082-.81934.2334l-.12988-.37695c.25977-.16895.63672-.2793,1.0332-.2793.96191,0,1.19629.65625,1.19629,1.28711v1.17676c0,.27246.0127.53906.05176.75391h-.51953Zm-.08496-1.60547c-.62402-.0127-1.33203.09766-1.33203.70801,0,.37109.24707.54688.53906.54688.41016,0,.66992-.26074.76074-.52734.01953-.05762.03223-.12305.03223-.18164v-.5459Z"/><path d="m331.96387,228.89783c0-.37012-.00684-.68848-.02637-.98145h.50098l.01953.61816h.02539c.14355-.42285.48828-.68945.87109-.68945.06543,0,.11035.00684.16309.01953v.54004c-.05859-.01367-.11719-.01953-.19531-.01953-.40332,0-.68945.30469-.7666.73438-.01367.07812-.02637.16895-.02637.2666v1.67676h-.56543v-2.16504Z"/><path d="m334.11523,228.94373c0-.40332-.0127-.72754-.02637-1.02734h.51367l.02637.54004h.0127c.23438-.38379.60449-.61133,1.11816-.61133.76074,0,1.33203.64355,1.33203,1.59961,0,1.13086-.68848,1.68945-1.42969,1.68945-.41602,0-.78027-.18164-.96875-.49414h-.0127v1.70996h-.56543v-3.40625Zm.56543.83887c0,.08398.0127.16211.02637.2334.10352.39648.44824.66992.85742.66992.60449,0,.95605-.49414.95605-1.21582,0-.62988-.33203-1.16992-.93652-1.16992-.38965,0-.75391.2793-.86426.70898-.01953.07129-.03906.15527-.03906.2334v.54004Z"/><rect x="277.28348" y="221.75872" width="30.96905" height="15.12442" rx="5.76168" ry="5.76168" style="fill:#c1c1c1;"/><path d="m288.48242,226.68201h.56641v2.93164c0,1.16309-.57227,1.52051-1.32617,1.52051-.20801,0-.46191-.04492-.60449-.10352l.08398-.46191c.11719.0459.28613.08496.47461.08496.50684,0,.80566-.22754.80566-1.08594v-2.88574Z"/><path d="m291.71289,231.06287l-.0459-.39648h-.01953c-.1748.24707-.51367.46777-.96191.46777-.63672,0-.96191-.44824-.96191-.90332,0-.76074.67578-1.17676,1.8916-1.16992v-.06543c0-.25977-.07129-.72754-.71484-.72754-.29297,0-.59863.09082-.81934.2334l-.12988-.37695c.25977-.16895.63672-.2793,1.0332-.2793.96191,0,1.19629.65625,1.19629,1.28711v1.17676c0,.27246.0127.53906.05176.75391h-.51953Zm-.08496-1.60547c-.62402-.0127-1.33203.09766-1.33203.70801,0,.37109.24707.54688.53906.54688.41016,0,.66992-.26074.76074-.52734.01953-.05762.03223-.12305.03223-.18164v-.5459Z"/><path d="m293.27246,227.91639l.61816,1.76855c.10352.28613.18848.5459.25293.80566h.01953c.07129-.25977.16309-.51953.2666-.80566l.61133-1.76855h.59766l-1.23535,3.14648h-.5459l-1.19531-3.14648h.61035Z"/><path d="m297.89355,231.06287l-.0459-.39648h-.01953c-.17578.24707-.51367.46777-.96191.46777-.63672,0-.96191-.44824-.96191-.90332,0-.76074.67578-1.17676,1.8916-1.16992v-.06543c0-.25977-.07129-.72754-.71484-.72754-.29297,0-.59863.09082-.81934.2334l-.12988-.37695c.25977-.16895.63672-.2793,1.0332-.2793.96191,0,1.19629.65625,1.19629,1.28711v1.17676c0,.27246.0127.53906.05176.75391h-.51953Zm-.08496-1.60547c-.62402-.0127-1.33203.09766-1.33203.70801,0,.37109.24707.54688.53906.54688.41016,0,.66992-.26074.76074-.52734.01953-.05762.03223-.12305.03223-.18164v-.5459Z"/><rect x="241.83323" y="221.75872" width="30.96905" height="15.12442" rx="5.76168" ry="5.76168" style="fill:#c1c1c1;"/><path d="m249.06934,228.25623c-.10352.03711-.30762.09863-.54883.09863-.27148,0-.49414-.06934-.66992-.23633-.15332-.14844-.24902-.3877-.24902-.66602.00293-.53418.36914-.92383.96875-.92383.20703,0,.36914.04492.44629.08203l-.05566.18848c-.0957-.04297-.21484-.07715-.39551-.07715-.43555,0-.71973.27051-.71973.71973,0,.4541.27344.72168.69043.72168.15137,0,.25488-.02051.30762-.04785v-.5332h-.36328v-.18555h.58887v.85938Z"/><path d="m250.59375,227.68299c0,.47559-.3291.68262-.63965.68262-.34766,0-.61621-.25488-.61621-.66113,0-.43066.28125-.68262.6377-.68262.36914,0,.61816.26855.61816.66113Zm-1.01953.01367c0,.28125.16211.49316.39062.49316.22266,0,.39062-.20898.39062-.49902,0-.21777-.10938-.49316-.38574-.49316-.27539,0-.39551.25488-.39551.49902Z"/><path d="m250.89062,226.45154h.23438v1.88477h-.23438v-1.88477Z"/><path d="m252.22949,228.33631l-.01855-.16211h-.00781c-.07227.10059-.20996.19141-.39258.19141-.26074,0-.39355-.18359-.39355-.36914,0-.31055.27637-.48047.77246-.47754v-.02734c0-.10547-.0293-.29688-.29199-.29688-.11914,0-.24414.03711-.33398.0957l-.05371-.1543c.10645-.06934.26074-.11426.42285-.11426.39258,0,.48828.26855.48828.52637v.48047c0,.11133.00488.21973.02148.30762h-.21289Zm-.03418-.65625c-.25488-.00488-.54492.04004-.54492.29004,0,.15137.10156.22266.2207.22266.16699,0,.27344-.10645.31055-.21484.00781-.02441.01367-.05078.01367-.07422v-.22363Z"/><path d="m252.79883,227.39881c0-.13281-.00195-.24121-.00977-.34766h.20703l.0127.21289h.00586c.06348-.12207.21191-.24219.4248-.24219.17773,0,.4541.10645.4541.54688v.76758h-.23438v-.74121c0-.20703-.07715-.37891-.29688-.37891-.1543,0-.27344.1084-.31348.23828-.01074.0293-.01562.06934-.01562.10938v.77246h-.23438v-.9375Z"/><path d="m255.38184,227.05115c-.00488.09277-.01074.19629-.01074.35352v.74609c0,.29395-.05859.47461-.18262.58691-.125.11621-.30566.15332-.46777.15332-.15332,0-.32324-.03711-.42773-.10645l.05859-.17773c.08496.05371.21777.10156.37695.10156.23926,0,.41406-.125.41406-.44922v-.14355h-.00488c-.07129.12012-.20996.21582-.40918.21582-.31836,0-.54688-.27148-.54688-.62695,0-.43555.28418-.68262.5791-.68262.22266,0,.34473.11719.40137.22363h.00488l.01074-.19434h.2041Zm-.24121.50684c0-.03906-.00293-.07422-.01367-.10547-.04199-.13574-.15625-.24707-.32617-.24707-.22363,0-.38281.18848-.38281.48535,0,.25293.12793.46191.37988.46191.14355,0,.27344-.08984.32422-.23828.0127-.04004.01855-.08496.01855-.125v-.23145Z"/><rect x="54.06932" y="65.70397" width="424.27416" height="424.27416" style="fill:none; stroke:#000; stroke-miterlimit:10; stroke-width:1.63622px;"/><rect x="445.81471" y="50.55708" width="61.7301" height="30.14726" rx="11.48467" ry="11.48467" style="fill:#c1c1c1;"/><path d="m465.56348,62.03162c-.03418.60254-.06934,1.27441-.06934,2.29102v4.84082c0,1.91211-.37891,3.08398-1.18848,3.80762-.80957.75781-1.98145.99902-3.03223.99902-.99902,0-2.10156-.24121-2.77344-.68945l.37891-1.1543c.55176.34473,1.41309.65527,2.44629.65527,1.55078,0,2.6875-.80957,2.6875-2.91211v-.92969h-.03418c-.46484.77539-1.36133,1.39551-2.65332,1.39551-2.06738,0-3.54883-1.75781-3.54883-4.06543,0-2.82617,1.84375-4.42773,3.75586-4.42773,1.44727,0,2.23926.75781,2.60156,1.44727h.03418l.06934-1.25781h1.32617Zm-1.56738,3.29004c0-.25781-.01758-.48242-.08691-.68848-.27539-.87891-1.01562-1.60254-2.11816-1.60254-1.44727,0-2.48145,1.22363-2.48145,3.15234,0,1.63672.82715,2.99805,2.46387,2.99805.93066,0,1.77441-.58594,2.10156-1.55078.08594-.25781.12109-.55078.12109-.80957v-1.49902Z"/><path d="m468.06152,58.91346c.75781-.15527,1.84277-.24121,2.87695-.24121,1.60156,0,2.63574.29297,3.35938.94727.58496.5166.91309,1.30957.91309,2.20508,0,1.5332-.96484,2.5498-2.18848,2.96289v.05176c.89551.31055,1.42969,1.1377,1.70605,2.34277.37891,1.62012.6543,2.73926.89551,3.1875h-1.55078c-.18945-.32715-.44727-1.32617-.77539-2.77344-.34375-1.60254-.96387-2.20508-2.3252-2.25684h-1.41309v5.03027h-1.49805v-11.45605Zm1.49805,5.28906h1.5332c1.60254,0,2.61914-.87891,2.61914-2.20508,0-1.49902-1.08594-2.15332-2.66992-2.1709-.72363,0-1.24121.06836-1.48242.1377v4.23828Z"/><path d="m477.3291,58.89588c.72363-.12012,1.6709-.22363,2.87695-.22363,1.48145,0,2.56641.34473,3.25586.96484.63672.55078,1.0166,1.39551,1.0166,2.42871,0,1.05078-.31055,1.87793-.89648,2.48047-.79199.84473-2.08398,1.27539-3.54883,1.27539-.44727,0-.86133-.01758-1.20605-.10352v4.65137h-1.49805v-11.47363Zm1.49805,5.59961c.32812.08594.74121.12012,1.24121.12012,1.80859,0,2.91113-.87891,2.91113-2.48047,0-1.5332-1.08594-2.27441-2.73926-2.27441-.6543,0-1.1543.05176-1.41309.12109v4.51367Z"/><path d="m494.60742,69.9906c-.55078.27539-1.65332.55078-3.06641.55078-3.27246,0-5.73633-2.06641-5.73633-5.87402,0-3.63477,2.46387-6.09863,6.06445-6.09863,1.44629,0,2.35938.31055,2.75586.5166l-.36133,1.22363c-.56934-.27539-1.37891-.48242-2.34375-.48242-2.72168,0-4.53027,1.74023-4.53027,4.78906,0,2.84277,1.63672,4.66895,4.46191,4.66895.91309,0,1.84277-.18945,2.44629-.48242l.30957,1.18848Z"/><rect x="23.00001" y="50.50762" width="61.7301" height="30.14726" rx="11.48467" ry="11.48467" style="fill:#c1c1c1;"/><path d="m37.11426,58.70838v4.8584h5.61621v-4.8584h1.5166v11.61133h-1.5166v-5.44336h-5.61621v5.44336h-1.49805v-11.61133h1.49805Z"/><path d="m49.05273,59.98377h-3.53223v-1.27539h8.59668v1.27539h-3.54883v10.33594h-1.51562v-10.33594Z"/><path d="m58.26855,59.98377h-3.53223v-1.27539h8.59668v1.27539h-3.54883v10.33594h-1.51562v-10.33594Z"/><path d="m64.625,58.84607c.72363-.12012,1.6709-.22363,2.87695-.22363,1.48145,0,2.56641.34473,3.25586.96484.63672.55078,1.0166,1.39551,1.0166,2.42871,0,1.05078-.31055,1.87793-.89648,2.48047-.79199.84473-2.08398,1.27539-3.54883,1.27539-.44727,0-.86133-.01758-1.20605-.10352v4.65137h-1.49805v-11.47363Zm1.49805,5.59961c.32812.08594.74121.12012,1.24121.12012,1.80859,0,2.91113-.87891,2.91113-2.48047,0-1.5332-1.08594-2.27441-2.73926-2.27441-.6543,0-1.1543.05176-1.41309.12109v4.51367Z"/><rect x="25.23007" y="477.54934" width="61.7301" height="30.14726" rx="11.48467" ry="11.48467" style="fill:#c1c1c1;"/><path d="m42.42285,491.91834h-4.51367v4.18555h5.03027v1.25781h-6.52832v-11.61133h6.27051v1.25781h-4.77246v3.66895h4.51367v1.24121Z"/><path d="m45.30078,489.02381l1.63574,4.68555c.27637.75781.5,1.44727.67188,2.13672h.05176c.18945-.68945.43066-1.37891.70703-2.13672l1.61914-4.68555h1.58496l-3.27344,8.33789h-1.44727l-3.16992-8.33789h1.62012Z"/><path d="m53.67188,493.46814c.03418,2.0498,1.34375,2.89453,2.85938,2.89453,1.08594,0,1.74023-.18945,2.30859-.43066l.25879,1.08496c-.53418.24121-1.44727.5166-2.77344.5166-2.56738,0-4.10059-1.6875-4.10059-4.20312,0-2.51465,1.48145-4.49609,3.91113-4.49609,2.72168,0,3.44531,2.39453,3.44531,3.92773,0,.30957-.03418.55078-.05176.70605h-5.85742Zm4.44434-1.08496c.01758-.96484-.39551-2.46387-2.10156-2.46387-1.5332,0-2.20508,1.41309-2.3252,2.46387h4.42676Z"/><path d="m61.45898,491.28064c0-.86133-.01758-1.56738-.06934-2.25684h1.34375l.08594,1.37793h.03516c.41309-.79199,1.37793-1.56738,2.75586-1.56738,1.1543,0,2.94629.68945,2.94629,3.54883v4.97852h-1.5166v-4.80664c0-1.34375-.49902-2.46289-1.92871-2.46289-1,0-1.77441.70605-2.0332,1.5498-.06934.18945-.10352.44824-.10352.70703v5.0127h-1.51562v-6.08105Z"/><path d="m72.77734,486.62928v2.39453h2.16992v1.1543h-2.16992v4.49609c0,1.0332.29297,1.61914,1.13672,1.61914.39648,0,.68945-.05176.87891-.10352l.06836,1.1377c-.29297.12012-.75781.20605-1.34375.20605-.70605,0-1.27441-.22363-1.63672-.63672-.43066-.44824-.58496-1.18945-.58496-2.1709v-4.54785h-1.29199v-1.1543h1.29199v-1.99805l1.48145-.39648Z"/><path d="m107.84082,176.14392c.57422.35352,1.41309.64746,2.29688.64746,1.31055,0,2.07617-.69238,2.07617-1.69336,0-.92773-.53027-1.45801-1.87012-1.97266-1.61914-.57422-2.62109-1.41406-2.62109-2.8125,0-1.5459,1.28125-2.69531,3.20996-2.69531,1.0166,0,1.75293.23633,2.19434.48633l-.35352,1.0459c-.32422-.17676-.98633-.47168-1.88477-.47168-1.35449,0-1.87012.80957-1.87012,1.4873,0,.92773.60352,1.38379,1.97363,1.91406,1.67871.64844,2.53223,1.45801,2.53223,2.91602,0,1.53125-1.13379,2.85645-3.47461,2.85645-.95703,0-2.00293-.28027-2.5332-.63379l.32422-1.07422Z"/><path d="m115.2334,172.90467c0-.91309-.0293-1.64941-.05957-2.32715h1.16406l.05859,1.22266h.0293c.53027-.86914,1.36914-1.38477,2.53223-1.38477,1.72363,0,3.01855,1.45801,3.01855,3.62305,0,2.56152-1.56055,3.82812-3.23926,3.82812-.94238,0-1.7666-.41211-2.19336-1.11914h-.03027v3.87207h-1.28027v-7.71484Zm1.28027,1.89941c0,.19141.03027.36816.05957.5293.23535.89844,1.01562,1.5166,1.94336,1.5166,1.36914,0,2.16504-1.11816,2.16504-2.75293,0-1.42871-.75098-2.65039-2.12109-2.65039-.88281,0-1.70801.63281-1.95801,1.60449-.04395.16211-.08887.35352-.08887.53027v1.22266Z"/><path d="m124.33398,174.37635c.0293,1.75293,1.14844,2.47363,2.44336,2.47363.92773,0,1.4873-.16113,1.97363-.36719l.2207.92676c-.45605.20703-1.23633.44238-2.37012.44238-2.19434,0-3.50488-1.44336-3.50488-3.59277,0-2.15039,1.2666-3.84375,3.34277-3.84375,2.32617,0,2.94434,2.04688,2.94434,3.35742,0,.26562-.0293.47168-.04395.60352h-5.00586Zm3.79883-.92773c.01465-.82422-.33887-2.10547-1.79688-2.10547-1.31055,0-1.88477,1.20801-1.9873,2.10547h3.78418Z"/><path d="m136.07031,177.43982c-.33887.17676-1.08984.41211-2.04688.41211-2.15039,0-3.54883-1.45801-3.54883-3.6377,0-2.19336,1.50195-3.78418,3.82812-3.78418.76562,0,1.44336.19141,1.79688.36816l-.29492,1.00195c-.30859-.17676-.79492-.33887-1.50195-.33887-1.63379,0-2.51758,1.20703-2.51758,2.69434,0,1.64941,1.06055,2.66504,2.47363,2.66504.73633,0,1.22266-.19141,1.58984-.35352l.22168.97266Z"/><path d="m140.57715,176.14392c.57422.35352,1.41309.64746,2.29688.64746,1.31055,0,2.07617-.69238,2.07617-1.69336,0-.92773-.53027-1.45801-1.87012-1.97266-1.61914-.57422-2.62109-1.41406-2.62109-2.8125,0-1.5459,1.28125-2.69531,3.20996-2.69531,1.0166,0,1.75293.23633,2.19434.48633l-.35352,1.0459c-.32422-.17676-.98633-.47168-1.88477-.47168-1.35449,0-1.87012.80957-1.87012,1.4873,0,.92773.60352,1.38379,1.97363,1.91406,1.67871.64844,2.53223,1.45801,2.53223,2.91602,0,1.53125-1.13379,2.85645-3.47461,2.85645-.95703,0-2.00293-.28027-2.5332-.63379l.32422-1.07422Z"/><path d="m148.7793,174.37635c.0293,1.75293,1.14844,2.47363,2.44336,2.47363.92773,0,1.4873-.16113,1.97363-.36719l.2207.92676c-.45605.20703-1.23633.44238-2.37012.44238-2.19434,0-3.50488-1.44336-3.50488-3.59277,0-2.15039,1.2666-3.84375,3.34277-3.84375,2.32617,0,2.94434,2.04688,2.94434,3.35742,0,.26562-.0293.47168-.04395.60352h-5.00586Zm3.79883-.92773c.01465-.82422-.33887-2.10547-1.79688-2.10547-1.31055,0-1.88477,1.20801-1.9873,2.10547h3.78418Z"/><path d="m155.43555,172.80115c0-.83887-.01465-1.56055-.05957-2.22363h1.13379l.04492,1.39941h.05859c.32422-.95703,1.10449-1.56152,1.97266-1.56152.14746,0,.25098.01465.36816.04492v1.22168c-.13184-.0293-.26465-.04395-.44141-.04395-.91309,0-1.56055.69141-1.7373,1.66406-.0293.17676-.05859.38281-.05859.60352v3.79883h-1.28125v-4.90332Z"/><path d="m161.11914,170.57752l1.39941,4.00488c.23535.64844.42676,1.2373.57422,1.82617h.04395c.16211-.58887.36816-1.17773.60352-1.82617l1.38477-4.00488h1.35449l-2.79785,7.12695h-1.2373l-2.70898-7.12695h1.38379Z"/><path d="m169.14453,168.57556c.01465.44141-.30859.79492-.82422.79492-.45605,0-.78027-.35352-.78027-.79492,0-.45703.33887-.81055.80957-.81055.48633,0,.79492.35352.79492.81055Zm-1.44238,9.12891v-7.12695h1.2959v7.12695h-1.2959Z"/><path d="m176.22754,177.43982c-.33887.17676-1.08984.41211-2.04688.41211-2.15039,0-3.54883-1.45801-3.54883-3.6377,0-2.19336,1.50195-3.78418,3.82812-3.78418.76562,0,1.44336.19141,1.79688.36816l-.29492,1.00195c-.30859-.17676-.79492-.33887-1.50195-.33887-1.63379,0-2.51758,1.20703-2.51758,2.69434,0,1.64941,1.06055,2.66504,2.47363,2.66504.73633,0,1.22266-.19141,1.58984-.35352l.22168.97266Z"/><path d="m178.37891,174.37635c.0293,1.75293,1.14844,2.47363,2.44336,2.47363.92773,0,1.4873-.16113,1.97363-.36719l.2207.92676c-.45605.20703-1.23633.44238-2.37012.44238-2.19434,0-3.50488-1.44336-3.50488-3.59277,0-2.15039,1.2666-3.84375,3.34277-3.84375,2.32617,0,2.94434,2.04688,2.94434,3.35742,0,.26562-.0293.47168-.04395.60352h-5.00586Zm3.79883-.92773c.01465-.82422-.33887-2.10547-1.79688-2.10547-1.31055,0-1.88477,1.20801-1.9873,2.10547h3.78418Z"/><path d="m189.48242,167.77967v9.9248h-1.28125v-9.9248h1.28125Z"/><path d="m191.82422,172.50623c0-.73535-.01465-1.33984-.05957-1.92871h1.14844l.07422,1.17773h.0293c.35352-.67676,1.17773-1.33984,2.35645-1.33984.98633,0,2.51758.58887,2.51758,3.0332v4.25586h-1.2959v-4.1084c0-1.14844-.42676-2.10547-1.64941-2.10547-.85352,0-1.5166.60352-1.7373,1.3252-.05859.16211-.08789.38281-.08789.60352v4.28516h-1.2959v-5.19824Z"/><path d="m201.49805,168.53064v2.04688h1.85547v.98633h-1.85547v3.84375c0,.88379.25,1.38379.97168,1.38379.33887,0,.58887-.04395.75098-.08789l.05859.97168c-.25.10254-.64746.17676-1.14844.17676-.60352,0-1.08887-.19141-1.39844-.54492-.36816-.38281-.50098-1.01562-.50098-1.85547v-3.8877h-1.10449v-.98633h1.10449v-1.70801l1.2666-.33887Z"/><path d="m205.44531,174.37635c.0293,1.75293,1.14844,2.47363,2.44336,2.47363.92773,0,1.4873-.16113,1.97363-.36719l.2207.92676c-.45605.20703-1.23633.44238-2.37012.44238-2.19434,0-3.50488-1.44336-3.50488-3.59277,0-2.15039,1.2666-3.84375,3.34277-3.84375,2.32617,0,2.94434,2.04688,2.94434,3.35742,0,.26562-.0293.47168-.04395.60352h-5.00586Zm3.79883-.92773c.01465-.82422-.33887-2.10547-1.79688-2.10547-1.31055,0-1.88477,1.20801-1.9873,2.10547h3.78418Z"/><path d="m212.10156,172.80115c0-.83887-.01465-1.56055-.05957-2.22363h1.13379l.04492,1.39941h.05859c.32422-.95703,1.10449-1.56152,1.97266-1.56152.14746,0,.25098.01465.36816.04492v1.22168c-.13184-.0293-.26465-.04395-.44141-.04395-.91309,0-1.56055.69141-1.7373,1.66406-.0293.17676-.05859.38281-.05859.60352v3.79883h-1.28125v-4.90332Z"/><path d="m217.49023,177.70447v-6.14062h-1.00098v-.98633h1.00098v-.33887c0-1.00098.22168-1.91406.8252-2.48828.48535-.4707,1.13379-.66211,1.7373-.66211.45605,0,.85449.10254,1.10449.20605l-.17676,1.00098c-.19141-.08789-.45703-.16211-.82422-.16211-1.10449,0-1.38477.97168-1.38477,2.06152v.38281h1.72266v.98633h-1.72266v6.14062h-1.28125Z"/><path d="m225.60449,177.70447l-.10352-.89844h-.04395c-.39746.55957-1.16309,1.06055-2.17969,1.06055-1.44238,0-2.17871-1.0166-2.17871-2.04688,0-1.72266,1.53125-2.66504,4.28418-2.65039v-.14746c0-.58887-.16113-1.64941-1.61914-1.64941-.66309,0-1.35449.20605-1.85547.53027l-.29492-.85352c.58984-.38281,1.44336-.63379,2.3418-.63379,2.17871,0,2.70898,1.4873,2.70898,2.91602v2.66504c0,.61816.0293,1.22168.11816,1.70801h-1.17773Zm-.19141-3.63672c-1.41406-.0293-3.01855.2207-3.01855,1.60449,0,.83984.55957,1.2373,1.22168,1.2373.92773,0,1.5166-.58887,1.72266-1.19336.04395-.13184.07422-.2793.07422-.41211v-1.23633Z"/><path d="m233.83594,177.43982c-.33887.17676-1.08984.41211-2.04688.41211-2.15039,0-3.54883-1.45801-3.54883-3.6377,0-2.19336,1.50195-3.78418,3.82812-3.78418.76562,0,1.44336.19141,1.79688.36816l-.29492,1.00195c-.30859-.17676-.79492-.33887-1.50195-.33887-1.63379,0-2.51758,1.20703-2.51758,2.69434,0,1.64941,1.06055,2.66504,2.47363,2.66504.73633,0,1.22266-.19141,1.58984-.35352l.22168.97266Z"/><path d="m235.9873,174.37635c.0293,1.75293,1.14844,2.47363,2.44434,2.47363.92676,0,1.48633-.16113,1.97266-.36719l.2207.92676c-.45605.20703-1.23633.44238-2.37012.44238-2.19434,0-3.50488-1.44336-3.50488-3.59277,0-2.15039,1.2666-3.84375,3.34277-3.84375,2.32617,0,2.94434,2.04688,2.94434,3.35742,0,.26562-.0293.47168-.04395.60352h-5.00586Zm3.79883-.92773c.01465-.82422-.33887-2.10547-1.79688-2.10547-1.31055,0-1.88477,1.20801-1.9873,2.10547h3.78418Z"/><path d="m92.70605,134.01111c.57422.35352,1.41309.64746,2.29688.64746,1.31055,0,2.07617-.69238,2.07617-1.69336,0-.92773-.53027-1.45801-1.87012-1.97266-1.61914-.57422-2.62109-1.41406-2.62109-2.8125,0-1.5459,1.28125-2.69531,3.20996-2.69531,1.0166,0,1.75293.23633,2.19434.48633l-.35352,1.0459c-.32422-.17676-.98633-.47168-1.88477-.47168-1.35449,0-1.87012.80957-1.87012,1.4873,0,.92773.60352,1.38379,1.97363,1.91406,1.67871.64844,2.53223,1.45801,2.53223,2.91602,0,1.53125-1.13379,2.85645-3.47461,2.85645-.95703,0-2.00293-.28027-2.5332-.63379l.32422-1.07422Z"/><path d="m100.09863,130.77185c0-.91309-.0293-1.64941-.05957-2.32715h1.16406l.05859,1.22266h.0293c.53027-.86914,1.36914-1.38477,2.53223-1.38477,1.72363,0,3.01855,1.45801,3.01855,3.62305,0,2.56152-1.56055,3.82812-3.23926,3.82812-.94238,0-1.7666-.41211-2.19336-1.11914h-.03027v3.87207h-1.28027v-7.71484Zm1.28027,1.89941c0,.19141.03027.36816.05957.5293.23535.89844,1.01562,1.5166,1.94336,1.5166,1.36914,0,2.16504-1.11816,2.16504-2.75293,0-1.42871-.75098-2.65039-2.12109-2.65039-.88281,0-1.70801.63281-1.95801,1.60449-.04395.16211-.08887.35352-.08887.53027v1.22266Z"/><path d="m109.19922,132.24353c.0293,1.75293,1.14844,2.47363,2.44336,2.47363.92773,0,1.4873-.16113,1.97363-.36719l.2207.92676c-.45605.20703-1.23633.44238-2.37012.44238-2.19434,0-3.50488-1.44336-3.50488-3.59277,0-2.15039,1.2666-3.84375,3.34277-3.84375,2.32617,0,2.94434,2.04688,2.94434,3.35742,0,.26562-.0293.47168-.04395.60352h-5.00586Zm3.79883-.92773c.01465-.82422-.33887-2.10547-1.79688-2.10547-1.31055,0-1.88477,1.20801-1.9873,2.10547h3.78418Z"/><path d="m120.93555,135.30701c-.33887.17676-1.08984.41211-2.04688.41211-2.15039,0-3.54883-1.45801-3.54883-3.6377,0-2.19336,1.50195-3.78418,3.82812-3.78418.76562,0,1.44336.19141,1.79688.36816l-.29492,1.00195c-.30859-.17676-.79492-.33887-1.50195-.33887-1.63379,0-2.51758,1.20703-2.51758,2.69434,0,1.64941,1.06055,2.66504,2.47363,2.66504.73633,0,1.22266-.19141,1.58984-.35352l.22168.97266Z"/><path d="m125.61914,125.77967c.78027-.11816,1.70801-.20605,2.72363-.20605,1.84082,0,3.15137.42676,4.02051,1.2373.88281.80957,1.39844,1.95801,1.39844,3.5625,0,1.62012-.50098,2.94531-1.42773,3.8584-.92773.92773-2.45898,1.42773-4.38867,1.42773-.91309,0-1.67871-.04395-2.32617-.11719v-9.7627Zm1.28125,8.77637c.32324.05859.79492.07324,1.2959.07324,2.73828,0,4.22559-1.53125,4.22559-4.21094.01465-2.3418-1.31055-3.8291-4.01953-3.8291-.66309,0-1.16309.05957-1.50195.13281v7.83398Z"/><path d="m139.3291,135.57166l-.10352-.89844h-.04395c-.39746.55957-1.16309,1.06055-2.17969,1.06055-1.44238,0-2.17871-1.0166-2.17871-2.04688,0-1.72266,1.53125-2.66504,4.28418-2.65039v-.14746c0-.58887-.16113-1.64941-1.61914-1.64941-.66309,0-1.35449.20605-1.85547.53027l-.29492-.85352c.58984-.38281,1.44336-.63379,2.3418-.63379,2.17871,0,2.70898,1.4873,2.70898,2.91602v2.66504c0,.61816.0293,1.22168.11816,1.70801h-1.17773Zm-.19141-3.63672c-1.41406-.0293-3.01855.2207-3.01855,1.60449,0,.83984.55957,1.2373,1.22168,1.2373.92773,0,1.5166-.58887,1.72266-1.19336.04395-.13184.07422-.2793.07422-.41211v-1.23633Z"/><path d="m143.98242,126.39783v2.04688h1.85547v.98633h-1.85547v3.84375c0,.88379.25,1.38379.97168,1.38379.33887,0,.58887-.04395.75098-.08789l.05859.97168c-.25.10254-.64746.17676-1.14844.17676-.60352,0-1.08887-.19141-1.39844-.54492-.36816-.38281-.50098-1.01562-.50098-1.85547v-3.8877h-1.10449v-.98633h1.10449v-1.70801l1.2666-.33887Z"/><path d="m151.24219,135.57166l-.10352-.89844h-.04395c-.39746.55957-1.16309,1.06055-2.17969,1.06055-1.44238,0-2.17871-1.0166-2.17871-2.04688,0-1.72266,1.53125-2.66504,4.28418-2.65039v-.14746c0-.58887-.16113-1.64941-1.61914-1.64941-.66309,0-1.35449.20605-1.85547.53027l-.29492-.85352c.58984-.38281,1.44336-.63379,2.3418-.63379,2.17871,0,2.70898,1.4873,2.70898,2.91602v2.66504c0,.61816.0293,1.22168.11816,1.70801h-1.17773Zm-.19141-3.63672c-1.41406-.0293-3.01855.2207-3.01855,1.60449,0,.83984.55957,1.2373,1.22168,1.2373.92773,0,1.5166-.58887,1.72266-1.19336.04395-.13184.07422-.2793.07422-.41211v-1.23633Z"/><path d="m165.92285,131.21326c-.07324-1.38379-.16211-3.04785-.14648-4.28516h-.04492c-.33887,1.16309-.75098,2.40039-1.25098,3.76953l-1.75293,4.81543h-.97168l-1.60449-4.72656c-.47168-1.39941-.86914-2.68066-1.14844-3.8584h-.03027c-.0293,1.2373-.10254,2.90137-.19141,4.3877l-.26465,4.25586h-1.22168l.69141-9.9248h1.63477l1.69336,4.80078c.41211,1.22168.75098,2.31152,1.00098,3.34277h.04395c.25098-1.00195.60449-2.0918,1.0459-3.34277l1.7666-4.80078h1.63477l.61816,9.9248h-1.25098l-.25098-4.3584Z"/><path d="m175.89258,131.94959c0,2.63574-1.82617,3.78418-3.54883,3.78418-1.92871,0-3.41602-1.41406-3.41602-3.66699,0-2.38477,1.56055-3.78418,3.53418-3.78418,2.04688,0,3.43066,1.4873,3.43066,3.66699Zm-5.6543.07324c0,1.56055.89844,2.73926,2.16406,2.73926,1.2373,0,2.16504-1.16309,2.16504-2.76855,0-1.20703-.60352-2.73926-2.13477-2.73926-1.53223,0-2.19434,1.41406-2.19434,2.76855Z"/><path d="m183.68262,125.11756v8.61328c0,.63379.01465,1.35449.05957,1.84082h-1.16406l-.05859-1.2373h-.0293c-.39746.7959-1.2666,1.39941-2.42969,1.39941-1.72266,0-3.04785-1.45801-3.04785-3.62207-.01465-2.37109,1.45801-3.8291,3.19531-3.8291,1.08984,0,1.82617.51562,2.14941,1.08984h.0293v-4.25488h1.2959Zm-1.2959,6.22852c0-.16211-.01465-.38281-.05859-.54492-.19141-.8252-.89844-1.50195-1.87012-1.50195-1.33984,0-2.13477,1.17773-2.13477,2.75293,0,1.44336.70703,2.63574,2.10547,2.63574.86914,0,1.66406-.57422,1.89941-1.5459.04395-.17676.05859-.35352.05859-.55957v-1.23633Z"/><path d="m186.55566,132.24353c.0293,1.75293,1.14844,2.47363,2.44434,2.47363.92676,0,1.48633-.16113,1.97266-.36719l.2207.92676c-.45605.20703-1.23633.44238-2.37012.44238-2.19434,0-3.50488-1.44336-3.50488-3.59277,0-2.15039,1.2666-3.84375,3.34277-3.84375,2.32617,0,2.94434,2.04688,2.94434,3.35742,0,.26562-.0293.47168-.04395.60352h-5.00586Zm3.79883-.92773c.01465-.82422-.33887-2.10547-1.79688-2.10547-1.31055,0-1.88477,1.20801-1.9873,2.10547h3.78418Z"/><path d="m193.21191,125.11756h1.2959v10.4541h-1.2959v-10.4541Z"/><path d="m79.61621,91.46912c.57422.35352,1.41309.64746,2.29688.64746,1.31055,0,2.07617-.69238,2.07617-1.69336,0-.92773-.53027-1.45801-1.87012-1.97266-1.61914-.57422-2.62109-1.41406-2.62109-2.8125,0-1.5459,1.28125-2.69531,3.20996-2.69531,1.0166,0,1.75293.23633,2.19434.48633l-.35352,1.0459c-.32422-.17676-.98633-.47168-1.88477-.47168-1.35449,0-1.87012.80957-1.87012,1.4873,0,.92773.60352,1.38379,1.97363,1.91406,1.67871.64844,2.53223,1.45801,2.53223,2.91602,0,1.53125-1.13379,2.85645-3.47461,2.85645-.95703,0-2.00293-.28027-2.5332-.63379l.32422-1.07422Z"/><path d="m87.00879,88.22986c0-.91309-.0293-1.64941-.05957-2.32715h1.16406l.05859,1.22266h.0293c.53027-.86914,1.36914-1.38477,2.53223-1.38477,1.72363,0,3.01855,1.45801,3.01855,3.62305,0,2.56152-1.56055,3.82812-3.23926,3.82812-.94238,0-1.7666-.41211-2.19336-1.11914h-.03027v3.87207h-1.28027v-7.71484Zm1.28027,1.89941c0,.19141.03027.36816.05957.5293.23535.89844,1.01562,1.5166,1.94336,1.5166,1.36914,0,2.16504-1.11816,2.16504-2.75293,0-1.42871-.75098-2.65039-2.12109-2.65039-.88281,0-1.70801.63281-1.95801,1.60449-.04395.16211-.08887.35352-.08887.53027v1.22266Z"/><path d="m96.10938,89.70154c.0293,1.75293,1.14844,2.47363,2.44336,2.47363.92773,0,1.4873-.16113,1.97363-.36719l.2207.92676c-.45605.20703-1.23633.44238-2.37012.44238-2.19434,0-3.50488-1.44336-3.50488-3.59277,0-2.15039,1.2666-3.84375,3.34277-3.84375,2.32617,0,2.94434,2.04688,2.94434,3.35742,0,.26562-.0293.47168-.04395.60352h-5.00586Zm3.79883-.92773c.01465-.82422-.33887-2.10547-1.79688-2.10547-1.31055,0-1.88477,1.20801-1.9873,2.10547h3.78418Z"/><path d="m107.8457,92.76502c-.33887.17676-1.08984.41211-2.04688.41211-2.15039,0-3.54883-1.45801-3.54883-3.6377,0-2.19336,1.50195-3.78418,3.82812-3.78418.76562,0,1.44336.19141,1.79688.36816l-.29492,1.00195c-.30859-.17676-.79492-.33887-1.50195-.33887-1.63379,0-2.51758,1.20703-2.51758,2.69434,0,1.64941,1.06055,2.66504,2.47363,2.66504.73633,0,1.22266-.19141,1.58984-.35352l.22168.97266Z"/><path d="m113.61914,93.02967l-2.51855-9.9248h1.35449l1.17871,5.02148c.29395,1.2373.55957,2.47363.73633,3.43066h.0293c.16211-.98633.4707-2.16406.80957-3.44531l1.3252-5.00684h1.33984l1.20801,5.03613c.2793,1.17773.54395,2.35645.69141,3.40137h.0293c.20605-1.08984.48633-2.19434.7959-3.43066l1.31055-5.00684h1.30957l-2.81152,9.9248h-1.34082l-1.25098-5.16797c-.30957-1.2666-.51562-2.23828-.64844-3.24023h-.0293c-.17676.9873-.39746,1.95898-.76562,3.24023l-1.41309,5.16797h-1.33984Z"/><path d="m125.62012,83.90076c.01465.44141-.30859.79492-.82422.79492-.45605,0-.78027-.35352-.78027-.79492,0-.45703.33887-.81055.80957-.81055.48633,0,.79492.35352.79492.81055Zm-1.44238,9.12891v-7.12695h1.2959v7.12695h-1.2959Z"/><path d="m127.62305,88.12635c0-.83887-.01465-1.56055-.05957-2.22363h1.13379l.04492,1.39941h.05859c.32422-.95703,1.10449-1.56152,1.97266-1.56152.14746,0,.25098.01465.36816.04492v1.22168c-.13184-.0293-.26465-.04395-.44141-.04395-.91309,0-1.56055.69141-1.7373,1.66406-.0293.17676-.05859.38281-.05859.60352v3.79883h-1.28125v-4.90332Z"/><path d="m133.0127,89.70154c.0293,1.75293,1.14844,2.47363,2.44434,2.47363.92676,0,1.48633-.16113,1.97266-.36719l.2207.92676c-.45605.20703-1.23633.44238-2.37012.44238-2.19434,0-3.50488-1.44336-3.50488-3.59277,0-2.15039,1.2666-3.84375,3.34277-3.84375,2.32617,0,2.94434,2.04688,2.94434,3.35742,0,.26562-.0293.47168-.04395.60352h-5.00586Zm3.79883-.92773c.01465-.82422-.33887-2.10547-1.79688-2.10547-1.31055,0-1.88477,1.20801-1.9873,2.10547h3.78418Z"/><path d="m142.83496,83.22303c.61816-.10352,1.42871-.19141,2.45898-.19141,1.2666,0,2.19434.29492,2.7832.82422.54492.47168.86816,1.19336.86816,2.07617,0,.89844-.26465,1.60547-.76562,2.12109-.67676.7207-1.78125,1.08887-3.0332,1.08887-.38281,0-.73633-.01465-1.03027-.08789v3.97559h-1.28125v-9.80664Zm1.28125,4.78516c.2793.07422.63281.10352,1.05957.10352,1.54688,0,2.48926-.75098,2.48926-2.12012,0-1.31055-.92773-1.94434-2.3418-1.94434-.55957,0-.98633.04492-1.20703.10352v3.85742Z"/><path d="m150.38965,88.12635c0-.83887-.01465-1.56055-.05957-2.22363h1.13379l.04492,1.39941h.05859c.32422-.95703,1.10449-1.56152,1.97266-1.56152.14746,0,.25098.01465.36816.04492v1.22168c-.13184-.0293-.26465-.04395-.44141-.04395-.91309,0-1.56055.69141-1.7373,1.66406-.0293.17676-.05957.38281-.05957.60352v3.79883h-1.28027v-4.90332Z"/><path d="m161.50781,89.4076c0,2.63574-1.82617,3.78418-3.54883,3.78418-1.92871,0-3.41602-1.41406-3.41602-3.66699,0-2.38477,1.56055-3.78418,3.53418-3.78418,2.04688,0,3.43066,1.4873,3.43066,3.66699Zm-5.6543.07324c0,1.56055.89844,2.73926,2.16406,2.73926,1.2373,0,2.16504-1.16309,2.16504-2.76855,0-1.20703-.60352-2.73926-2.13477-2.73926-1.53223,0-2.19434,1.41406-2.19434,2.76855Z"/><path d="m164.7041,83.85584v2.04688h1.85547v.98633h-1.85547v3.84375c0,.88281.25,1.38379.97168,1.38379.33887,0,.58887-.04395.75098-.08789l.05859.97168c-.25.10254-.64746.17676-1.14844.17676-.60352,0-1.08887-.19141-1.39844-.54492-.36816-.38281-.50098-1.0166-.50098-1.85547v-3.8877h-1.10449v-.98633h1.10449v-1.70801l1.2666-.33887Z"/><path d="m174.37793,89.4076c0,2.63574-1.82617,3.78418-3.54883,3.78418-1.92871,0-3.41602-1.41406-3.41602-3.66699,0-2.38477,1.56055-3.78418,3.53418-3.78418,2.04688,0,3.43066,1.4873,3.43066,3.66699Zm-5.6543.07324c0,1.56055.89844,2.73926,2.16406,2.73926,1.2373,0,2.16504-1.16309,2.16504-2.76855,0-1.20703-.60352-2.73926-2.13477-2.73926-1.53223,0-2.19434,1.41406-2.19434,2.76855Z"/><path d="m181.09375,92.76502c-.33887.17676-1.08984.41211-2.04688.41211-2.15039,0-3.54883-1.45801-3.54883-3.6377,0-2.19336,1.50195-3.78418,3.82812-3.78418.76562,0,1.44336.19141,1.79688.36816l-.29492,1.00195c-.30859-.17676-.79492-.33887-1.50195-.33887-1.63379,0-2.51758,1.20703-2.51758,2.69434,0,1.64941,1.06055,2.66504,2.47363,2.66504.73633,0,1.22266-.19141,1.58984-.35352l.22168.97266Z"/><path d="m188.97266,89.4076c0,2.63574-1.82617,3.78418-3.54883,3.78418-1.92871,0-3.41602-1.41406-3.41602-3.66699,0-2.38477,1.56055-3.78418,3.53418-3.78418,2.04688,0,3.43066,1.4873,3.43066,3.66699Zm-5.6543.07324c0,1.56055.89844,2.73926,2.16406,2.73926,1.2373,0,2.16504-1.16309,2.16504-2.76855,0-1.20703-.60352-2.73926-2.13477-2.73926-1.53223,0-2.19434,1.41406-2.19434,2.76855Z"/><path d="m190.6084,82.57556h1.2959v10.4541h-1.2959v-10.4541Z"/><path d="m200.20996,88.56775v.95703h-3.6377v-.95703h3.6377Z"/><path d="m204.71582,91.46912c.57422.35352,1.41309.64746,2.29688.64746,1.31055,0,2.07617-.69238,2.07617-1.69336,0-.92773-.53027-1.45801-1.87012-1.97266-1.61914-.57422-2.62109-1.41406-2.62109-2.8125,0-1.5459,1.28125-2.69531,3.20996-2.69531,1.0166,0,1.75293.23633,2.19434.48633l-.35352,1.0459c-.32422-.17676-.98633-.47168-1.88477-.47168-1.35449,0-1.87012.80957-1.87012,1.4873,0,.92773.60352,1.38379,1.97363,1.91406,1.67871.64844,2.53223,1.45801,2.53223,2.91602,0,1.53125-1.13379,2.85645-3.47461,2.85645-.95703,0-2.00293-.28027-2.5332-.63379l.32422-1.07422Z"/><path d="m212.91797,89.70154c.0293,1.75293,1.14844,2.47363,2.44336,2.47363.92773,0,1.4873-.16113,1.97363-.36719l.2207.92676c-.45605.20703-1.23633.44238-2.37012.44238-2.19434,0-3.50488-1.44336-3.50488-3.59277,0-2.15039,1.2666-3.84375,3.34277-3.84375,2.32617,0,2.94434,2.04688,2.94434,3.35742,0,.26562-.0293.47168-.04395.60352h-5.00586Zm3.79883-.92773c.01465-.82422-.33887-2.10547-1.79688-2.10547-1.31055,0-1.88477,1.20801-1.9873,2.10547h3.78418Z"/><path d="m219.57422,88.12635c0-.83887-.01465-1.56055-.05957-2.22363h1.13379l.04492,1.39941h.05859c.32422-.95703,1.10449-1.56152,1.97266-1.56152.14746,0,.25098.01465.36816.04492v1.22168c-.13184-.0293-.26465-.04395-.44141-.04395-.91309,0-1.56055.69141-1.7373,1.66406-.0293.17676-.05859.38281-.05859.60352v3.79883h-1.28125v-4.90332Z"/><path d="m225.89062,83.90076c.01465.44141-.30859.79492-.82422.79492-.45605,0-.78027-.35352-.78027-.79492,0-.45703.33887-.81055.80957-.81055.48633,0,.79492.35352.79492.81055Zm-1.44238,9.12891v-7.12695h1.2959v7.12695h-1.2959Z"/><path d="m231.83984,93.02967l-.10352-.89844h-.04395c-.39746.55957-1.16309,1.06055-2.17969,1.06055-1.44238,0-2.17871-1.0166-2.17871-2.04688,0-1.72266,1.53125-2.66504,4.28418-2.65039v-.14746c0-.58887-.16113-1.64941-1.61914-1.64941-.66309,0-1.35449.20703-1.85547.53027l-.29492-.85352c.58984-.38281,1.44336-.63379,2.3418-.63379,2.17871,0,2.70898,1.4873,2.70898,2.91602v2.66504c0,.61816.0293,1.22168.11816,1.70801h-1.17773Zm-.19141-3.63672c-1.41406-.0293-3.01855.2207-3.01855,1.60449,0,.83984.55957,1.2373,1.22168,1.2373.92773,0,1.5166-.58887,1.72266-1.19336.04395-.13184.07422-.2793.07422-.41211v-1.23633Z"/><path d="m234.99121,82.57556h1.2959v10.4541h-1.2959v-10.4541Z"/><path d="m239.90918,83.90076c.01465.44141-.30859.79492-.82422.79492-.45605,0-.78027-.35352-.78027-.79492,0-.45703.33887-.81055.80957-.81055.48633,0,.79492.35352.79492.81055Zm-1.44238,9.12891v-7.12695h1.2959v7.12695h-1.2959Z"/><path d="m241.10156,92.27869l3.22559-4.19629c.30859-.38281.60352-.72168.92676-1.10449v-.0293h-3.85742v-1.0459h5.43359l-.01465.80957-3.18066,4.1377c-.29492.39844-.58887.75098-.91309,1.11914v.03027h4.16699v1.03027h-5.78711v-.75098Z"/><path d="m252.16113,93.02967l-.10352-.89844h-.04395c-.39746.55957-1.16309,1.06055-2.17969,1.06055-1.44238,0-2.17871-1.0166-2.17871-2.04688,0-1.72266,1.53125-2.66504,4.28418-2.65039v-.14746c0-.58887-.16113-1.64941-1.61914-1.64941-.66309,0-1.35449.20703-1.85547.53027l-.29492-.85352c.58984-.38281,1.44336-.63379,2.3418-.63379,2.17871,0,2.70898,1.4873,2.70898,2.91602v2.66504c0,.61816.0293,1.22168.11816,1.70801h-1.17773Zm-.19141-3.63672c-1.41406-.0293-3.01855.2207-3.01855,1.60449,0,.83984.55957,1.2373,1.22168,1.2373.92773,0,1.5166-.58887,1.72266-1.19336.04395-.13184.07422-.2793.07422-.41211v-1.23633Z"/><path d="m256.81445,83.85584v2.04688h1.85547v.98633h-1.85547v3.84375c0,.88281.25,1.38379.97168,1.38379.33887,0,.58887-.04395.75098-.08789l.05859.97168c-.25.10254-.64746.17676-1.14844.17676-.60352,0-1.08887-.19141-1.39844-.54492-.36816-.38281-.50098-1.0166-.50098-1.85547v-3.8877h-1.10449v-.98633h1.10449v-1.70801l1.2666-.33887Z"/><path d="m261.57031,83.90076c.01465.44141-.30859.79492-.82422.79492-.45605,0-.78027-.35352-.78027-.79492,0-.45703.33887-.81055.80957-.81055.48633,0,.79492.35352.79492.81055Zm-1.44238,9.12891v-7.12695h1.2959v7.12695h-1.2959Z"/><path d="m270.02246,89.4076c0,2.63574-1.82617,3.78418-3.54883,3.78418-1.92871,0-3.41602-1.41406-3.41602-3.66699,0-2.38477,1.56055-3.78418,3.53418-3.78418,2.04688,0,3.43066,1.4873,3.43066,3.66699Zm-5.6543.07324c0,1.56055.89844,2.73926,2.16406,2.73926,1.2373,0,2.16504-1.16309,2.16504-2.76855,0-1.20703-.60352-2.73926-2.13477-2.73926-1.53223,0-2.19434,1.41406-2.19434,2.76855Z"/><path d="m271.6582,87.83142c0-.73535-.01465-1.33984-.05957-1.92871h1.14844l.07422,1.17773h.0293c.35352-.67676,1.17773-1.33984,2.35645-1.33984.98633,0,2.51758.58887,2.51758,3.0332v4.25586h-1.2959v-4.1084c0-1.14844-.42676-2.10547-1.64941-2.10547-.85352,0-1.5166.60352-1.7373,1.3252-.05859.16211-.08789.38281-.08789.60352v4.28516h-1.2959v-5.19824Z"/><path d="m289.21094,93.02967c-.28027-.2793-.54492-.55957-.92773-.97168-.85449.79492-1.81152,1.13379-2.90039,1.13379-1.92969,0-3.04883-1.2959-3.04883-2.7832,0-1.35449.81055-2.28223,1.94434-2.90039v-.04492c-.51562-.64746-.8252-1.36914-.8252-2.07617,0-1.20703.86914-2.44434,2.51855-2.44434,1.23633,0,2.19336.8252,2.19336,2.10645,0,1.04492-.60352,1.87012-2.17871,2.65039v.04395c.83887.97168,1.78125,2.06152,2.41504,2.76855.45605-.69238.76562-1.64941.95703-2.90137h1.17773c-.26465,1.56152-.69238,2.79785-1.42871,3.66699.53027.55957,1.0459,1.11914,1.63477,1.75195h-1.53125Zm-1.56055-1.70801c-.58984-.64746-1.69336-1.85547-2.79785-3.12207-.53027.33887-1.28125.97266-1.28125,2.01758,0,1.13379.83887,2.00293,2.03223,2.00293.85352,0,1.5752-.38281,2.04688-.89844Zm-3.01855-6.05176c0,.70703.32324,1.25098.75098,1.78125,1.00098-.57422,1.64844-1.10449,1.64844-1.94336,0-.60352-.33789-1.28125-1.14844-1.28125-.82422,0-1.25098.67773-1.25098,1.44336Z"/><path d="m295.02832,83.23767c.78027-.11816,1.70801-.20605,2.72363-.20605,1.84082,0,3.15137.42676,4.02051,1.2373.88281.80957,1.39844,1.95801,1.39844,3.5625,0,1.62012-.50098,2.94531-1.42773,3.8584-.92773.92773-2.45898,1.42773-4.38867,1.42773-.91309,0-1.67871-.04395-2.32617-.11719v-9.7627Zm1.28125,8.77637c.32324.05859.79492.07324,1.2959.07324,2.73828,0,4.22559-1.53125,4.22559-4.21094.01465-2.3418-1.31055-3.8291-4.01953-3.8291-.66309,0-1.16309.05957-1.50195.13281v7.83398Z"/><path d="m305.57227,89.70154c.0293,1.75293,1.14844,2.47363,2.44336,2.47363.92773,0,1.4873-.16113,1.97363-.36719l.2207.92676c-.45605.20703-1.23633.44238-2.37012.44238-2.19434,0-3.50488-1.44336-3.50488-3.59277,0-2.15039,1.2666-3.84375,3.34277-3.84375,2.32617,0,2.94434,2.04688,2.94434,3.35742,0,.26562-.0293.47168-.04395.60352h-5.00586Zm3.79883-.92773c.01465-.82422-.33887-2.10547-1.79688-2.10547-1.31055,0-1.88477,1.20801-1.9873,2.10547h3.78418Z"/><path d="m312.05176,91.70447c.38281.25,1.05957.51562,1.70801.51562.94238,0,1.38379-.47168,1.38379-1.06055,0-.61816-.36816-.95703-1.3252-1.31055-1.28125-.45605-1.88477-1.16309-1.88477-2.01758,0-1.14844.92773-2.09082,2.45898-2.09082.72168,0,1.35449.20605,1.75195.44238l-.32324.94238c-.28027-.17676-.79492-.41309-1.45801-.41309-.76562,0-1.19238.44238-1.19238.97266,0,.58887.42676.85352,1.35449,1.20703,1.23633.47168,1.87012,1.08984,1.87012,2.14941,0,1.25195-.97168,2.13574-2.66504,2.13574-.78027,0-1.50195-.19141-2.00293-.48633l.32422-.98633Z"/><path d="m318.78125,89.70154c.0293,1.75293,1.14844,2.47363,2.44336,2.47363.92773,0,1.4873-.16113,1.97363-.36719l.2207.92676c-.45605.20703-1.23633.44238-2.37012.44238-2.19434,0-3.50488-1.44336-3.50488-3.59277,0-2.15039,1.2666-3.84375,3.34277-3.84375,2.32617,0,2.94434,2.04688,2.94434,3.35742,0,.26562-.0293.47168-.04395.60352h-5.00586Zm3.79883-.92773c.01465-.82422-.33887-2.10547-1.79688-2.10547-1.31055,0-1.88477,1.20801-1.9873,2.10547h3.78418Z"/><path d="m325.4375,88.12635c0-.83887-.01465-1.56055-.05957-2.22363h1.13379l.04492,1.39941h.05859c.32422-.95703,1.10449-1.56152,1.97266-1.56152.14746,0,.25098.01465.36816.04492v1.22168c-.13184-.0293-.26465-.04395-.44141-.04395-.91309,0-1.56055.69141-1.7373,1.66406-.0293.17676-.05859.38281-.05859.60352v3.79883h-1.28125v-4.90332Z"/><path d="m331.75488,83.90076c.01465.44141-.30859.79492-.82422.79492-.45605,0-.78027-.35352-.78027-.79492,0-.45703.33887-.81055.80957-.81055.48633,0,.79492.35352.79492.81055Zm-1.44238,9.12891v-7.12695h1.2959v7.12695h-1.2959Z"/><path d="m337.7041,93.02967l-.10352-.89844h-.04395c-.39746.55957-1.16309,1.06055-2.17969,1.06055-1.44238,0-2.17871-1.0166-2.17871-2.04688,0-1.72266,1.53125-2.66504,4.28418-2.65039v-.14746c0-.58887-.16113-1.64941-1.61914-1.64941-.66309,0-1.35449.20703-1.85547.53027l-.29492-.85352c.58984-.38281,1.44336-.63379,2.3418-.63379,2.17871,0,2.70898,1.4873,2.70898,2.91602v2.66504c0,.61816.0293,1.22168.11816,1.70801h-1.17773Zm-.19141-3.63672c-1.41406-.0293-3.01855.2207-3.01855,1.60449,0,.83984.55957,1.2373,1.22168,1.2373.92773,0,1.5166-.58887,1.72266-1.19336.04395-.13184.07422-.2793.07422-.41211v-1.23633Z"/><path d="m340.85547,82.57556h1.2959v10.4541h-1.2959v-10.4541Z"/><path d="m345.77344,83.90076c.01465.44141-.30859.79492-.82422.79492-.45605,0-.78027-.35352-.78027-.79492,0-.45703.33887-.81055.80957-.81055.48633,0,.79492.35352.79492.81055Zm-1.44238,9.12891v-7.12695h1.2959v7.12695h-1.2959Z"/><path d="m346.96582,92.27869l3.22559-4.19629c.30859-.38281.60352-.72168.92676-1.10449v-.0293h-3.85742v-1.0459h5.43359l-.01465.80957-3.18066,4.1377c-.29492.39844-.58887.75098-.91309,1.11914v.03027h4.16699v1.03027h-5.78711v-.75098Z"/><path d="m358.02539,93.02967l-.10352-.89844h-.04395c-.39746.55957-1.16309,1.06055-2.17969,1.06055-1.44238,0-2.17871-1.0166-2.17871-2.04688,0-1.72266,1.53125-2.66504,4.28418-2.65039v-.14746c0-.58887-.16113-1.64941-1.61914-1.64941-.66309,0-1.35449.20703-1.85547.53027l-.29492-.85352c.58984-.38281,1.44336-.63379,2.3418-.63379,2.17871,0,2.70898,1.4873,2.70898,2.91602v2.66504c0,.61816.0293,1.22168.11816,1.70801h-1.17773Zm-.19141-3.63672c-1.41406-.0293-3.01855.2207-3.01855,1.60449,0,.83984.55957,1.2373,1.22168,1.2373.92773,0,1.5166-.58887,1.72266-1.19336.04395-.13184.07422-.2793.07422-.41211v-1.23633Z"/><path d="m362.67773,83.85584v2.04688h1.85547v.98633h-1.85547v3.84375c0,.88281.25,1.38379.97168,1.38379.33887,0,.58887-.04395.75098-.08789l.05859.97168c-.25.10254-.64746.17676-1.14844.17676-.60352,0-1.08887-.19141-1.39844-.54492-.36816-.38281-.50098-1.0166-.50098-1.85547v-3.8877h-1.10449v-.98633h1.10449v-1.70801l1.2666-.33887Z"/><path d="m367.43359,83.90076c.01465.44141-.30859.79492-.82422.79492-.45605,0-.78027-.35352-.78027-.79492,0-.45703.33887-.81055.80957-.81055.48633,0,.79492.35352.79492.81055Zm-1.44238,9.12891v-7.12695h1.2959v7.12695h-1.2959Z"/><path d="m375.88574,89.4076c0,2.63574-1.82617,3.78418-3.54883,3.78418-1.92871,0-3.41602-1.41406-3.41602-3.66699,0-2.38477,1.56055-3.78418,3.53418-3.78418,2.04688,0,3.43066,1.4873,3.43066,3.66699Zm-5.6543.07324c0,1.56055.89844,2.73926,2.16406,2.73926,1.2373,0,2.16504-1.16309,2.16504-2.76855,0-1.20703-.60352-2.73926-2.13477-2.73926-1.53223,0-2.19434,1.41406-2.19434,2.76855Z"/><path d="m377.52148,87.83142c0-.73535-.01465-1.33984-.05957-1.92871h1.14844l.07422,1.17773h.0293c.35352-.67676,1.17773-1.33984,2.35645-1.33984.98633,0,2.51758.58887,2.51758,3.0332v4.25586h-1.2959v-4.1084c0-1.14844-.42676-2.10547-1.64941-2.10547-.85352,0-1.5166.60352-1.7373,1.3252-.05859.16211-.08789.38281-.08789.60352v4.28516h-1.2959v-5.19824Z"/><path d="m131.97266,212.72986h-3.85742v3.57812h4.2998v1.0752h-5.58105v-9.9248h5.35938v1.0752h-4.07812v3.13672h3.85742v1.05957Z"/><path d="m134.03516,212.18494c0-.73535-.01465-1.33984-.05957-1.92871h1.14844l.07422,1.17773h.0293c.35352-.67676,1.17773-1.33984,2.35645-1.33984.98633,0,2.51758.58887,2.51758,3.0332v4.25586h-1.2959v-4.1084c0-1.14844-.42676-2.10547-1.64941-2.10547-.85352,0-1.5166.60352-1.7373,1.3252-.05859.16211-.08789.38281-.08789.60352v4.28516h-1.2959v-5.19824Z"/><path d="m143.70996,208.20935v2.04688h1.85547v.98633h-1.85547v3.84375c0,.88281.25,1.38379.97168,1.38379.33887,0,.58887-.04395.75098-.08789l.05859.97168c-.25.10254-.64746.17676-1.14844.17676-.60352,0-1.08887-.19141-1.39844-.54492-.36816-.38281-.50098-1.0166-.50098-1.85547v-3.8877h-1.10449v-.98633h1.10449v-1.70801l1.2666-.33887Z"/><path d="m148.46582,208.25428c.01465.44141-.30859.79492-.82422.79492-.45605,0-.78027-.35352-.78027-.79492,0-.45703.33887-.81055.80957-.81055.48633,0,.79492.35352.79492.81055Zm-1.44238,9.12891v-7.12695h1.2959v7.12695h-1.2959Z"/><path d="m152.0293,208.20935v2.04688h1.85547v.98633h-1.85547v3.84375c0,.88281.25,1.38379.97168,1.38379.33887,0,.58887-.04395.75098-.08789l.05859.97168c-.25.10254-.64746.17676-1.14844.17676-.60352,0-1.08887-.19141-1.39844-.54492-.36816-.38281-.50098-1.0166-.50098-1.85547v-3.8877h-1.10449v-.98633h1.10449v-1.70801l1.2666-.33887Z"/><path d="m155.94531,210.25623l1.56055,4.21191c.16211.4707.33887,1.03027.45703,1.45703h.0293c.13281-.42676.28027-.97168.45605-1.4873l1.41406-4.18164h1.36914l-1.94336,5.08008c-.92773,2.44434-1.56055,3.69629-2.44434,4.46191-.63281.55957-1.2666.78027-1.58984.83887l-.32422-1.08984c.32422-.10254.75098-.30859,1.13379-.63281.35352-.2793.79492-.78027,1.08984-1.44336.05859-.13184.10254-.23535.10254-.30859,0-.07422-.0293-.17676-.08789-.33887l-2.63574-6.56738h1.41309Z"/><path d="m165.39941,215.82264c.57422.35352,1.41309.64746,2.29688.64746,1.31055,0,2.07617-.69238,2.07617-1.69336,0-.92773-.53027-1.45801-1.87012-1.97266-1.61914-.57422-2.62109-1.41406-2.62109-2.8125,0-1.5459,1.28125-2.69531,3.20996-2.69531,1.0166,0,1.75293.23633,2.19434.48633l-.35352,1.0459c-.32422-.17676-.98633-.47168-1.88477-.47168-1.35449,0-1.87012.80957-1.87012,1.4873,0,.92773.60352,1.38379,1.97363,1.91406,1.67871.64844,2.53223,1.45801,2.53223,2.91602,0,1.53125-1.13379,2.85645-3.47461,2.85645-.95703,0-2.00293-.28027-2.5332-.63379l.32422-1.07422Z"/><path d="m172.79199,212.58338c0-.91309-.0293-1.64941-.05957-2.32715h1.16406l.05859,1.22266h.0293c.53027-.86914,1.36914-1.38477,2.53223-1.38477,1.72363,0,3.01855,1.45801,3.01855,3.62305,0,2.56152-1.56055,3.82812-3.23926,3.82812-.94238,0-1.7666-.41211-2.19336-1.11914h-.03027v3.87207h-1.28027v-7.71484Zm1.28027,1.89941c0,.19141.03027.36816.05957.5293.23535.89844,1.01562,1.5166,1.94336,1.5166,1.36914,0,2.16504-1.11816,2.16504-2.75293,0-1.42871-.75098-2.65039-2.12109-2.65039-.88281,0-1.70801.63281-1.95801,1.60449-.04395.16211-.08887.35352-.08887.53027v1.22266Z"/><path d="m181.89258,214.05506c.0293,1.75293,1.14844,2.47363,2.44336,2.47363.92773,0,1.4873-.16113,1.97363-.36719l.2207.92676c-.45605.20703-1.23633.44238-2.37012.44238-2.19434,0-3.50488-1.44336-3.50488-3.59277,0-2.15039,1.2666-3.84375,3.34277-3.84375,2.32617,0,2.94434,2.04688,2.94434,3.35742,0,.26562-.0293.47168-.04395.60352h-5.00586Zm3.79883-.92773c.01465-.82422-.33887-2.10547-1.79688-2.10547-1.31055,0-1.88477,1.20801-1.9873,2.10547h3.78418Z"/><path d="m193.62891,217.11853c-.33887.17676-1.08984.41211-2.04688.41211-2.15039,0-3.54883-1.45801-3.54883-3.6377,0-2.19336,1.50195-3.78418,3.82812-3.78418.76562,0,1.44336.19141,1.79688.36816l-.29492,1.00195c-.30859-.17676-.79492-.33887-1.50195-.33887-1.63379,0-2.51758,1.20703-2.51758,2.69434,0,1.64941,1.06055,2.66504,2.47363,2.66504.73633,0,1.22266-.19141,1.58984-.35352l.22168.97266Z"/><path d="m198.13574,215.82264c.57422.35352,1.41309.64746,2.29688.64746,1.31055,0,2.07617-.69238,2.07617-1.69336,0-.92773-.53027-1.45801-1.87012-1.97266-1.61914-.57422-2.62109-1.41406-2.62109-2.8125,0-1.5459,1.28125-2.69531,3.20996-2.69531,1.0166,0,1.75293.23633,2.19434.48633l-.35352,1.0459c-.32422-.17676-.98633-.47168-1.88477-.47168-1.35449,0-1.87012.80957-1.87012,1.4873,0,.92773.60352,1.38379,1.97363,1.91406,1.67871.64844,2.53223,1.45801,2.53223,2.91602,0,1.53125-1.13379,2.85645-3.47461,2.85645-.95703,0-2.00293-.28027-2.5332-.63379l.32422-1.07422Z"/><path d="m206.33887,214.05506c.0293,1.75293,1.14844,2.47363,2.44434,2.47363.92676,0,1.48633-.16113,1.97266-.36719l.2207.92676c-.45605.20703-1.23633.44238-2.37012.44238-2.19434,0-3.50488-1.44336-3.50488-3.59277,0-2.15039,1.2666-3.84375,3.34277-3.84375,2.32617,0,2.94434,2.04688,2.94434,3.35742,0,.26562-.0293.47168-.04395.60352h-5.00586Zm3.79883-.92773c.01465-.82422-.33887-2.10547-1.79688-2.10547-1.31055,0-1.88477,1.20801-1.9873,2.10547h3.78418Z"/><path d="m212.99512,212.47986c0-.83887-.01465-1.56055-.05957-2.22363h1.13379l.04492,1.39941h.05859c.32422-.95703,1.10449-1.56152,1.97266-1.56152.14746,0,.25098.01465.36816.04492v1.22168c-.13184-.0293-.26465-.04395-.44141-.04395-.91309,0-1.56055.69141-1.7373,1.66406-.0293.17676-.05957.38281-.05957.60352v3.79883h-1.28027v-4.90332Z"/><path d="m218.67871,210.25623l1.39941,4.00488c.23535.64844.42676,1.2373.57422,1.82617h.04395c.16211-.58887.36816-1.17773.60352-1.82617l1.38477-4.00488h1.35449l-2.79785,7.12695h-1.2373l-2.70898-7.12695h1.38379Z"/><path d="m226.7041,208.25428c.01465.44141-.30859.79492-.82422.79492-.45605,0-.78027-.35352-.78027-.79492,0-.45703.33887-.81055.80957-.81055.48633,0,.79492.35352.79492.81055Zm-1.44238,9.12891v-7.12695h1.2959v7.12695h-1.2959Z"/><path d="m233.78711,217.11853c-.33887.17676-1.08984.41211-2.04688.41211-2.15039,0-3.54883-1.45801-3.54883-3.6377,0-2.19336,1.50195-3.78418,3.82812-3.78418.76562,0,1.44336.19141,1.79688.36816l-.29492,1.00195c-.30859-.17676-.79492-.33887-1.50195-.33887-1.63379,0-2.51758,1.20703-2.51758,2.69434,0,1.64941,1.06055,2.66504,2.47363,2.66504.73633,0,1.22266-.19141,1.58984-.35352l.22168.97266Z"/><path d="m235.9375,214.05506c.0293,1.75293,1.14844,2.47363,2.44336,2.47363.92773,0,1.4873-.16113,1.97363-.36719l.2207.92676c-.45605.20703-1.23633.44238-2.37012.44238-2.19434,0-3.50488-1.44336-3.50488-3.59277,0-2.15039,1.2666-3.84375,3.34277-3.84375,2.32617,0,2.94434,2.04688,2.94434,3.35742,0,.26562-.0293.47168-.04395.60352h-5.00586Zm3.79883-.92773c.01465-.82422-.33887-2.10547-1.79688-2.10547-1.31055,0-1.88477,1.20801-1.9873,2.10547h3.78418Z"/><path d="m147.75098,257.56678h-3.75v3.47754h4.17969v1.04492h-5.4248v-9.64648h5.20996v1.04492h-3.96484v3.04785h3.75v1.03125Z"/><path d="m149.75684,257.0365c0-.71484-.01465-1.30176-.05762-1.875h1.11621l.07227,1.14551h.02832c.34375-.6582,1.14551-1.30273,2.29004-1.30273.95898,0,2.44727.57227,2.44727,2.94824v4.13672h-1.25879v-3.99316c0-1.11621-.41602-2.04688-1.60352-2.04688-.83008,0-1.47461.58691-1.68848,1.28809-.05762.15723-.08594.37207-.08594.58691v4.16504h-1.25977v-5.05273Z"/><path d="m159.16211,253.17224v1.98926h1.80371v.95898h-1.80371v3.73633c0,.8584.24414,1.34473.94531,1.34473.3291,0,.57227-.04297.72949-.08594l.05762.94531c-.24316.09961-.62988.17188-1.11621.17188-.58691,0-1.05957-.18652-1.36035-.53027-.35742-.37207-.48633-.9873-.48633-1.80273v-3.7793h-1.07324v-.95898h1.07324v-1.66016l1.23047-.3291Z"/><path d="m163.78711,253.21521c.01465.42969-.30078.77344-.80176.77344-.44336,0-.75781-.34375-.75781-.77344,0-.44336.3291-.78711.78711-.78711.47168,0,.77246.34375.77246.78711Zm-1.40234,8.87402v-6.92773h1.25977v6.92773h-1.25977Z"/><path d="m167.25098,253.17224v1.98926h1.80371v.95898h-1.80371v3.73633c0,.8584.24414,1.34473.94531,1.34473.3291,0,.57227-.04297.72949-.08594l.05762.94531c-.24316.09961-.62988.17188-1.11621.17188-.58691,0-1.05957-.18652-1.36035-.53027-.35742-.37207-.48633-.9873-.48633-1.80273v-3.7793h-1.07324v-.95898h1.07324v-1.66016l1.23047-.3291Z"/><path d="m171.06055,255.1615l1.5166,4.09375c.1582.45801.33008,1.00195.44434,1.41699h.02832c.12891-.41504.27246-.94434.44336-1.44531l1.37402-4.06543h1.33203l-1.88965,4.93848c-.90137,2.37598-1.51758,3.5918-2.37598,4.33691-.61523.54395-1.23047.75781-1.5459.81543l-.31445-1.05957c.31445-.09961.72949-.2998,1.10156-.61523.34375-.27148.77344-.75879,1.05957-1.40234.05664-.12891.09961-.22949.09961-.30078s-.02832-.17188-.08594-.3291l-2.56152-6.38379h1.37402Z"/><path d="m180.42383,252.57166c.75879-.11523,1.66016-.20117,2.64746-.20117,1.78906,0,3.06348.41504,3.90723,1.20312.85938.78711,1.36035,1.90332,1.36035,3.46289,0,1.5752-.4873,2.86328-1.38867,3.75-.90137.90234-2.38965,1.38867-4.26465,1.38867-.8877,0-1.63184-.04297-2.26172-.11426v-9.48926Zm1.24512,8.53027c.31445.05664.77246.07129,1.25977.07129,2.66211,0,4.10742-1.48828,4.10742-4.09375.01465-2.27539-1.27344-3.7207-3.90723-3.7207-.64453,0-1.13086.05664-1.45996.12891v7.61426Z"/><path d="m196.24219,258.56873c0,2.56152-1.77441,3.67773-3.44922,3.67773-1.875,0-3.32031-1.37402-3.32031-3.56348,0-2.31934,1.51758-3.67871,3.43457-3.67871,1.99023,0,3.33496,1.44531,3.33496,3.56445Zm-5.49609.07129c0,1.5166.87305,2.66211,2.10449,2.66211,1.20215,0,2.10352-1.13086,2.10352-2.69043,0-1.17383-.58691-2.66309-2.0752-2.66309s-2.13281,1.37402-2.13281,2.69141Z"/><path d="m197.83398,257.0365c0-.71484-.01465-1.30176-.05762-1.875h1.10254l.05664,1.11719h.04297c.38672-.65918,1.03125-1.27441,2.17578-1.27441.94434,0,1.66016.57227,1.96094,1.38867h.02832c.21484-.38672.4873-.6875.77344-.90234.41504-.31445.87305-.48633,1.53125-.48633.91602,0,2.27539.60156,2.27539,3.00586v4.0791h-1.23047v-3.92188c0-1.33105-.48633-2.13281-1.50293-2.13281-.71582,0-1.27344.53027-1.48828,1.14551-.05762.17188-.10059.40039-.10059.62988v4.2793h-1.23047v-4.15039c0-1.10254-.4873-1.9043-1.44629-1.9043-.78711,0-1.35938.62988-1.55957,1.25977-.07129.18652-.10059.40137-.10059.61523v4.17969h-1.23047v-5.05273Z"/><path d="m213.61035,262.08924l-.10059-.87305h-.04297c-.38672.54395-1.13086,1.03027-2.11816,1.03027-1.40234,0-2.11816-.9873-2.11816-1.98926,0-1.6748,1.48828-2.59082,4.16504-2.57617v-.14355c0-.57227-.15723-1.60254-1.57422-1.60254-.64453,0-1.31738.2002-1.80371.51465l-.28613-.83008c.57227-.37207,1.40234-.61523,2.27539-.61523,2.11816,0,2.63379,1.44531,2.63379,2.83398v2.59082c0,.60059.02832,1.1875.11426,1.66016h-1.14453Zm-.18652-3.53516c-1.37402-.02832-2.93359.21484-2.93359,1.55957,0,.81641.54395,1.20312,1.1875,1.20312.90234,0,1.47461-.57324,1.6748-1.16016.04297-.12891.07129-.27148.07129-.40039v-1.20215Z"/><path d="m218.07715,253.21521c.01465.42969-.30078.77344-.80176.77344-.44336,0-.75781-.34375-.75781-.77344,0-.44336.3291-.78711.78711-.78711.47168,0,.77246.34375.77246.78711Zm-1.40234,8.87402v-6.92773h1.25977v6.92773h-1.25977Z"/><path d="m220.02441,257.0365c0-.71484-.01465-1.30176-.05762-1.875h1.11621l.07227,1.14551h.02832c.34375-.6582,1.14551-1.30273,2.29004-1.30273.95898,0,2.44727.57227,2.44727,2.94824v4.13672h-1.25879v-3.99316c0-1.11621-.41602-2.04688-1.60352-2.04688-.83008,0-1.47461.58691-1.68848,1.28809-.05762.15723-.08594.37207-.08594.58691v4.16504h-1.25977v-5.05273Z"/><path d="m232.29395,252.44275v9.64648h-1.24512v-9.64648h1.24512Z"/><path d="m234.57031,257.0365c0-.71484-.01465-1.30176-.05762-1.875h1.11621l.07227,1.14551h.02832c.34375-.6582,1.14551-1.30273,2.29004-1.30273.95898,0,2.44727.57227,2.44727,2.94824v4.13672h-1.25879v-3.99316c0-1.11621-.41504-2.04688-1.60352-2.04688-.83008,0-1.47461.58691-1.68848,1.28809-.05762.15723-.08594.37207-.08594.58691v4.16504h-1.25977v-5.05273Z"/><path d="m242.81641,255.1615l1.36035,3.89355c.22852.62988.41504,1.20215.55762,1.77441h.04297c.15723-.57227.3584-1.14453.58691-1.77441l1.3457-3.89355h1.31641l-2.71973,6.92773h-1.20215l-2.63281-6.92773h1.34473Z"/><path d="m252.99512,262.08924l-.10059-.87305h-.04297c-.38672.54395-1.13086,1.03027-2.11816,1.03027-1.40234,0-2.11816-.9873-2.11816-1.98926,0-1.6748,1.48828-2.59082,4.16504-2.57617v-.14355c0-.57227-.15723-1.60254-1.57422-1.60254-.64453,0-1.31738.2002-1.80371.51465l-.28613-.83008c.57227-.37207,1.40234-.61523,2.27539-.61523,2.11816,0,2.63379,1.44531,2.63379,2.83398v2.59082c0,.60059.02832,1.1875.11426,1.66016h-1.14453Zm-.18652-3.53516c-1.37402-.02832-2.93359.21484-2.93359,1.55957,0,.81641.54395,1.20312,1.1875,1.20312.90234,0,1.47461-.57324,1.6748-1.16016.04297-.12891.07129-.27148.07129-.40039v-1.20215Z"/><path d="m256.05957,257.32264c0-.81543-.01465-1.5166-.05762-2.16113h1.10254l.04297,1.36035h.05664c.31543-.93066,1.07422-1.51758,1.91797-1.51758.14355,0,.24316.01465.3584.04297v1.18848c-.12891-.0293-.25781-.04297-.42969-.04297-.8877,0-1.51758.67188-1.68848,1.61719-.0293.17188-.05762.37207-.05762.58691v3.69238h-1.24512v-4.7666Z"/><path d="m262.20117,253.21521c.01465.42969-.30078.77344-.80176.77344-.44336,0-.75781-.34375-.75781-.77344,0-.44336.3291-.78711.78711-.78711.47168,0,.77246.34375.77246.78711Zm-1.40234,8.87402v-6.92773h1.25977v6.92773h-1.25977Z"/><path d="m267.98438,262.08924l-.10059-.87305h-.04297c-.38574.54395-1.13086,1.03027-2.11816,1.03027-1.40234,0-2.11816-.9873-2.11816-1.98926,0-1.6748,1.48828-2.59082,4.16504-2.57617v-.14355c0-.57227-.15723-1.60254-1.57422-1.60254-.64453,0-1.31738.2002-1.80371.51465l-.28613-.83008c.57227-.37207,1.40234-.61523,2.27539-.61523,2.11816,0,2.63379,1.44531,2.63379,2.83398v2.59082c0,.60059.02832,1.1875.11426,1.66016h-1.14453Zm-.18652-3.53516c-1.37402-.02832-2.93359.21484-2.93359,1.55957,0,.81641.54395,1.20312,1.1875,1.20312.90234,0,1.47461-.57324,1.6748-1.16016.04297-.12891.07129-.27148.07129-.40039v-1.20215Z"/><path d="m271.04883,257.0365c0-.71484-.01465-1.30176-.05762-1.875h1.11621l.07227,1.14551h.02832c.34375-.6582,1.14551-1.30273,2.29004-1.30273.95898,0,2.44727.57227,2.44727,2.94824v4.13672h-1.25879v-3.99316c0-1.11621-.41504-2.04688-1.60352-2.04688-.83008,0-1.47461.58691-1.68848,1.28809-.05762.15723-.08594.37207-.08594.58691v4.16504h-1.25977v-5.05273Z"/><path d="m280.45312,253.17224v1.98926h1.80371v.95898h-1.80371v3.73633c0,.8584.24414,1.34473.94531,1.34473.3291,0,.57227-.04297.72949-.08594l.05762.94531c-.24316.09961-.62988.17188-1.11621.17188-.58691,0-1.05957-.18652-1.36035-.53027-.35742-.37207-.48633-.9873-.48633-1.80273v-3.7793h-1.07324v-.95898h1.07324v-1.66016l1.23047-.3291Z"/><path d="m288.35742,262.08924l-3.14844-9.64648h1.34473l1.50293,4.75195c.41504,1.30176.77344,2.47559,1.03027,3.60645h.0293c.27148-1.11621.67285-2.33301,1.10156-3.59277l1.63184-4.76562h1.33105l-3.44922,9.64648h-1.37402Z"/><path d="m297.54883,262.08924l-.10059-.87305h-.04297c-.38574.54395-1.13086,1.03027-2.11816,1.03027-1.40234,0-2.11816-.9873-2.11816-1.98926,0-1.6748,1.48828-2.59082,4.16504-2.57617v-.14355c0-.57227-.15723-1.60254-1.57422-1.60254-.64453,0-1.31738.2002-1.80371.51465l-.28613-.83008c.57227-.37207,1.40234-.61523,2.27539-.61523,2.11816,0,2.63379,1.44531,2.63379,2.83398v2.59082c0,.60059.02832,1.1875.11426,1.66016h-1.14453Zm-.18652-3.53516c-1.37402-.02832-2.93359.21484-2.93359,1.55957,0,.81641.54395,1.20312,1.1875,1.20312.90234,0,1.47461-.57324,1.6748-1.16016.04297-.12891.07129-.27148.07129-.40039v-1.20215Z"/><path d="m300.61328,251.92713h1.25977v10.16211h-1.25977v-10.16211Z"/><path d="m305.39453,253.21521c.01465.42969-.30078.77344-.80176.77344-.44336,0-.75781-.34375-.75781-.77344,0-.44336.3291-.78711.78711-.78711.47168,0,.77246.34375.77246.78711Zm-1.40234,8.87402v-6.92773h1.25977v6.92773h-1.25977Z"/><path d="m313.32422,251.92713v8.37305c0,.61523.01465,1.31641.05762,1.78906h-1.13086l-.05762-1.20215h-.02832c-.38672.77246-1.23047,1.35938-2.36133,1.35938-1.6748,0-2.96289-1.41699-2.96289-3.52051-.01465-2.30469,1.41699-3.72168,3.10547-3.72168,1.05957,0,1.77539.50098,2.08984,1.05957h.02832v-4.13672h1.25977Zm-1.25977,6.05469c0-.1582-.01367-.37207-.05664-.53027-.18652-.80078-.87305-1.45996-1.81836-1.45996-1.30176,0-2.0752,1.14551-2.0752,2.67676,0,1.40234.6875,2.5625,2.04688,2.5625.84473,0,1.61719-.55859,1.84668-1.50293.04297-.17188.05664-.34375.05664-.54395v-1.20215Z"/><path d="m319.25195,262.08924l-.10059-.87305h-.04297c-.38574.54395-1.13086,1.03027-2.11816,1.03027-1.40234,0-2.11816-.9873-2.11816-1.98926,0-1.6748,1.48828-2.59082,4.16504-2.57617v-.14355c0-.57227-.15723-1.60254-1.57422-1.60254-.64453,0-1.31738.2002-1.80371.51465l-.28613-.83008c.57227-.37207,1.40234-.61523,2.27539-.61523,2.11816,0,2.63379,1.44531,2.63379,2.83398v2.59082c0,.60059.02832,1.1875.11426,1.66016h-1.14453Zm-.18652-3.53516c-1.37402-.02832-2.93359.21484-2.93359,1.55957,0,.81641.54395,1.20312,1.1875,1.20312.90234,0,1.47461-.57324,1.6748-1.16016.04297-.12891.07129-.27148.07129-.40039v-1.20215Z"/><path d="m323.77539,253.17224v1.98926h1.80371v.95898h-1.80371v3.73633c0,.8584.24414,1.34473.94531,1.34473.3291,0,.57227-.04297.72949-.08594l.05762.94531c-.24316.09961-.62988.17188-1.11621.17188-.58691,0-1.05957-.18652-1.36035-.53027-.35742-.37207-.48633-.9873-.48633-1.80273v-3.7793h-1.07324v-.95898h1.07324v-1.66016l1.23047-.3291Z"/><path d="m328.40039,253.21521c.01465.42969-.30078.77344-.80176.77344-.44336,0-.75781-.34375-.75781-.77344,0-.44336.3291-.78711.78711-.78711.47168,0,.77246.34375.77246.78711Zm-1.40234,8.87402v-6.92773h1.25977v6.92773h-1.25977Z"/><path d="m336.61621,258.56873c0,2.56152-1.77441,3.67773-3.44922,3.67773-1.875,0-3.32031-1.37402-3.32031-3.56348,0-2.31934,1.5166-3.67871,3.43457-3.67871,1.99023,0,3.33496,1.44531,3.33496,3.56445Zm-5.49609.07129c0,1.5166.87305,2.66211,2.10449,2.66211,1.20215,0,2.10352-1.13086,2.10352-2.69043,0-1.17383-.58691-2.66309-2.0752-2.66309s-2.13281,1.37402-2.13281,2.69141Z"/><path d="m338.20801,257.0365c0-.71484-.01465-1.30176-.05762-1.875h1.11621l.07227,1.14551h.02832c.34375-.6582,1.14551-1.30273,2.29004-1.30273.95898,0,2.44727.57227,2.44727,2.94824v4.13672h-1.25879v-3.99316c0-1.11621-.41602-2.04688-1.60352-2.04688-.83008,0-1.47461.58691-1.68848,1.28809-.05762.15723-.08594.37207-.08594.58691v4.16504h-1.25977v-5.05273Z"/><path d="m355.27148,262.08924c-.27246-.27148-.5293-.54395-.90234-.94434-.83008.77246-1.75977,1.10156-2.81934,1.10156-1.875,0-2.96289-1.25977-2.96289-2.70508,0-1.31641.78711-2.21875,1.88965-2.81934v-.04297c-.50098-.62988-.80176-1.33105-.80176-2.01855,0-1.17285.84473-2.37598,2.44727-2.37598,1.20312,0,2.13281.80176,2.13281,2.04688,0,1.0166-.58691,1.81836-2.11816,2.57617v.04297c.81641.94531,1.73242,2.00391,2.34766,2.69141.44336-.67285.74414-1.60352.92969-2.81934h1.14551c-.25781,1.5166-.67285,2.71875-1.38867,3.56348.51562.54395,1.0166,1.08789,1.58887,1.70312h-1.48828Zm-1.51758-1.66016c-.57227-.62988-1.64551-1.80371-2.71875-3.03418-.51562.3291-1.24609.94434-1.24609,1.96094,0,1.10156.81641,1.94629,1.97559,1.94629.83008,0,1.53125-.37207,1.98926-.87305Zm-2.93359-5.88281c0,.6875.31445,1.2168.72949,1.73242.97363-.55859,1.60352-1.07422,1.60352-1.88965,0-.58691-.3291-1.24512-1.11621-1.24512-.80176,0-1.2168.6582-1.2168,1.40234Z"/><path d="m362.17383,252.44275v4.03613h4.66602v-4.03613h1.25977v9.64648h-1.25977v-4.52246h-4.66602v4.52246h-1.24512v-9.64648h1.24512Z"/><path d="m374.05664,262.08924l-.10059-.87305h-.04297c-.38574.54395-1.13086,1.03027-2.11816,1.03027-1.40234,0-2.11816-.9873-2.11816-1.98926,0-1.6748,1.48828-2.59082,4.16504-2.57617v-.14355c0-.57227-.15723-1.60254-1.57422-1.60254-.64453,0-1.31738.2002-1.80371.51465l-.28613-.83008c.57227-.37207,1.40234-.61523,2.27539-.61523,2.11816,0,2.63379,1.44531,2.63379,2.83398v2.59082c0,.60059.02832,1.1875.11426,1.66016h-1.14453Zm-.18652-3.53516c-1.37402-.02832-2.93359.21484-2.93359,1.55957,0,.81641.54395,1.20312,1.1875,1.20312.90234,0,1.47461-.57324,1.6748-1.16016.04297-.12891.07129-.27148.07129-.40039v-1.20215Z"/><path d="m377.12109,257.0365c0-.71484-.01465-1.30176-.05762-1.875h1.11621l.07227,1.14551h.02832c.34375-.6582,1.14551-1.30273,2.29004-1.30273.95898,0,2.44727.57227,2.44727,2.94824v4.13672h-1.25879v-3.99316c0-1.11621-.41504-2.04688-1.60352-2.04688-.83008,0-1.47461.58691-1.68848,1.28809-.05762.15723-.08594.37207-.08594.58691v4.16504h-1.25977v-5.05273Z"/><path d="m391.0498,251.92713v8.37305c0,.61523.01465,1.31641.05762,1.78906h-1.13086l-.05762-1.20215h-.02832c-.38672.77246-1.23047,1.35938-2.36133,1.35938-1.6748,0-2.96289-1.41699-2.96289-3.52051-.01465-2.30469,1.41699-3.72168,3.10547-3.72168,1.05957,0,1.77539.50098,2.08984,1.05957h.02832v-4.13672h1.25977Zm-1.25977,6.05469c0-.1582-.01367-.37207-.05664-.53027-.18652-.80078-.87305-1.45996-1.81738-1.45996-1.30273,0-2.07617,1.14551-2.07617,2.67676,0,1.40234.6875,2.5625,2.04688,2.5625.84473,0,1.61719-.55859,1.84668-1.50293.04297-.17188.05664-.34375.05664-.54395v-1.20215Z"/><path d="m393.1416,251.92713h1.25977v10.16211h-1.25977v-10.16211Z"/><path d="m397.22168,258.85486c.02832,1.70312,1.11621,2.4043,2.37598,2.4043.90137,0,1.44531-.15723,1.91797-.35742l.21484.90137c-.44434.2002-1.20215.42969-2.30469.42969-2.13281,0-3.40625-1.40332-3.40625-3.49316,0-2.08887,1.23047-3.73535,3.24902-3.73535,2.26172,0,2.8623,1.98926,2.8623,3.26367,0,.25781-.02832.45801-.04297.58691h-4.86621Zm3.69238-.90234c.01465-.80078-.3291-2.0459-1.74609-2.0459-1.27344,0-1.83203,1.17285-1.93164,2.0459h3.67773Z"/><path d="m403.69336,257.32264c0-.81543-.01465-1.5166-.05762-2.16113h1.10254l.04297,1.36035h.05664c.31543-.93066,1.07422-1.51758,1.91797-1.51758.14355,0,.24414.01465.3584.04297v1.18848c-.12891-.0293-.25781-.04297-.42969-.04297-.8877,0-1.5166.67188-1.68848,1.61719-.0293.17188-.05762.37207-.05762.58691v3.69238h-1.24512v-4.7666Z"/><path d="m408.20312,260.80115c.37207.24316,1.03027.50098,1.66016.50098.91602,0,1.3457-.45801,1.3457-1.03027,0-.60156-.3584-.93066-1.28809-1.27441-1.24512-.44336-1.83203-1.13086-1.83203-1.96094,0-1.11621.90137-2.03223,2.38965-2.03223.70215,0,1.31738.2002,1.70312.42969l-.31445.91602c-.27148-.17188-.77246-.40137-1.41699-.40137-.74414,0-1.15918.42969-1.15918.94531,0,.57227.41504.83008,1.31641,1.17383,1.20215.45801,1.81836,1.05859,1.81836,2.08887,0,1.2168-.94531,2.07617-2.59082,2.07617-.75879,0-1.45996-.18652-1.94629-.47266l.31445-.95898Z"/><rect x="52.08532" y="536.51786" width="424.55745" height="43.12291" style="fill:none; stroke:#231f20; stroke-miterlimit:10; stroke-width:1.20476px;"/><line x1="78.61296" y1="536.51786" x2="78.61296" y2="579.64077" style="fill:none; stroke:#231f20; stroke-miterlimit:10; stroke-width:1.20476px;"/><line x1="103.41057" y1="536.51786" x2="103.41057" y2="579.64077" style="fill:none; stroke:#231f20; stroke-miterlimit:10; stroke-width:1.20476px;"/><line x1="128.20819" y1="536.51786" x2="128.20819" y2="579.64077" style="fill:none; stroke:#231f20; stroke-miterlimit:10; stroke-width:1.20476px;"/><line x1="153.00581" y1="536.51786" x2="153.00581" y2="579.64077" style="fill:none; stroke:#231f20; stroke-miterlimit:10; stroke-width:1.20476px;"/><line x1="177.80343" y1="536.51786" x2="177.80343" y2="579.64077" style="fill:none; stroke:#231f20; stroke-miterlimit:10; stroke-width:1.20476px;"/><line x1="202.60105" y1="536.51786" x2="202.60105" y2="579.64077" style="fill:none; stroke:#231f20; stroke-miterlimit:10; stroke-width:1.20476px;"/><line x1="227.39867" y1="536.51786" x2="227.39867" y2="579.64077" style="fill:none; stroke:#231f20; stroke-miterlimit:10; stroke-width:1.20476px;"/><line x1="252.19629" y1="536.51786" x2="252.19629" y2="579.64077" style="fill:none; stroke:#231f20; stroke-miterlimit:10; stroke-width:1.20476px;"/><line x1="276.99391" y1="536.51786" x2="276.99391" y2="579.64077" style="fill:none; stroke:#231f20; stroke-miterlimit:10; stroke-width:1.20476px;"/><line x1="301.79153" y1="536.51786" x2="301.79153" y2="579.64077" style="fill:none; stroke:#231f20; stroke-miterlimit:10; stroke-width:1.20476px;"/><line x1="326.58915" y1="536.51786" x2="326.58915" y2="579.64077" style="fill:none; stroke:#231f20; stroke-miterlimit:10; stroke-width:1.20476px;"/><line x1="351.38677" y1="536.51786" x2="351.38677" y2="579.64077" style="fill:none; stroke:#231f20; stroke-miterlimit:10; stroke-width:1.20476px;"/><line x1="376.18439" y1="536.51786" x2="376.18439" y2="579.64077" style="fill:none; stroke:#231f20; stroke-miterlimit:10; stroke-width:1.20476px;"/><line x1="400.98201" y1="536.51786" x2="400.98201" y2="579.64077" style="fill:none; stroke:#231f20; stroke-miterlimit:10; stroke-width:1.20476px;"/><line x1="425.77963" y1="536.51786" x2="425.77963" y2="579.64077" style="fill:none; stroke:#231f20; stroke-miterlimit:10; stroke-width:1.20476px;"/><line x1="450.57724" y1="536.51786" x2="450.57724" y2="579.64077" style="fill:none; stroke:#231f20; stroke-miterlimit:10; stroke-width:1.20476px;"/><ellipse cx="59.7841" cy="550.32046" rx="1.47055" ry="1.38843" style="fill:#231f20;"/><ellipse cx="67.22339" cy="564.3681" rx="1.47055" ry="1.38843" style="fill:#231f20;"/><ellipse cx="92.02101" cy="557.34428" rx="1.47055" ry="1.38843" style="fill:#231f20;"/><ellipse cx="115.57875" cy="545.63791" rx="1.47055" ry="1.38843" style="fill:#231f20;"/><ellipse cx="110.61922" cy="556.17364" rx="1.47055" ry="1.38843" style="fill:#231f20;"/><ellipse cx="121.77815" cy="560.85619" rx="1.47055" ry="1.38843" style="fill:#231f20;"/><ellipse cx="118.05851" cy="562.02683" rx="1.47055" ry="1.38843" style="fill:#231f20;"/><ellipse cx="142.85613" cy="562.02683" rx="1.47055" ry="1.38843" style="fill:#231f20;"/><ellipse cx="167.65375" cy="550.32046" rx="1.47055" ry="1.38843" style="fill:#231f20;"/><ellipse cx="181.29244" cy="562.02683" rx="1.47055" ry="1.38843" style="fill:#231f20;"/><ellipse cx="218.48887" cy="562.02683" rx="1.47055" ry="1.38843" style="fill:#231f20;"/><ellipse cx="193.69125" cy="569.05065" rx="1.47055" ry="1.38843" style="fill:#231f20;"/><ellipse cx="168.89363" cy="569.05065" rx="1.47055" ry="1.38843" style="fill:#231f20;"/><ellipse cx="243.28649" cy="569.05065" rx="1.47055" ry="1.38843" style="fill:#231f20;"/><ellipse cx="230.88768" cy="545.63791" rx="1.47055" ry="1.38843" style="fill:#231f20;"/><ellipse cx="256.92518" cy="551.4911" rx="1.47055" ry="1.38843" style="fill:#231f20;"/><ellipse cx="244.52637" cy="551.4911" rx="1.47055" ry="1.38843" style="fill:#231f20;"/><ellipse cx="281.7228" cy="551.4911" rx="1.47055" ry="1.38843" style="fill:#231f20;"/><ellipse cx="290.40196" cy="551.4911" rx="1.47055" ry="1.38843" style="fill:#231f20;"/><ellipse cx="294.12161" cy="551.4911" rx="1.47055" ry="1.38843" style="fill:#231f20;"/><ellipse cx="292.88172" cy="556.17364" rx="1.47055" ry="1.38843" style="fill:#231f20;"/><ellipse cx="305.28053" cy="556.17364" rx="1.47055" ry="1.38843" style="fill:#231f20;"/><ellipse cx="335.26833" cy="558.9505" rx="1.47055" ry="1.38843" style="fill:#231f20;"/><ellipse cx="367.27458" cy="563.41526" rx="1.47055" ry="1.38843" style="fill:#231f20;"/><ellipse cx="359.8353" cy="562.24462" rx="1.47055" ry="1.38843" style="fill:#231f20;"/><ellipse cx="363.55494" cy="573.95099" rx="1.47055" ry="1.38843" style="fill:#231f20;"/><ellipse cx="457.78589" cy="573.95099" rx="1.47055" ry="1.38843" style="fill:#231f20;"/><ellipse cx="457.78589" cy="569.26844" rx="1.47055" ry="1.38843" style="fill:#231f20;"/><ellipse cx="466.46506" cy="557.56207" rx="1.47055" ry="1.38843" style="fill:#231f20;"/><ellipse cx="462.74542" cy="551.70889" rx="1.47055" ry="1.38843" style="fill:#231f20;"/><ellipse cx="392.0722" cy="547.02634" rx="1.47055" ry="1.38843" style="fill:#231f20;"/><ellipse cx="411.59241" cy="567.66222" rx="1.47055" ry="1.38843" style="fill:#231f20;"/><ellipse cx="429.26863" cy="556.17364" rx="1.47055" ry="1.38843" style="fill:#231f20;"/><path d="m62.47266,522.47596c-.09863-.24512-.24023-.44238-.4248-.59277-.18457-.14941-.41016-.25488-.67578-.31543-.2666-.05957-.55859-.08984-.87598-.08984-.22363,0-.45898.02832-.70801.08398s-.47852.14355-.68945.26367c-.20996.12012-.38379.27441-.52148.46387-.13672.18848-.20605.41992-.20605.69531,0,.22266.03906.41406.11621.57227.07715.15918.18262.29688.31543.41211.13281.11621.29199.21289.47656.29004s.37988.14648.58594.20605l1.23633.33496c.2832.07715.55762.17383.82422.29004.26562.11523.50195.26562.70801.4502s.37109.41895.49609.70215c.12402.2832.18652.63086.18652,1.04297,0,.48047-.10938.89453-.32812,1.24219-.21973.34766-.50098.63574-.84375.86328-.34375.22754-.72754.39648-1.15234.50879-.4248.11133-.84375.16699-1.25586.16699-.5498,0-1.05566-.0625-1.51953-.18652-.46387-.125-.85645-.31543-1.17773-.57324-.32227-.25781-.56738-.58984-.73438-.99805-.16699-.40723-.22949-.89453-.18652-1.46191h1.22266c-.0166.41211.03027.75977.14258,1.04395.11133.2832.27637.51074.49512.68164.21875.17188.4834.29492.79199.36719.30957.07324.64844.10938,1.01758.10938.2832,0,.56445-.03418.84375-.10254.27832-.06836.52539-.17383.74023-.31543.21387-.1416.3877-.32422.52148-.54785.13281-.22266.19922-.48926.19922-.79785,0-.23242-.04297-.43164-.12891-.59863-.08594-.16797-.2041-.30957-.35352-.42578-.15039-.11523-.32422-.21191-.52148-.28906-.19824-.07715-.4082-.14648-.63184-.20605l-1.24902-.33496c-.27441-.07715-.53613-.17773-.78516-.30273-.24902-.12402-.46777-.27832-.65625-.46387-.18945-.18457-.33984-.40332-.45117-.65625s-.16699-.55176-.16699-.89453c0-.44629.09863-.83496.2959-1.16602.19727-.33008.45312-.60742.7666-.83008.3125-.22363.66895-.39062,1.06836-.50293.39941-.11133.80469-.16699,1.2168-.16699.45508,0,.88672.05762,1.29395.17383.4082.11621.7666.29199,1.0752.52832.30957.23633.55176.53809.72754.90723s.25586.81152.23828,1.32617h-1.22266c.00781-.36035-.03711-.66309-.13574-.90723Z" style="fill:#231f20;"/><path d="m66.61328,523.20349l-.23145.95312h.02539c.32617-.42969.66309-.72168,1.01074-.87598s.74512-.23145,1.19141-.23145c.42871,0,.80469.06641,1.12598.19922.32227.13281.59473.32031.81836.56055.22266.24023.39062.52734.50195.8623s.16699.7041.16699,1.10742c0,.50684-.08301,1.01074-.25098,1.5127-.16699.50293-.40723.95508-.7207,1.35938-.31348.40332-.7002.72949-1.15918.97852s-.98047.37305-1.56445.37305c-.19727,0-.40527-.01758-.62402-.05176-.21973-.03418-.42578-.09668-.61816-.18652-.19336-.08984-.36523-.20996-.51562-.36035s-.25488-.33691-.31543-.56055h-.02539l-.70801,3.55469h-1.06934l1.93164-9.19434h1.03027Zm3.10938,1.28711c-.27051-.31738-.70605-.47559-1.30664-.47559-.41211,0-.78125.10742-1.10742.32129-.32617.21484-.59863.48535-.81738.81152-.21973.32617-.38672.68262-.50293,1.06836-.11523.38672-.17383.75586-.17383,1.10742,0,.49805.14355.91016.43164,1.23633.28711.32617.70215.48926,1.24316.48926.4375,0,.81934-.10059,1.14551-.30273.32617-.20117.60059-.46094.82422-.77832.22266-.31738.39062-.66992.50195-1.05664.11133-.38574.16797-.76367.16797-1.13281,0-.54102-.13574-.96973-.40625-1.28809Z" style="fill:#231f20;"/><path d="m73.12891,527.43982c0,.25781.04688.4873.1416.68848.09375.20215.22266.37012.38574.50293s.34766.23633.55371.30859c.20605.07324.4209.10938.64453.10938.48926,0,.89258-.10938,1.20996-.32812s.55371-.53418.70801-.94629h1.09473c-.08594.36914-.22363.69336-.41211.97168-.18848.2793-.41602.51172-.68262.69531-.26562.18555-.5625.32422-.88867.41895s-.66895.1416-1.0293.1416c-.5498,0-1.00684-.08398-1.37207-.25098-.36426-.16797-.6543-.38184-.86914-.64355s-.36523-.5498-.4502-.86328c-.08594-.31348-.12891-.61621-.12891-.90723,0-.63574.0918-1.21777.27637-1.74512.18457-.52832.43359-.98047.74707-1.3584s.67773-.66992,1.09473-.87598c.41602-.20605.85156-.30859,1.30664-.30859.97852,0,1.69336.25684,2.14453.77246.4502.51465.67578,1.24023.67578,2.17578,0,.17188-.0127.33496-.03809.48926-.02637.1543-.04785.2793-.06445.37402h-5.00977c-.02539.18848-.03809.38184-.03809.5791Zm4.01074-2.23438c-.04688-.22754-.13281-.42871-.25781-.60547-.12402-.17578-.28906-.31738-.49512-.4248-.20605-.10645-.45996-.16016-.75977-.16016-.31836,0-.60352.04883-.85645.14746s-.47461.23438-.66309.40625c-.18945.1709-.34766.37109-.47656.59863s-.23145.46973-.30957.72754h3.86328c.01758-.23242.00195-.46191-.04492-.68945Z" style="fill:#231f20;"/><path d="m83.80371,524.35584c-.24902-.22754-.59277-.34082-1.03027-.34082-.4209,0-.79199.09375-1.11328.2832-.32227.18848-.59277.43359-.81152.7334-.21875.30078-.38477.6377-.49609,1.01074-.11133.37402-.16699.74121-.16699,1.10156,0,.25684.02734.50195.08301.7334.05664.23242.14844.43359.27734.60547s.29785.30957.50879.41211c.20996.10352.46973.1543.7793.1543.47168,0,.875-.12402,1.20996-.37305s.5791-.5791.73438-.99121h1.09375c-.19727.75488-.55762,1.33008-1.08105,1.72461-.52344.39551-1.17676.59277-1.95703.59277-.91016,0-1.59473-.24902-2.05469-.74707-.45898-.49707-.68848-1.20117-.68848-2.11133,0-.53223.0791-1.04297.23828-1.53223.1582-.48926.39453-.92578.70801-1.30762s.69922-.68652,1.15918-.91406c.45898-.22754.98535-.34082,1.57715-.34082.75586,0,1.35449.18164,1.79688.54688.44141.36523.67578.93848.70117,1.71875h-1.09473c0-.41211-.12402-.73145-.37305-.95898Z" style="fill:#231f20;"/><path d="m97.68555,520.66639l-.20605,1.03027h-5.1123l-.61816,2.92285h4.76465l-.20605,1.03027h-4.77734l-.66992,3.18066h5.17676l-.23145,1.03027h-6.40039l1.94434-9.19434h6.33594Z" style="fill:#231f20;"/><path d="m98.67773,529.86072l-.95312-6.65723h1.15918l.56641,5.53711h.02539l2.88477-5.53711h1.18457l-3.69531,6.65723h-1.17188Z" style="fill:#231f20;"/><path d="m104.60059,527.43982c0,.25781.04688.4873.1416.68848.09375.20215.22266.37012.38574.50293s.34766.23633.55371.30859c.20605.07324.4209.10938.64453.10938.48926,0,.89258-.10938,1.20996-.32812s.55371-.53418.70801-.94629h1.09473c-.08594.36914-.22363.69336-.41211.97168-.18848.2793-.41602.51172-.68262.69531-.26562.18555-.5625.32422-.88867.41895s-.66895.1416-1.0293.1416c-.5498,0-1.00684-.08398-1.37207-.25098-.36426-.16797-.6543-.38184-.86914-.64355s-.36523-.5498-.4502-.86328c-.08594-.31348-.12891-.61621-.12891-.90723,0-.63574.0918-1.21777.27637-1.74512.18457-.52832.43359-.98047.74707-1.3584s.67773-.66992,1.09473-.87598c.41602-.20605.85156-.30859,1.30664-.30859.97852,0,1.69336.25684,2.14453.77246.4502.51465.67578,1.24023.67578,2.17578,0,.17188-.0127.33496-.03809.48926-.02637.1543-.04785.2793-.06445.37402h-5.00977c-.02539.18848-.03809.38184-.03809.5791Zm4.01074-2.23438c-.04688-.22754-.13281-.42871-.25781-.60547-.12402-.17578-.28906-.31738-.49512-.4248-.20605-.10645-.45996-.16016-.75977-.16016-.31836,0-.60352.04883-.85645.14746s-.47461.23438-.66309.40625c-.18945.1709-.34766.37109-.47656.59863s-.23145.46973-.30957.72754h3.86328c.01758-.23242.00195-.46191-.04492-.68945Z" style="fill:#231f20;"/><path d="m112.6875,523.20349l-.20605,1.00391h.02539c.27441-.38574.62207-.67578,1.04297-.86914s.86328-.28906,1.32617-.28906c.62695,0,1.09277.13672,1.39746.41211.30469.27441.45703.70801.45703,1.2998,0,.14648-.01758.33496-.05176.56738-.03418.23145-.08105.47559-.1416.7334l-.81055,3.79883h-1.09473l.84961-3.88867c.00879-.06836.02148-.14844.03906-.23828.0166-.08984.03418-.18457.05078-.2832.01758-.09863.03223-.19336.04492-.2832.01367-.09082.01953-.16504.01953-.22559,0-.31738-.11133-.55176-.33496-.70215-.22266-.14941-.49805-.22461-.82422-.22461-.2998,0-.59863.07227-.89453.21875-.2959.14551-.54688.33008-.75293.55371-.19824.17188-.35254.37988-.46387.62402-.11133.24512-.20215.5-.27051.7666l-.77246,3.68262h-1.08203l1.39062-6.65723h1.05664Z" style="fill:#231f20;"/><path d="m121.62305,523.20349l-.20605.96582h-1.32617l-.82422,3.91406c-.00879.07715-.0166.15039-.02539.21875-.00879.06934-.0127.14258-.0127.21973,0,.17188.06641.28906.19922.35352s.28516.09668.45703.09668c.11133,0,.21875-.01074.32227-.03223.10254-.02148.20605-.04883.30859-.08398l-.19336,1.00488c-.12793.01758-.25684.03223-.38574.04492s-.25781.01953-.38672.01953c-.20605,0-.39844-.01562-.5791-.04492-.18066-.03027-.33691-.08594-.46973-.16797-.13379-.08105-.24121-.19043-.32227-.32812-.08203-.13672-.12207-.31348-.12207-.52832,0-.09375.00586-.18359.01953-.26953.0127-.08594.02734-.18066.04492-.28418l.875-4.13281h-1.12012l.20605-.96582h1.12012l.41211-1.9707h1.09473l-.41211,1.9707h1.32617Z" style="fill:#231f20;"/><path d="m130.71387,520.66639c.88477,0,1.56055.21094,2.02832.63086.46777.4209.70215,1.05664.70215,1.90625,0,.2832-.05664.59473-.16797.93359s-.30273.6543-.57227.94629c-.27051.29199-.63184.53418-1.08203.72754-.45117.19336-1.01562.29004-1.69336.29004h-2.72949l-.79883,3.75977h-1.22363l1.91895-9.19434h3.61816Zm-.52734,4.4043c.66895,0,1.17578-.17383,1.51953-.52148.34277-.34766.51465-.79688.51465-1.3457,0-.2832-.04102-.52148-.12207-.71484-.08203-.19336-.19141-.34766-.32812-.46387-.1377-.11523-.29688-.19922-.47656-.25098-.18066-.05176-.37402-.07715-.58008-.07715h-2.58789l-.70801,3.37402h2.76855Z" style="fill:#231f20;"/><path d="m136.39355,520.66639l-1.93164,9.19434h-1.08203l1.91895-9.19434h1.09473Z" style="fill:#231f20;"/><path d="m137.31348,524.25232c.17578-.26953.39258-.49512.65039-.67578.25781-.17969.5498-.31348.87598-.39941.32617-.08496.66504-.12793,1.01758-.12793.32617,0,.63477.02539.92676.07715.29199.05078.54883.1416.77246.27051.22363.12793.40137.30176.53418.52148.13379.21875.2002.49512.2002.83008,0,.18945-.02441.39258-.07129.61133-.04688.21973-.0918.41895-.13477.59961l-.4248,1.81543c-.02637.1377-.0625.29199-.10938.46387-.04785.17188-.07129.33398-.07129.48926,0,.1543.03027.26172.08984.32129.06055.06055.1377.09082.23242.09082.05078,0,.10938-.01074.17383-.03223s.12207-.04102.17383-.05859l-.16797.81152c-.08594.03418-.19531.06641-.32812.09668s-.24707.04492-.34082.04492c-.30078,0-.52832-.08203-.68262-.24414-.15527-.16309-.21484-.39062-.18066-.68262l-.02539-.02637c-.23242.30957-.51953.5459-.86328.70898-.34277.16211-.79785.24414-1.36426.24414-.28418,0-.54785-.03223-.79199-.09668-.24512-.06445-.45801-.17188-.6377-.32227-.18066-.14941-.32422-.34277-.43164-.5791s-.16113-.52539-.16113-.86914c0-.48926.10547-.87109.31543-1.14551.21094-.27539.47852-.4834.80566-.625.3252-.1416.68652-.23828,1.08105-.29004.39453-.05078.77734-.09375,1.14648-.12891.29102-.02539.54297-.05273.75293-.08301s.38379-.0791.52148-.14844c.1377-.06836.23828-.16699.30273-.2959s.09668-.30469.09668-.52832c0-.17969-.04297-.32617-.12891-.4375s-.19336-.2002-.32227-.26367c-.12793-.06445-.27246-.11035-.43066-.13574-.15918-.02539-.31152-.03809-.45703-.03809-.20605,0-.41016.02148-.6123.06348-.20117.04395-.38379.11426-.54688.21289s-.30078.22363-.41211.37305c-.1123.15039-.18457.33301-.21875.54785h-1.09473c.05176-.36914.16504-.68945.34082-.95996Zm.30957,4.56543c.24414.1543.52148.23145.83008.23145.86719,0,1.48926-.29102,1.86719-.875.18066-.24902.30273-.51953.36719-.81152s.13477-.59277.21289-.90137h-.02637c-.1543.11133-.34961.19141-.58594.23828s-.4873.08398-.75293.10938c-.2666.02539-.53418.05762-.80469.09668-.27051.03809-.51367.10059-.72754.18652-.21484.08594-.39062.20801-.52832.36719s-.20996.37988-.21875.66309c0,.30859.12207.54102.36719.69531Z" style="fill:#231f20;"/><path d="m145.36914,523.20349l-.20605,1.00391h.02539c.27441-.38574.62207-.67578,1.04297-.86914s.86328-.28906,1.32617-.28906c.62695,0,1.09277.13672,1.39746.41211.30469.27441.45703.70801.45703,1.2998,0,.14648-.01758.33496-.05176.56738-.03418.23145-.08105.47559-.1416.7334l-.81055,3.79883h-1.09473l.84961-3.88867c.00879-.06836.02148-.14844.03906-.23828.0166-.08984.03418-.18457.05078-.2832.01758-.09863.03223-.19336.04492-.2832.01367-.09082.01953-.16504.01953-.22559,0-.31738-.11133-.55176-.33496-.70215-.22266-.14941-.49805-.22461-.82422-.22461-.2998,0-.59863.07227-.89453.21875-.2959.14551-.54688.33008-.75293.55371-.19824.17188-.35254.37988-.46387.62402-.11133.24512-.20215.5-.27051.7666l-.77246,3.68262h-1.08203l1.39062-6.65723h1.05664Z" style="fill:#231f20;"/><path d="m151.35645,527.43982c0,.25781.04688.4873.1416.68848.09375.20215.22266.37012.38574.50293s.34766.23633.55371.30859c.20605.07324.4209.10938.64453.10938.48926,0,.89258-.10938,1.20996-.32812s.55371-.53418.70801-.94629h1.09473c-.08594.36914-.22363.69336-.41211.97168-.18848.2793-.41602.51172-.68262.69531-.26562.18555-.5625.32422-.88867.41895s-.66895.1416-1.0293.1416c-.5498,0-1.00684-.08398-1.37207-.25098-.36426-.16797-.6543-.38184-.86914-.64355s-.36523-.5498-.4502-.86328c-.08594-.31348-.12891-.61621-.12891-.90723,0-.63574.0918-1.21777.27637-1.74512.18457-.52832.43359-.98047.74707-1.3584s.67773-.66992,1.09473-.87598c.41602-.20605.85156-.30859,1.30664-.30859.97852,0,1.69336.25684,2.14453.77246.4502.51465.67578,1.24023.67578,2.17578,0,.17188-.0127.33496-.03809.48926-.02637.1543-.04785.2793-.06445.37402h-5.00977c-.02539.18848-.03809.38184-.03809.5791Zm4.01074-2.23438c-.04688-.22754-.13281-.42871-.25781-.60547-.12402-.17578-.28906-.31738-.49512-.4248-.20605-.10645-.45996-.16016-.75977-.16016-.31836,0-.60352.04883-.85645.14746s-.47461.23438-.66309.40625c-.18945.1709-.34766.37109-.47656.59863s-.23145.46973-.30957.72754h3.86328c.01758-.23242.00195-.46191-.04492-.68945Z" style="fill:#231f20;"/><path d="m467.68652,510.93592c-.09863-.24512-.24023-.44238-.4248-.59277-.18457-.14941-.41016-.25488-.67578-.31543-.2666-.05957-.55859-.08984-.87598-.08984-.22363,0-.45898.02832-.70801.08398s-.47852.14355-.68945.26367c-.20996.12012-.38379.27441-.52148.46387-.13672.18848-.20605.41992-.20605.69531,0,.22266.03906.41406.11621.57227.07715.15918.18262.29688.31543.41211.13281.11621.29199.21289.47656.29004s.37988.14648.58594.20605l1.23633.33496c.2832.07715.55762.17383.82422.29004.26562.11523.50195.26562.70801.4502s.37109.41895.49609.70215c.12402.2832.18652.63086.18652,1.04297,0,.48047-.10938.89453-.32812,1.24219-.21973.34766-.50098.63574-.84375.86328-.34375.22754-.72754.39648-1.15234.50879-.4248.11133-.84375.16699-1.25586.16699-.5498,0-1.05566-.0625-1.51953-.18652-.46387-.125-.85645-.31543-1.17773-.57324-.32227-.25781-.56738-.58984-.73438-.99805-.16699-.40723-.22949-.89453-.18652-1.46191h1.22266c-.0166.41211.03027.75977.14258,1.04395.11133.2832.27637.51074.49512.68164.21875.17188.4834.29492.79199.36719.30957.07324.64844.10938,1.01758.10938.2832,0,.56445-.03418.84375-.10254.27832-.06836.52539-.17383.74023-.31543.21387-.1416.3877-.32422.52148-.54785.13281-.22266.19922-.48926.19922-.79785,0-.23242-.04297-.43164-.12891-.59863-.08594-.16797-.2041-.30957-.35352-.42578-.15039-.11523-.32422-.21191-.52148-.28906-.19824-.07715-.4082-.14648-.63184-.20605l-1.24902-.33496c-.27441-.07715-.53613-.17773-.78516-.30273-.24902-.12402-.46777-.27832-.65625-.46387-.18945-.18457-.33984-.40332-.45117-.65625s-.16699-.55176-.16699-.89453c0-.44629.09863-.83496.2959-1.16602.19727-.33008.45312-.60742.7666-.83008.3125-.22363.66895-.39062,1.06836-.50293.39941-.11133.80469-.16699,1.2168-.16699.45508,0,.88672.05762,1.29395.17383.4082.11621.7666.29199,1.0752.52832.30957.23633.55176.53809.72754.90723s.25586.81152.23828,1.32617h-1.22266c.00781-.36035-.03711-.66309-.13574-.90723Z" style="fill:#231f20;"/><path d="m471.82617,511.66346l-.23145.95312h.02539c.32617-.42969.66309-.72168,1.01074-.87598s.74512-.23145,1.19141-.23145c.42871,0,.80469.06641,1.12598.19922.32227.13281.59473.32031.81836.56055.22266.24023.39062.52734.50195.8623s.16699.7041.16699,1.10742c0,.50684-.08301,1.01074-.25098,1.5127-.16699.50293-.40723.95508-.7207,1.35938-.31348.40332-.7002.72949-1.15918.97852s-.98047.37305-1.56445.37305c-.19727,0-.40527-.01758-.62402-.05176-.21973-.03418-.42578-.09668-.61816-.18652-.19336-.08984-.36523-.20996-.51562-.36035s-.25488-.33691-.31543-.56055h-.02539l-.70801,3.55469h-1.06934l1.93164-9.19434h1.03027Zm3.10938,1.28711c-.27051-.31738-.70605-.47559-1.30664-.47559-.41211,0-.78125.10742-1.10742.32129-.32617.21484-.59863.48535-.81738.81152-.21973.32617-.38672.68262-.50293,1.06836-.11523.38672-.17383.75586-.17383,1.10742,0,.49805.14355.91016.43164,1.23633.28711.32617.70215.48926,1.24316.48926.4375,0,.81934-.10059,1.14551-.30273.32617-.20117.60059-.46094.82422-.77832.22266-.31738.39062-.66992.50195-1.05664.11133-.38574.16797-.76367.16797-1.13281,0-.54102-.13574-.96973-.40625-1.28809Z" style="fill:#231f20;"/><path d="m478.3418,515.89978c0,.25781.04688.4873.1416.68848.09375.20215.22266.37012.38574.50293s.34766.23633.55371.30859c.20605.07324.4209.10938.64453.10938.48926,0,.89258-.10938,1.20996-.32812s.55371-.53418.70801-.94629h1.09473c-.08594.36914-.22363.69336-.41211.97168-.18848.2793-.41602.51172-.68262.69531-.26562.18555-.5625.32422-.88867.41895s-.66895.1416-1.0293.1416c-.5498,0-1.00684-.08398-1.37207-.25098-.36426-.16797-.6543-.38184-.86914-.64355s-.36523-.5498-.4502-.86328c-.08594-.31348-.12891-.61621-.12891-.90723,0-.63574.0918-1.21777.27637-1.74512.18457-.52832.43359-.98047.74707-1.3584s.67773-.66992,1.09473-.87598c.41602-.20605.85156-.30859,1.30664-.30859.97852,0,1.69336.25684,2.14453.77246.4502.51465.67578,1.24023.67578,2.17578,0,.17188-.0127.33496-.03809.48926-.02637.1543-.04785.2793-.06445.37402h-5.00977c-.02539.18848-.03809.38184-.03809.5791Zm4.01074-2.23438c-.04688-.22754-.13281-.42871-.25781-.60547-.12402-.17578-.28906-.31738-.49512-.4248-.20605-.10645-.45996-.16016-.75977-.16016-.31836,0-.60352.04883-.85645.14746s-.47461.23438-.66309.40625c-.18945.1709-.34766.37109-.47656.59863s-.23145.46973-.30957.72754h3.86328c.01758-.23242.00195-.46191-.04492-.68945Z" style="fill:#231f20;"/><path d="m489.0166,512.8158c-.24902-.22754-.59277-.34082-1.03027-.34082-.4209,0-.79199.09375-1.11328.2832-.32227.18848-.59277.43359-.81152.7334-.21875.30078-.38477.6377-.49609,1.01074-.11133.37402-.16699.74121-.16699,1.10156,0,.25684.02734.50195.08301.7334.05664.23242.14844.43359.27734.60547s.29785.30957.50879.41211c.20996.10352.46973.1543.7793.1543.47168,0,.875-.12402,1.20996-.37305s.5791-.5791.73438-.99121h1.09375c-.19727.75488-.55762,1.33008-1.08105,1.72461-.52344.39551-1.17676.59277-1.95703.59277-.91016,0-1.59473-.24902-2.05469-.74707-.45898-.49707-.68848-1.20117-.68848-2.11133,0-.53223.0791-1.04297.23828-1.53223.1582-.48926.39453-.92578.70801-1.30762s.69922-.68652,1.15918-.91406c.45898-.22754.98535-.34082,1.57715-.34082.75586,0,1.35449.18164,1.79688.54688.44141.36523.67578.93848.70117,1.71875h-1.09473c0-.41211-.12402-.73145-.37305-.95898Z" style="fill:#231f20;"/><path d="m393.94206,546.5491c12.63619-13.10795,26.85964-26.37464,45.40741-29.82136,5.1789-.96239,10.50335-1.04008,15.68271-.04608.77167.1481,1.10221-1.03441.32623-1.18333-19.00538-3.64744-36.86836,6.45933-50.55915,18.71019-4.0767,3.64793-7.92961,7.53582-11.72494,11.47284-.54829.56876.31836,1.43763.86774.86774h0Z" style="fill:#231f20;"/><path d="m230.68555,45.3451c1.07324.5498,2.72266,1.10059,4.4248,1.10059,1.83301,0,2.80176-.75977,2.80176-1.91211,0-1.09961-.83789-1.72754-2.95898-2.4873-2.93262-1.02148-4.84375-2.64453-4.84375-5.21094,0-3.01074,2.51367-5.31543,6.67676-5.31543,1.99023,0,3.45605.41895,4.50391.89062l-.89062,3.2207c-.70703-.34082-1.96387-.83789-3.69141-.83789-1.72852,0-2.56641.78516-2.56641,1.70215,0,1.12598.99512,1.62305,3.27246,2.4873,3.11621,1.15234,4.58301,2.77539,4.58301,5.2627,0,2.95898-2.27832,5.47266-7.12207,5.47266-2.0166,0-4.00684-.52344-5.00195-1.07324l.8125-3.2998Z"/><path d="m247.80664,44.32459c.13086,1.64941,1.75391,2.43457,3.61328,2.43457,1.36133,0,2.46094-.18262,3.53418-.52344l.52441,2.69727c-1.30957.52344-2.90625.78516-4.63477.78516-4.34668,0-6.83398-2.51367-6.83398-6.51953,0-3.24707,2.01562-6.83398,6.4668-6.83398,4.1377,0,5.70898,3.2207,5.70898,6.38867,0,.68066-.0791,1.2832-.13086,1.57129h-8.24805Zm4.68652-2.72363c0-.96875-.41895-2.5918-2.25195-2.5918-1.67578,0-2.35645,1.51855-2.46094,2.5918h4.71289Z"/><path d="m258.56641,40.86756c0-1.88477-.05273-3.11523-.10547-4.21484h3.43066l.13086,2.35645h.10449c.6543-1.85938,2.22559-2.64453,3.45605-2.64453.36719,0,.5498,0,.83789.05176v3.74512c-.28809-.05273-.62793-.10547-1.07324-.10547-1.4668,0-2.46094.78613-2.72266,2.0166-.05273.26172-.0791.57617-.0791.89062v6.49316h-3.97949v-8.58887Z"/><path d="m271.94434,36.65271l1.72852,5.94336c.31445,1.07324.5498,2.09473.7334,3.11621h.07812c.20996-1.04785.41895-2.0166.70703-3.11621l1.64941-5.94336h4.18945l-4.76562,12.80371h-3.97949l-4.66113-12.80371h4.32031Z"/><path d="m286.97168,33.09119c0,1.09961-.83789,1.99023-2.14746,1.99023-1.25586,0-2.09375-.89062-2.06836-1.99023-.02539-1.15234.8125-2.01562,2.09473-2.01562,1.2832,0,2.09473.86328,2.12109,2.01562Zm-4.11035,16.36523v-12.80371h3.97949v12.80371h-3.97949Z"/><path d="m299.64355,49.14197c-.70703.31445-2.04297.57617-3.56152.57617-4.13672,0-6.78125-2.51367-6.78125-6.5459,0-3.74414,2.56543-6.80762,7.33105-6.80762,1.04785,0,2.2002.18262,3.03809.49707l-.62891,2.95898c-.47168-.20898-1.17773-.39258-2.22559-.39258-2.09473,0-3.45605,1.49219-3.42969,3.58691,0,2.35645,1.57031,3.58691,3.50781,3.58691.94336,0,1.67578-.15625,2.27832-.39258l.47168,2.93262Z"/><path d="m304.61621,44.32459c.13086,1.64941,1.75391,2.43457,3.61328,2.43457,1.36133,0,2.46094-.18262,3.53418-.52344l.52441,2.69727c-1.30957.52344-2.90723.78516-4.63477.78516-4.34668,0-6.83398-2.51367-6.83398-6.51953,0-3.24707,2.01562-6.83398,6.46777-6.83398,4.13672,0,5.70801,3.2207,5.70801,6.38867,0,.68066-.0791,1.2832-.13086,1.57129h-8.24805Zm4.68652-2.72363c0-.96875-.41895-2.5918-2.25195-2.5918-1.67578,0-2.35645,1.51855-2.46094,2.5918h4.71289Z"/></svg>